# Blender 5.1.1
# www.blender.org
mtllib Colosseum.mtl
o 円柱.002
v 2.736348 23.055643 117.598969
v 2.736348 23.055643 119.598969
v 8.144000 20.891407 117.598969
v 8.144000 20.891407 119.598969
v 12.311800 16.962347 117.598969
v 12.311800 16.962347 119.598969
v 14.605243 11.866627 117.598969
v 14.605243 11.866627 119.598969
v 14.675168 6.380023 117.598969
v 14.675168 6.380023 119.598969
v -14.710908 15.022590 117.598969
v -14.710908 15.022590 119.598969
v 14.569500 14.671049 119.598969
v 14.569500 14.671049 117.598969
v 14.499575 20.157654 119.598969
v 14.499575 20.157654 117.598969
v 12.206133 25.253372 119.598969
v 12.206133 25.253372 117.598969
v 2.630681 31.346670 119.598969
v 8.038332 29.182434 119.598969
v 8.038332 29.182434 117.598969
v 2.630681 31.346670 117.598969
v -14.605243 6.731564 117.598969
v -14.605243 6.731564 119.598969
v -14.675168 12.218168 117.598969
v -14.675168 12.218168 119.598969
v -12.510932 17.260370 117.598969
v -12.510932 17.260370 119.598969
v -8.442020 21.090540 117.598969
v -8.442020 21.090540 119.598969
v -3.087889 23.125568 117.598969
v -3.087889 23.125568 119.598969
v -14.780834 20.509193 117.598969
v -14.780834 20.509193 119.598969
v -12.616598 25.551395 117.598969
v -12.616598 25.551395 119.598969
v -8.547688 29.381565 117.598969
v -8.547688 29.381565 119.598969
v -3.193555 31.416595 117.598969
v -3.193555 31.416595 119.598969
v -12.767206 37.368607 119.598969
v -12.767206 37.368607 117.598969
v -14.931442 32.326405 119.598969
v -14.931442 32.326405 117.598969
v -14.861517 26.839802 119.598969
v -14.861517 26.839802 117.598969
v 14.418893 26.488260 119.598969
v 14.418893 26.488260 117.598969
v 14.348967 31.974863 119.598969
v 14.348967 31.974863 117.598969
v 12.055526 37.070587 119.598969
v 12.055526 37.070587 117.598969
v 7.887724 40.999641 119.598969
v 7.887724 40.999641 117.598969
v 2.480073 43.163879 117.598969
v 2.480073 43.163879 119.598969
v -8.698296 41.198776 117.598969
v -8.698296 41.198776 119.598969
v -3.344162 43.233807 117.598969
v -3.344162 43.233807 119.598969
v -0.000003 130.000031 -190.000031
v -0.000000 6.291431 -200.000031
v -0.000001 70.000008 -180.000031
v -37.067173 130.000015 -186.349213
v -72.709869 130.000015 -175.537140
v -0.000004 100.000008 -130.000000
v -105.558365 130.000031 -157.979248
v -0.000003 156.291443 -200.000031
v -134.350296 130.000015 -134.350281
v -35.116261 70.000000 -176.541351
v 25.361740 100.000008 -127.502098
v -157.979233 130.000015 -105.558357
v 39.018066 6.291428 -196.157074
v -175.537125 130.000015 -72.709862
v -186.349213 130.000015 -37.067177
v 49.748852 100.000008 -120.104347
v -190.000015 130.000015 -0.000008
v -68.883026 70.000000 -166.298309
v 39.018066 156.291443 -196.157074
v -186.349213 130.000000 37.067146
v -175.537125 130.000000 72.709854
v 72.224121 100.000008 -108.091057
v -157.979233 130.000015 105.558350
v -100.002663 70.000000 -149.664520
v 76.536697 6.291429 -184.775909
v -134.350296 130.000015 134.350281
v -105.558365 130.000015 157.979233
v -127.279236 70.000008 -127.279228
v -72.709869 130.000031 175.537109
v 91.923882 100.000000 -91.923882
v 76.536690 156.291443 -184.775909
v -37.067169 130.000015 186.349197
v -0.000003 130.000031 190.000000
v -149.664551 70.000015 -100.002647
v 108.091049 100.000000 -72.224144
v 37.067162 130.000031 186.349197
v 111.114052 6.291429 -166.293915
v 72.709869 130.000031 175.537109
v 120.104347 100.000008 -49.748863
v 105.558357 130.000015 157.979233
v -166.298325 70.000008 -68.883018
v 134.350311 130.000031 134.350281
v 111.114059 156.291443 -166.293915
v 157.979248 130.000000 105.558350
v 175.537125 130.000000 72.709862
v 127.502098 100.000000 -25.361748
v 186.349228 130.000000 37.067154
v -176.541351 70.000008 -35.116264
v 190.000015 130.000000 0.000000
v 141.421371 6.291428 -141.421356
v 130.000000 100.000000 0.000000
v 186.349228 130.000000 -37.067177
v -180.000015 70.000000 -0.000008
v 175.537125 130.000015 -72.709862
v 141.421371 156.291443 -141.421356
v 157.979248 130.000000 -105.558357
v -176.541351 70.000000 35.116249
v 134.350296 130.000000 -134.350281
v 127.502098 100.000000 25.361740
v 105.558350 130.000015 -157.979248
v 166.293930 6.291430 -111.114067
v 72.709862 130.000031 -175.537140
v 37.067162 130.000000 -186.349213
v 120.104347 100.000000 49.748848
v -166.298325 70.000015 68.883011
v 166.293930 156.291443 -111.114052
v 108.091049 100.000008 72.224121
v -149.664551 70.000008 100.002640
v 184.775909 6.291432 -76.536705
v 91.923882 100.000000 91.923874
v -127.279236 70.000008 127.279205
v 184.775909 156.291443 -76.536690
v -100.002655 70.000008 149.664520
v 72.224129 100.000008 108.091042
v -68.883026 70.000000 166.298309
v 196.157059 6.291427 -39.018074
v 49.748848 100.000000 120.104340
v 196.157059 156.291412 -39.018059
v -35.116264 70.000000 176.541336
v 25.361740 100.000008 127.502075
v -0.000001 70.000000 180.000000
v 200.000015 6.291429 -0.000008
v -0.000002 100.000015 130.000000
v 35.116264 70.000008 176.541336
v 200.000015 156.291443 -0.000008
v -25.361746 100.000008 127.502075
v 68.883026 70.000015 166.298309
v 196.157059 6.291431 39.018059
v -49.748848 100.000000 120.104332
v 100.002655 70.000000 149.664520
v 196.157059 156.291443 39.018066
v -72.224129 100.000008 108.091034
v 184.775909 6.291433 76.536682
v 127.279221 70.000008 127.279205
v -91.923889 100.000008 91.923874
v 149.664520 70.000000 100.002640
v 184.775909 156.291443 76.536690
v -108.091049 100.000008 72.224121
v 166.293930 6.291428 111.114044
v 166.298309 70.000015 68.883011
v -120.104347 100.000008 49.748840
v 166.293930 156.291443 111.114052
v 176.541351 70.000000 35.116257
v -127.502106 100.000015 25.361732
v 141.421371 6.291429 141.421356
v 179.999985 70.000000 0.000000
v -129.999985 100.000015 -0.000008
v 141.421371 156.291443 141.421356
v -127.502106 100.000008 -25.361748
v 176.541351 70.000008 -35.116264
v 111.114052 6.291428 166.293915
v -120.104347 100.000015 -49.748863
v 166.298309 70.000008 -68.883018
v 111.114059 156.291412 166.293915
v -108.091049 100.000008 -72.224144
v 149.664520 70.000000 -100.002647
v 76.536705 6.291426 184.775879
v 127.279213 70.000000 -127.279228
v -91.923889 100.000015 -91.923882
v 76.536697 156.291443 184.775894
v -72.224129 100.000000 -108.091057
v 100.002647 70.000000 -149.664520
v 68.883026 70.000015 -166.298309
v -49.748848 100.000008 -120.104347
v 39.018066 6.291430 196.157043
v 39.018066 156.291443 196.157043
v 35.116261 70.000000 -176.541351
v -25.361746 100.000000 -127.502098
v -0.000001 6.291428 200.000000
v -0.000003 156.291443 200.000000
v -39.018066 6.291432 196.157043
v -39.018074 156.291443 196.157043
v -76.536697 6.291430 184.775879
v -76.536713 156.291443 184.775894
v -111.114059 6.291430 166.293915
v -111.114059 156.291443 166.293915
v -141.421371 6.291436 141.421341
v -141.421371 156.291443 141.421356
v -166.293945 6.291424 111.114044
v -166.293930 156.291443 111.114052
v -184.775909 6.291430 76.536682
v -184.775909 156.291443 76.536682
v -196.157074 6.291435 39.018059
v -196.157059 156.291412 39.018066
v -200.000031 6.291429 0.000000
v -200.000015 156.291443 0.000000
v -196.157074 6.291427 -39.018074
v -196.157059 156.291412 -39.018074
v -184.775909 6.291429 -76.536705
v -184.775909 156.291443 -76.536705
v -166.293945 6.291433 -111.114067
v -166.293930 156.291443 -111.114067
v -141.421371 6.291435 -141.421356
v -141.421371 156.291443 -141.421356
v -111.114059 6.291432 -166.293915
v -111.114059 156.291443 -166.293915
v -76.536705 6.291432 -184.775909
v -76.536713 156.291443 -184.775909
v -39.018066 6.291429 -196.157074
v -39.018074 156.291412 -196.157074
v -23.410841 6.291430 -117.694237
v 23.410839 6.291432 -117.694237
v -0.000001 6.291428 -119.999992
v 45.922012 6.291426 110.865524
v 66.668427 6.291427 -99.776360
v 66.668427 6.291431 99.776337
v 45.922016 6.291429 -110.865532
v 99.776360 6.291428 66.668419
v 84.852814 6.291425 84.852798
v 99.776352 6.291426 -66.668434
v 120.000000 6.291429 -0.000008
v 117.694229 6.291430 -23.410851
v 110.865540 6.291427 45.922005
v 117.694229 6.291428 23.410835
v 110.865540 6.291431 -45.922020
v 84.852814 6.291426 -84.852806
v -120.000008 6.291427 0.000000
v -110.865547 6.291429 45.922005
v -117.694229 6.291430 23.410835
v -117.694229 6.291432 -23.410835
v -99.776352 6.291428 66.668419
v -99.776352 6.291433 -66.668434
v -84.852814 6.291431 84.852798
v -110.865547 6.291433 -45.922020
v -45.922012 6.291433 -110.865532
v -66.668427 6.291431 99.776337
v -66.668427 6.291427 -99.776360
v -23.410841 6.291427 117.694214
v 23.410839 6.291429 117.694214
v -0.000000 6.291431 119.999985
v -45.922016 6.291430 110.865524
v -84.852821 6.291432 -84.852806
v -112.259888 6.291433 41.325462
v -18.630598 6.291432 -118.165047
v -102.040649 6.291430 62.432224
v 4.780242 6.291430 -119.529182
v 28.007381 6.291431 -116.299889
v -87.900047 6.291430 81.139748
v 50.158215 6.291428 -108.601250
v 70.381485 6.291431 -96.729118
v -118.165054 6.291434 18.630592
v -41.325470 6.291432 -112.259880
v -62.432232 6.291433 -102.040642
v -119.529182 6.291429 -4.780243
v -116.299889 6.291428 -28.007378
v -81.139755 6.291431 -87.900047
v -108.601250 6.291429 -50.158211
v -96.729118 6.291430 -70.381493
v 23.410839 43.333336 -117.694237
v 17.629625 43.333336 -118.263634
v -0.000001 43.333336 -119.999992
v 9.116153 43.333332 -119.102135
v 45.922016 43.333336 -110.865532
v 40.362968 43.333336 -112.551872
v 32.176666 43.333340 -115.035149
v 66.668427 43.333336 -99.776360
v 61.545181 43.333332 -102.514793
v 54.000645 43.333332 -106.547417
v 84.852814 43.333336 -84.852806
v 80.362251 43.333332 -88.538124
v 73.749413 43.333336 -93.965141
v 99.776352 43.333336 -66.668434
v 110.865540 43.333332 -45.922020
v 117.694221 43.333336 -23.410851
v 120.000008 43.333332 -0.000008
v 117.694221 43.333340 23.410828
v 110.865547 43.333336 45.922005
v 99.776352 43.333336 66.668427
v 84.852814 43.333336 84.852798
v 66.668427 43.333332 99.776337
v 45.922012 43.333332 110.865524
v 23.410839 43.333332 117.694214
v -0.000000 43.333340 119.999985
v -23.410841 43.333336 117.694214
v -45.922020 43.333336 110.865524
v -66.668434 43.333336 99.776337
v -84.852821 43.333336 84.852798
v -99.776352 43.333340 66.668419
v -96.091049 43.333340 71.158981
v -90.664024 43.333336 77.771820
v -110.865547 43.333340 45.922005
v -108.127113 43.333340 51.045250
v -104.094482 43.333340 58.589790
v -117.694237 43.333340 23.410835
v -116.007912 43.333336 28.969879
v -113.524628 43.333332 37.156181
v -120.000000 43.333332 -0.000008
v -119.430603 43.333332 5.781212
v -118.592110 43.333340 14.294678
v -117.694237 43.333336 -23.410835
v -118.263641 43.333336 -17.629631
v -119.102135 43.333332 -9.116158
v -110.865547 43.333336 -45.922020
v -112.551865 43.333336 -40.362968
v -115.035149 43.333336 -32.176674
v -99.776352 43.333336 -66.668434
v -102.514793 43.333336 -61.545189
v -106.547432 43.333340 -54.000648
v -84.852821 43.333336 -84.852806
v -88.538132 43.333336 -80.362267
v -93.965149 43.333336 -73.749413
v -66.668434 43.333336 -99.776360
v -71.158997 43.333336 -96.091057
v -77.771843 43.333332 -90.664024
v -45.922016 43.333340 -110.865532
v -51.045261 43.333340 -108.127113
v -58.589809 43.333340 -104.094475
v -23.410841 43.333340 -117.694237
v -28.969883 43.333332 -116.007912
v -37.156185 43.333336 -113.524620
v -5.781215 43.333336 -119.430595
v -14.294689 43.333340 -118.592094
v 23.410837 100.000000 -117.694237
v -0.000004 100.000008 -119.999992
v 45.922016 100.000000 -110.865532
v 66.668427 100.000008 -99.776360
v 84.852814 100.000000 -84.852806
v 99.776352 100.000000 -66.668434
v 110.865540 100.000008 -45.922020
v 117.694229 100.000008 -23.410851
v 120.000000 100.000008 0.000000
v 117.694229 100.000008 23.410835
v 110.865540 100.000000 45.922012
v 99.776352 100.000000 66.668427
v 84.852814 100.000008 84.852798
v 66.668427 100.000015 99.776337
v 45.922012 100.000000 110.865532
v 23.410839 100.000008 117.694221
v -0.000002 100.000015 119.999992
v -23.410843 100.000008 117.694214
v -45.922020 100.000008 110.865524
v -66.668434 100.000008 99.776337
v -84.852821 100.000008 84.852798
v -99.776352 100.000008 66.668427
v -110.865555 100.000008 45.922005
v -117.694229 100.000008 23.410835
v -120.000000 100.000008 -0.000008
v -117.694229 100.000008 -23.410851
v -110.865555 100.000015 -45.922020
v -99.776352 100.000008 -66.668434
v -84.852821 100.000015 -84.852806
v -66.668434 100.000000 -99.776360
v -45.922016 100.000008 -110.865532
v -23.410843 100.000008 -117.694237
v -127.502106 70.000008 -25.361748
v -120.104340 70.000008 -49.748863
v -108.091049 70.000008 -72.224144
v -25.361742 70.000008 -127.502098
v -49.748852 70.000008 -120.104347
v -91.923889 70.000008 -91.923882
v -72.224136 70.000000 -108.091057
v -0.000002 70.000008 -130.000000
v 25.361742 70.000000 -127.502098
v 49.748852 70.000000 -120.104347
v 130.000000 70.000000 -0.000008
v 127.502090 70.000000 25.361732
v 127.502090 70.000000 25.361732
v 127.502090 70.000008 -25.361748
v 120.104340 70.000015 -49.748863
v 108.091049 70.000008 -72.224144
v 91.923882 70.000000 -91.923882
v 72.224129 70.000000 -108.091057
v -130.000015 70.000000 -0.000008
v -108.091049 70.000000 72.224121
v -120.104340 70.000000 49.748840
v -127.502106 70.000015 25.361732
v -127.502106 70.000008 -25.361748
v -49.748852 70.000000 120.104332
v -0.000001 70.000008 130.000000
v 25.361742 70.000000 127.502075
v -25.361740 70.000008 127.502075
v 72.224129 70.000000 108.091034
v 120.104340 70.000008 49.748840
v 91.923889 70.000000 91.923874
v 108.091049 70.000000 72.224121
v 49.748852 70.000008 120.104332
v -72.224136 70.000000 108.091034
v -91.923882 70.000008 91.923866
v 23.410837 100.526321 -117.694237
v 23.410835 100.526321 -117.694237
v -0.000004 100.526321 -119.999992
v 45.922016 100.526314 -110.865532
v 66.668427 100.526321 -99.776360
v 84.852814 100.526321 -84.852806
v 99.776352 100.526321 -66.668434
v 110.865540 100.526321 -45.922020
v 117.694229 100.526321 -23.410851
v 117.694229 100.526321 -23.410851
v 120.000000 100.526329 0.000000
v 117.694229 100.526321 23.410835
v 117.694229 100.526321 23.410835
v 110.865547 100.526321 45.922012
v 99.776352 100.526321 66.668427
v 84.852821 100.526321 84.852798
v 66.668434 100.526321 99.776337
v 45.922012 100.526321 110.865532
v 23.410837 100.526321 117.694221
v 23.410835 100.526321 117.694221
v -0.000002 100.526329 119.999992
v -23.410841 100.526321 117.694214
v -23.410845 100.526321 117.694214
v -45.922012 100.526314 110.865524
v -66.668427 100.526321 99.776337
v -84.852814 100.526321 84.852798
v -99.776352 100.526314 66.668427
v -110.865540 100.526329 45.922005
v -117.694229 100.526321 23.410835
v -120.000008 100.526321 -0.000008
v -117.694229 100.526321 23.410828
v -117.694229 100.526321 -23.410835
v -117.694229 100.526321 -23.410851
v -110.865540 100.526321 -45.922020
v -99.776352 100.526321 -66.668434
v -84.852814 100.526329 -84.852806
v -66.668427 100.526321 -99.776360
v -45.922012 100.526321 -110.865532
v -23.410845 100.526314 -117.694237
v -23.410841 100.526314 -117.694237
v -75.025642 156.291443 -181.127899
v -181.127884 156.291443 -75.025627
v -181.127884 156.291443 -75.025642
v -163.010788 156.291443 -108.920341
v -138.629288 156.291443 -138.629303
v -108.920341 156.291443 -163.010803
v -0.000003 156.291443 -196.051422
v 75.025635 156.291443 -181.127899
v 38.247738 156.291412 -192.284332
v -38.247738 156.291443 -192.284332
v 196.051422 156.291412 -0.000008
v 181.127884 156.291443 75.025627
v 192.284332 156.291443 38.247726
v 192.284332 156.291443 -38.247734
v 181.127884 156.291443 -75.025627
v 163.010803 156.291443 -108.920326
v 138.629288 156.291443 -138.629303
v 108.920334 156.291443 -163.010803
v -196.051422 156.291443 0.000000
v -75.025635 156.291443 181.127869
v -108.920334 156.291443 163.010788
v -138.629288 156.291443 138.629288
v -163.010788 156.291443 108.920326
v -181.127884 156.291443 75.025635
v -192.284332 156.291443 38.247726
v -192.284332 156.291443 -38.247749
v -0.000003 156.291443 196.051422
v 38.247738 156.291443 192.284317
v 181.127884 156.291443 75.025635
v 138.629288 156.291443 138.629288
v 163.010803 156.291443 108.920326
v 75.025642 156.291443 181.127869
v 108.920334 156.291443 163.010788
v -38.247742 156.291443 192.284317
v -121.372185 130.000015 -24.142433
v -121.372185 130.000015 -24.142433
v -114.330101 130.000015 -47.357094
v -102.894363 130.000000 -68.751823
v -87.504486 130.000015 -87.504478
v -47.357082 130.000015 -114.330101
v -24.142431 130.000000 121.372177
v -24.142429 130.000015 -121.372185
v -68.751831 130.000015 -102.894371
v 24.142427 130.000015 121.372177
v 24.142427 130.000000 -121.372185
v -0.000004 130.000015 -123.750023
v -0.000002 130.000031 123.750008
v 121.372177 130.000015 24.142426
v 123.750008 130.000031 0.000000
v 121.372177 130.000015 -24.142448
v 87.504478 130.000000 87.504471
v 102.894363 130.000031 68.751816
v 114.330093 130.000000 47.357079
v 114.330093 130.000015 -47.357094
v 102.894363 130.000000 -68.751823
v 87.504471 130.000000 -87.504478
v 47.357082 130.000015 114.330086
v 68.751816 130.000031 102.894363
v 68.751816 130.000000 -102.894371
v 47.357082 130.000000 -114.330101
v -102.894363 130.000000 68.751816
v -114.330101 130.000000 47.357079
v -121.372185 130.000015 24.142426
v -123.750008 130.000015 0.000000
v -24.142431 130.000000 121.372177
v -47.357086 130.000015 114.330086
v -68.751831 130.000015 102.894363
v -87.504486 130.000000 87.504471
v 2.736348 23.055645 -119.599998
v 2.736348 23.055645 -117.599998
v 8.144000 20.891407 -119.599998
v 8.144000 20.891407 -117.599998
v 12.311800 16.962349 -119.599998
v 12.311800 16.962349 -117.599998
v 14.605243 11.866627 -119.599998
v 14.605243 11.866627 -117.599998
v 14.675168 6.380023 -119.599998
v 14.675168 6.380023 -117.599998
v -14.710909 15.022589 -119.599998
v -14.710909 15.022589 -117.599998
v 14.569500 14.671049 -117.599998
v 14.569500 14.671049 -119.599998
v 14.499575 20.157654 -117.599998
v 14.499575 20.157654 -119.599998
v 12.206133 25.253372 -117.599998
v 12.206133 25.253372 -119.599998
v 2.630681 31.346670 -117.599998
v 8.038332 29.182434 -117.599998
v 8.038332 29.182434 -119.599998
v 2.630681 31.346670 -119.599998
v -14.605243 6.731564 -119.599998
v -14.605243 6.731564 -117.599998
v -14.675168 12.218168 -119.599998
v -14.675168 12.218167 -117.599998
v -12.510932 17.260370 -119.599998
v -12.510932 17.260370 -117.599998
v -8.442020 21.090542 -119.599998
v -8.442020 21.090542 -117.599998
v -3.087888 23.125568 -119.599998
v -3.087889 23.125568 -117.599998
v -14.780834 20.509193 -119.599998
v -14.780834 20.509193 -117.599998
v -12.616598 25.551395 -119.599998
v -12.616598 25.551395 -117.599998
v -8.547688 29.381565 -119.599998
v -8.547688 29.381565 -117.599998
v -3.193555 31.416595 -119.599998
v -3.193555 31.416595 -117.599998
v -12.767206 37.368607 -117.599998
v -12.767206 37.368607 -119.599998
v -14.931442 32.326405 -117.599998
v -14.931442 32.326405 -119.599998
v -14.861517 26.839802 -117.599998
v -14.861517 26.839802 -119.599998
v 14.418893 26.488260 -117.599998
v 14.418893 26.488260 -119.599998
v 14.348967 31.974863 -117.599998
v 14.348967 31.974863 -119.599998
v 12.055526 37.070587 -117.599998
v 12.055526 37.070587 -119.599998
v 7.887724 40.999645 -117.599998
v 7.887724 40.999645 -119.599998
v 2.480073 43.163883 -119.599998
v 2.480072 43.163883 -117.599998
v -8.698296 41.198776 -119.599998
v -8.698296 41.198776 -117.599998
v -3.344162 43.233810 -119.599998
v -3.344162 43.233810 -117.599998
vn -0.0000 -0.0000 -1.0000
vn -0.0000 -0.0000 1.0000
vn -0.0871 0.0173 0.9961
vn 0.9999 0.0127 -0.0000
vn -0.9999 -0.0127 -0.0000
vn -0.9808 0.1951 -0.0000
vn 0.0120 0.9999 -0.0000
vn -0.3553 0.9348 -0.0000
vn -0.6854 0.7281 -0.0000
vn -0.9189 0.3944 -0.0000
vn 0.9119 0.4104 -0.0000
vn 0.6860 0.7276 -0.0000
vn 0.3716 0.9284 -0.0000
vn -0.2533 0.0504 -0.9661
vn 0.0980 -0.0000 -0.9952
vn 0.2903 -0.0000 -0.9569
vn 0.4714 -0.0000 -0.8819
vn 0.6344 -0.0000 -0.7730
vn 0.7730 -0.0000 -0.6344
vn 0.8819 -0.0000 -0.4714
vn 0.9569 -0.0000 -0.2903
vn 0.9952 -0.0000 -0.0980
vn 0.9952 -0.0000 0.0980
vn 0.9569 -0.0000 0.2903
vn 0.8819 -0.0000 0.4714
vn 0.7730 -0.0000 0.6344
vn 0.6344 -0.0000 0.7730
vn 0.4714 -0.0000 0.8819
vn 0.2903 -0.0000 0.9569
vn 0.0980 -0.0000 0.9952
vn -0.0980 -0.0000 0.9952
vn -0.2903 -0.0000 0.9569
vn -0.4714 -0.0000 0.8819
vn -0.6344 -0.0000 0.7730
vn -0.7730 -0.0000 0.6344
vn -0.8819 -0.0000 0.4714
vn -0.9569 -0.0000 0.2903
vn -0.9952 -0.0000 0.0980
vn -0.9952 -0.0000 -0.0980
vn -0.9569 -0.0000 -0.2903
vn -0.8819 -0.0000 -0.4714
vn -0.7730 -0.0000 -0.6344
vn -0.6344 -0.0000 -0.7730
vn -0.4714 -0.0000 -0.8819
vn -0.0000 1.0000 -0.0000
vn -0.2903 -0.0000 -0.9569
vn -0.0980 -0.0000 -0.9952
vn -0.0000 -1.0000 -0.0000
vn 0.3452 -0.9385 -0.0000
vn -0.0070 -0.0349 0.9994
vn 0.0400 0.9131 0.4058
vn 0.1184 0.9131 0.3902
vn 0.1922 0.9131 0.3596
vn 0.2587 0.9131 0.3152
vn 0.3152 0.9131 0.2587
vn 0.3596 0.9131 0.1922
vn 0.3902 0.9131 0.1184
vn 0.4058 0.9131 0.0400
vn 0.4058 0.9131 -0.0400
vn 0.3902 0.9131 -0.1184
vn 0.3596 0.9131 -0.1922
vn 0.3152 0.9131 -0.2587
vn 0.2587 0.9131 -0.3152
vn 0.1922 0.9131 -0.3596
vn 0.1184 0.9131 -0.3902
vn 0.0400 0.9131 -0.4058
vn -0.0400 0.9131 -0.4058
vn -0.1184 0.9131 -0.3902
vn -0.1922 0.9131 -0.3596
vn -0.2587 0.9131 -0.3152
vn -0.3152 0.9131 -0.2587
vn -0.3596 0.9131 -0.1922
vn -0.3902 0.9131 -0.1184
vn -0.4058 0.9131 -0.0400
vn -0.4058 0.9131 0.0400
vn -0.3902 0.9131 0.1184
vn -0.3596 0.9131 0.1922
vn -0.3152 0.9131 0.2587
vn -0.2587 0.9131 0.3152
vn -0.1922 0.9131 0.3596
vn -0.1184 0.9131 0.3902
vn -0.0400 0.9131 0.4058
vn 0.0382 0.9210 0.3878
vn 0.1131 0.9210 0.3729
vn 0.1837 0.9210 0.3436
vn 0.2472 0.9210 0.3012
vn 0.3012 0.9210 0.2472
vn 0.3436 0.9210 0.1837
vn 0.1951 0.9808 -0.0000
vn 0.3878 0.9210 0.0382
vn 0.3878 0.9210 -0.0382
vn 0.3729 0.9210 -0.1131
vn 0.3436 0.9210 -0.1837
vn 0.3012 0.9210 -0.2472
vn 0.2472 0.9210 -0.3012
vn 0.1837 0.9210 -0.3436
vn 0.1131 0.9210 -0.3729
vn 0.0382 0.9210 -0.3878
vn -0.0382 0.9210 -0.3878
vn -0.1837 0.9210 -0.3436
vn -0.2472 0.9210 -0.3012
vn -0.3012 0.9210 -0.2472
vn -0.3436 0.9210 -0.1837
vn -0.3729 0.9210 -0.1131
vn -0.3878 0.9210 -0.0382
vn -0.3878 0.9210 0.0382
vn -0.3729 0.9210 0.1131
vn -0.3436 0.9210 0.1837
vn -0.3012 0.9210 0.2472
vn -0.2472 0.9210 0.3012
vn -0.1837 0.9210 0.3436
vn -0.1131 0.9210 0.3729
vn -0.0382 0.9210 0.3878
vn 0.0336 0.9393 0.3415
vn 0.0996 0.9393 0.3284
vn 0.1618 0.9393 0.3027
vn 0.2177 0.9393 0.2653
vn 0.2653 0.9393 0.2177
vn 0.3027 0.9393 0.1618
vn 0.3415 0.9393 -0.0336
vn 0.3284 0.9393 -0.0996
vn 0.3027 0.9393 -0.1618
vn 0.2653 0.9393 -0.2177
vn 0.2177 0.9393 -0.2653
vn 0.1618 0.9393 -0.3027
vn 0.0996 0.9393 -0.3284
vn 0.0336 0.9393 -0.3415
vn -0.0336 0.9393 -0.3415
vn -0.0996 0.9393 -0.3284
vn -0.1618 0.9393 -0.3027
vn -0.2177 0.9393 -0.2653
vn -0.2653 0.9393 -0.2177
vn -0.3027 0.9393 -0.1618
vn -0.3284 0.9393 -0.0996
vn -0.3415 0.9393 -0.0336
vn -0.3415 0.9393 0.0336
vn -0.3284 0.9393 0.0996
vn -0.3027 0.9393 0.1618
vn -0.2653 0.9393 0.2177
vn -0.2177 0.9393 0.2653
vn -0.1618 0.9393 0.3027
vn -0.0996 0.9393 0.3284
vn -0.0336 0.9393 0.3415
vn 0.9807 -0.1951 0.0128
vn 0.9805 -0.1950 0.0219
vn -0.6854 0.7282 -0.0000
vn -0.9808 0.1951 -0.0073
vn 0.2533 -0.0504 0.9661
vn 0.0871 -0.0173 -0.9961
vn 0.9808 -0.1951 -0.0000
vn -0.0000 1.0000 0.0001
vn 0.0001 1.0000 -0.0000
vn -0.0000 1.0000 0.0002
vn -0.0000 1.0000 -0.0001
vn 0.0246 0.9997 -0.0000
vn -0.0000 1.0000 -0.0002
vn -0.1684 -0.8468 0.5046
vn -0.1671 -0.8400 0.5162
vn -0.3805 -0.8373 -0.3925
vn -0.4425 -0.8859 -0.1396
vn -0.1951 -0.9808 -0.0000
vn -0.0021 -0.0104 -0.9999
vn 0.0712 0.3580 -0.9310
vn -0.6440 0.7651 -0.0000
vn -0.9375 -0.2835 -0.2020
vn 0.0795 0.9954 -0.0543
vn -0.9255 0.1841 -0.3309
vn -0.8885 0.1767 -0.4236
vn 0.2379 0.9712 0.0137
vn 0.3486 0.9372 -0.0135
vn 0.1663 0.9860 -0.0137
vn -0.0880 0.9906 0.1046
vn -0.4452 0.7152 -0.5388
vn -0.3255 0.5229 0.7878
vn -0.1152 0.7031 -0.7017
vn -0.0000 -1.0000 -0.0001
vn -0.0000 -1.0000 -0.0002
vn 0.3729 0.9210 0.1131
vn 0.1794 0.9021 -0.3924
vn -0.1131 0.9210 -0.3729
vn 0.1697 0.8529 0.4937
vn 0.3284 0.9393 0.0996
vn 0.3415 0.9393 0.0336
vn -0.5378 0.8431 -0.0000
vn -0.9807 0.1951 -0.0128
vn 0.9808 -0.1951 0.0073
vn -0.9805 0.1950 -0.0219
vt 0.919706 0.419706
vt 0.971731 0.341844
vt 0.158156 0.471731
vt 0.080294 0.419706
vt 0.658156 0.471731
vt 0.580294 0.419706
vt 0.010000 0.250000
vt 0.028269 0.158156
vt 0.471731 0.341844
vt 0.490000 0.250000
vt 0.841844 0.471731
vt 0.528269 0.341844
vt 0.000000 0.000000
vt 0.250000 0.490000
vt 0.341844 0.471731
vt 0.419706 0.419706
vt 0.510000 0.250000
vt 0.528269 0.158156
vt 0.028269 0.341844
vt 0.750000 0.490000
vt 0.990000 0.250000
vt 0.062500 1.000000
vt 0.000000 0.500000
vt 0.062500 0.500000
vt 0.125000 1.000000
vt 0.125000 0.500000
vt 0.187500 1.000000
vt 0.187500 0.500000
vt 0.250000 1.000000
vt 0.250000 0.500000
vt 0.312500 1.000000
vt 0.312500 0.500000
vt 0.812500 1.000000
vt 0.750000 0.500000
vt 0.812500 0.500000
vt 0.875000 1.000000
vt 0.875000 0.500000
vt 0.937500 1.000000
vt 0.937500 0.500000
vt 1.000000 1.000000
vt 1.000000 0.500000
vt 0.968750 0.500000
vt 0.968750 1.000000
vt 0.906250 0.500000
vt 0.906250 1.000000
vt 0.843750 0.500000
vt 0.843750 1.000000
vt 0.781250 0.500000
vt 0.781250 1.000000
vt 0.718750 1.000000
vt 0.718750 0.500000
vt 0.687500 1.000000
vt 0.687500 0.500000
vt 0.656250 1.000000
vt 0.656250 0.500000
vt 0.625000 1.000000
vt 0.625000 0.500000
vt 0.593750 1.000000
vt 0.593750 0.500000
vt 0.562500 1.000000
vt 0.562500 0.500000
vt 0.531250 1.000000
vt 0.531250 0.500000
vt 0.500000 1.000000
vt 0.500000 0.500000
vt 0.468750 1.000000
vt 0.468750 0.500000
vt 0.437500 1.000000
vt 0.437500 0.500000
vt 0.406250 1.000000
vt 0.406250 0.500000
vt 0.375000 1.000000
vt 0.375000 0.500000
vt 0.343750 1.000000
vt 0.343750 0.500000
vt 0.281250 1.000000
vt 0.281250 0.500000
vt 0.218750 0.500000
vt 0.218750 1.000000
vt 0.156250 0.500000
vt 0.156250 1.000000
vt 0.093750 0.500000
vt 0.093750 1.000000
vt 0.295897 0.480741
vt 0.340031 0.467353
vt 0.158156 0.028269
vt 0.204103 0.019259
vt 0.159969 0.032647
vt 0.031250 0.500000
vt 0.031250 1.000000
vt 0.985388 0.296822
vt 0.796822 0.014612
vt 0.883039 0.194894
vt 0.514612 0.203178
vt 0.648177 0.351823
vt 0.630268 0.330002
vt 0.968750 0.555072
vt 0.968750 0.647677
vt 0.976467 0.647677
vt 1.000000 0.647677
vt 0.993619 0.555072
vt 0.987831 0.647677
vt 1.000000 0.790660
vt 0.968750 0.789344
vt 0.968750 0.790659
vt 0.937500 0.555072
vt 0.937500 0.647677
vt 0.945217 0.647677
vt 0.962369 0.555072
vt 0.956581 0.647677
vt 0.937500 0.789344
vt 0.937500 0.790660
vt 0.906250 0.555072
vt 0.906250 0.647677
vt 0.913967 0.647677
vt 0.931119 0.555072
vt 0.925331 0.647677
vt 0.906250 0.789344
vt 0.906250 0.790660
vt 0.875000 0.555072
vt 0.875000 0.647677
vt 0.882717 0.647677
vt 0.899869 0.555072
vt 0.894081 0.647677
vt 0.875000 0.789344
vt 0.875000 0.790660
vt 0.843750 0.555072
vt 0.843750 0.789344
vt 0.812500 0.555072
vt 0.843750 0.647677
vt 0.843750 0.790660
vt 0.812500 0.789344
vt 0.812500 0.790660
vt 0.781250 0.555072
vt 0.812500 0.647677
vt 0.781250 0.789344
vt 0.750000 0.555072
vt 0.781250 0.647677
vt 0.781250 0.790660
vt 0.750000 0.790660
vt 0.718750 0.647677
vt 0.750000 0.647677
vt 0.718750 0.789344
vt 0.718750 0.790659
vt 0.718750 0.555072
vt 0.687500 0.647677
vt 0.687500 0.790660
vt 0.687500 0.555072
vt 0.656250 0.647677
vt 0.656250 0.790660
vt 0.687500 0.789344
vt 0.656250 0.789344
vt 0.656250 0.555072
vt 0.625000 0.647677
vt 0.625000 0.790660
vt 0.625000 0.555072
vt 0.593750 0.647677
vt 0.625000 0.789344
vt 0.593750 0.790660
vt 0.593750 0.555072
vt 0.562500 0.647677
vt 0.562500 0.790659
vt 0.593750 0.789344
vt 0.562500 0.789344
vt 0.562500 0.555072
vt 0.531250 0.647677
vt 0.531250 0.790660
vt 0.531250 0.555072
vt 0.500000 0.647677
vt 0.500000 0.789344
vt 0.500000 0.790660
vt 0.500000 0.555072
vt 0.468750 0.647677
vt 0.468750 0.789344
vt 0.468750 0.790659
vt 0.468750 0.555072
vt 0.437500 0.647677
vt 0.437500 0.790660
vt 0.437500 0.555072
vt 0.406250 0.647677
vt 0.406250 0.790660
vt 0.437500 0.789344
vt 0.406250 0.789344
vt 0.406250 0.555072
vt 0.375000 0.647677
vt 0.375000 0.790660
vt 0.351467 0.647677
vt 0.343750 0.555072
vt 0.343750 0.647677
vt 0.368619 0.555072
vt 0.362831 0.647677
vt 0.375000 0.789344
vt 0.343750 0.790660
vt 0.320217 0.647677
vt 0.312500 0.555072
vt 0.312500 0.647677
vt 0.337369 0.555072
vt 0.331581 0.647677
vt 0.343750 0.789344
vt 0.312500 0.790659
vt 0.288967 0.647677
vt 0.281250 0.555072
vt 0.281250 0.647677
vt 0.306119 0.555072
vt 0.300331 0.647677
vt 0.312500 0.789344
vt 0.281250 0.790660
vt 0.250000 0.555072
vt 0.250000 0.647677
vt 0.257717 0.647677
vt 0.274869 0.555072
vt 0.269081 0.647677
vt 0.281250 0.789344
vt 0.250000 0.790660
vt 0.281250 0.790660
vt 0.218750 0.555072
vt 0.218750 0.647677
vt 0.226467 0.647677
vt 0.243619 0.555072
vt 0.237831 0.647677
vt 0.250000 0.789344
vt 0.218750 0.790659
vt 0.187500 0.555072
vt 0.187500 0.647677
vt 0.195217 0.647677
vt 0.212369 0.555072
vt 0.206581 0.647677
vt 0.187500 0.789344
vt 0.187500 0.790660
vt 0.156250 0.555072
vt 0.156250 0.647677
vt 0.163967 0.647677
vt 0.181119 0.555072
vt 0.175331 0.647677
vt 0.156250 0.789344
vt 0.156250 0.790660
vt 0.125000 0.555072
vt 0.125000 0.647677
vt 0.132717 0.647677
vt 0.149869 0.555072
vt 0.144081 0.647677
vt 0.125000 0.789344
vt 0.125000 0.790660
vt 0.101467 0.647677
vt 0.093750 0.555072
vt 0.093750 0.647677
vt 0.118619 0.555072
vt 0.112831 0.647677
vt 0.093750 0.789344
vt 0.093750 0.790660
vt 0.070217 0.647677
vt 0.062500 0.555072
vt 0.062500 0.647677
vt 0.087369 0.555072
vt 0.081581 0.647677
vt 0.062500 0.789344
vt 0.062500 0.790660
vt 0.038967 0.647677
vt 0.031250 0.555072
vt 0.031250 0.647677
vt 0.056119 0.555072
vt 0.050331 0.647677
vt 0.031250 0.789344
vt 0.031250 0.790660
vt 0.000000 0.555072
vt 0.000000 0.647677
vt 0.007717 0.647677
vt 0.024869 0.555072
vt 0.019081 0.647677
vt 0.000000 0.789344
vt 0.031250 0.790660
vt 0.257708 0.409241
vt 0.281214 0.406926
vt 0.299542 0.401366
vt 0.338891 0.383035
vt 0.318060 0.394169
vt 0.383337 0.449553
vt 0.363137 0.363137
vt 0.353696 0.370885
vt 0.383035 0.338891
vt 0.368051 0.357150
vt 0.397821 0.311229
vt 0.386686 0.332060
vt 0.449553 0.383337
vt 0.485388 0.296822
vt 0.403380 0.292902
vt 0.407685 0.273506
vt 0.410000 0.250000
vt 0.485388 0.203178
vt 0.408123 0.230940
vt 0.471731 0.158156
vt 0.401366 0.200458
vt 0.406926 0.218786
vt 0.383035 0.161109
vt 0.388793 0.171880
vt 0.378121 0.155121
vt 0.449553 0.116663
vt 0.363137 0.136863
vt 0.419706 0.080294
vt 0.338891 0.116965
vt 0.311229 0.102179
vt 0.383337 0.050447
vt 0.341844 0.028269
vt 0.281214 0.093074
vt 0.296822 0.014612
vt 0.250000 0.090000
vt 0.203178 0.014612
vt 0.250000 0.010000
vt 0.218786 0.093074
vt 0.188771 0.102179
vt 0.116663 0.050447
vt 0.161109 0.116965
vt 0.080294 0.080294
vt 0.136863 0.136863
vt 0.050447 0.116663
vt 0.116965 0.161109
vt 0.014612 0.203178
vt 0.102179 0.188771
vt 0.093074 0.218786
vt 0.093074 0.281214
vt 0.090000 0.250000
vt 0.014612 0.296822
vt 0.102179 0.311229
vt 0.116965 0.338891
vt 0.050447 0.383337
vt 0.136863 0.363137
vt 0.142850 0.368051
vt 0.161109 0.383035
vt 0.188771 0.397821
vt 0.167940 0.386686
vt 0.116663 0.449553
vt 0.579997 0.216184
vt 0.576667 0.250000
vt 0.920003 0.283816
vt 0.923333 0.250000
vt 0.196183 0.400069
vt 0.218786 0.406926
vt 0.237845 0.408803
vt 0.750000 1.000000
vt 0.471538 0.250000
vt 0.028462 0.250000
vt 0.250000 0.401579
vt 0.296822 0.485388
vt 0.279572 0.398666
vt 0.308007 0.390041
vt 0.334213 0.376033
vt 0.357182 0.357182
vt 0.376033 0.334213
vt 0.390041 0.308007
vt 0.398666 0.279572
vt 0.401579 0.250000
vt 0.398666 0.220428
vt 0.390041 0.191993
vt 0.376033 0.165787
vt 0.357182 0.142818
vt 0.334213 0.123967
vt 0.308007 0.109959
vt 0.279572 0.101334
vt 0.250000 0.098421
vt 0.220428 0.101334
vt 0.191993 0.109959
vt 0.165787 0.123967
vt 0.142817 0.142817
vt 0.123967 0.165787
vt 0.109959 0.191993
vt 0.101334 0.220428
vt 0.101334 0.279572
vt 0.098421 0.250000
vt 0.109959 0.308007
vt 0.123967 0.334213
vt 0.142817 0.357183
vt 0.165787 0.376033
vt 0.191993 0.390041
vt 0.894417 0.309820
vt 0.903312 0.280496
vt 0.780496 0.096688
vt 0.809820 0.105583
vt 0.203178 0.485388
vt 0.220428 0.398666
vt 0.250000 0.385000
vt 0.291725 0.459765
vt 0.276337 0.382406
vt 0.331846 0.447594
vt 0.301662 0.374724
vt 0.368822 0.427830
vt 0.325002 0.362248
vt 0.401232 0.401232
vt 0.345459 0.345459
vt 0.427830 0.368822
vt 0.362248 0.325002
vt 0.447594 0.331846
vt 0.374724 0.301662
vt 0.382406 0.276337
vt 0.459765 0.291725
vt 0.463874 0.250000
vt 0.382406 0.223663
vt 0.385000 0.250000
vt 0.459765 0.208275
vt 0.374724 0.198338
vt 0.447594 0.168154
vt 0.362248 0.174998
vt 0.427830 0.131178
vt 0.345459 0.154541
vt 0.401232 0.098768
vt 0.325002 0.137752
vt 0.368822 0.072170
vt 0.301662 0.125276
vt 0.331846 0.052406
vt 0.276337 0.117594
vt 0.291725 0.040235
vt 0.250000 0.115000
vt 0.208275 0.040235
vt 0.223663 0.117594
vt 0.168154 0.052406
vt 0.131178 0.072170
vt 0.198338 0.125276
vt 0.098768 0.098768
vt 0.174998 0.137752
vt 0.072170 0.131178
vt 0.154541 0.154541
vt 0.052406 0.168154
vt 0.137752 0.174998
vt 0.052406 0.168154
vt 0.117594 0.223663
vt 0.125276 0.198338
vt 0.036126 0.250000
vt 0.040235 0.208275
vt 0.117594 0.276337
vt 0.115000 0.250000
vt 0.040235 0.291725
vt 0.125276 0.301662
vt 0.052406 0.331846
vt 0.137752 0.325002
vt 0.072170 0.368822
vt 0.154541 0.345459
vt 0.098768 0.401232
vt 0.174998 0.362248
vt 0.131178 0.427830
vt 0.198338 0.374724
vt 0.168154 0.447594
vt 0.223663 0.382406
vt 0.208275 0.459765
vt 0.000000 1.000000
vt 0.480741 0.204103
vt 0.467353 0.159969
vt 0.032647 0.340031
vt 0.032647 0.340031
vt 0.054387 0.380704
vt 0.485262 0.250000
vt 0.083645 0.416355
vt 0.480741 0.295897
vt 0.119296 0.445613
vt 0.467354 0.340031
vt 0.445613 0.380704
vt 0.159969 0.467353
vt 0.204103 0.480741
vt 0.416355 0.416355
vt 0.250000 0.485262
vt 0.380704 0.445613
vt 0.019259 0.295897
vt 0.467353 0.159969
vt 0.445613 0.119296
vt 0.014738 0.250000
vt 0.416355 0.083645
vt 0.019259 0.204103
vt 0.380704 0.054387
vt 0.032647 0.159969
vt 0.054387 0.119296
vt 0.340031 0.032647
vt 0.295897 0.019259
vt 0.083645 0.083645
vt 0.250000 0.014738
vt 0.119296 0.054387
vt 0.727643 0.391798
vt 0.721907 0.391233
vt 0.703178 0.485388
vt 0.796822 0.485388
vt 0.883337 0.449553
vt 0.949553 0.383337
vt 0.985388 0.203178
vt 0.971731 0.158156
vt 0.949553 0.116663
vt 0.919706 0.080294
vt 0.883337 0.050447
vt 0.841844 0.028269
vt 0.750000 0.010000
vt 0.703178 0.014612
vt 0.658156 0.028269
vt 0.616663 0.050447
vt 0.580294 0.080294
vt 0.550447 0.116663
vt 0.608767 0.221907
vt 0.615288 0.200409
vt 0.616961 0.194894
vt 0.750000 0.394000
vt 0.755736 0.393435
vt 0.627551 0.175081
vt 0.630268 0.169998
vt 0.778093 0.391233
vt 0.783609 0.389560
vt 0.644520 0.152632
vt 0.648177 0.148177
vt 0.805107 0.383039
vt 0.810190 0.380322
vt 0.669998 0.130268
vt 0.851824 0.351824
vt 0.834458 0.366075
vt 0.830002 0.369732
vt 0.694894 0.116961
vt 0.721907 0.108767
vt 0.869732 0.330002
vt 0.750000 0.106000
vt 0.778093 0.108767
vt 0.883039 0.305107
vt 0.891233 0.278093
vt 0.805106 0.116961
vt 0.830002 0.130268
vt 0.894000 0.250000
vt 0.891233 0.221907
vt 0.851824 0.148177
vt 0.869732 0.169998
vt 0.608202 0.227643
vt 0.514612 0.296822
vt 0.550447 0.383337
vt 0.616663 0.449553
vt 0.700410 0.384712
vt 0.694894 0.383039
vt 0.675081 0.372449
vt 0.669998 0.369732
vt 0.606000 0.250000
vt 0.606565 0.255736
vt 0.652632 0.355480
vt 0.608767 0.278093
vt 0.610440 0.283609
vt 0.633925 0.334458
vt 0.619678 0.310190
vt 0.616961 0.305106
vt 1.000000 0.555072
vt 1.000000 0.789344
vt 0.750000 0.789344
vt 0.531250 0.789344
vt 0.375000 0.555072
vt 0.218750 0.789344
vt 0.000000 0.790660
vt 0.250000 0.410000
vt 0.269060 0.408123
vt 0.311229 0.397821
vt 0.288627 0.404677
vt 0.328120 0.388793
vt 0.344879 0.378121
vt 0.375287 0.348333
vt 0.392063 0.322001
vt 0.400069 0.303817
vt 0.406926 0.281214
vt 0.408803 0.262155
vt 0.409241 0.242292
vt 0.397821 0.188771
vt 0.404677 0.211374
vt 0.394169 0.181940
vt 0.370885 0.146304
vt 0.151667 0.375287
vt 0.177999 0.392063
vt 0.910139 0.316332
vt 0.894121 0.346299
vt 0.872565 0.372565
vt 0.846299 0.394121
vt 0.816332 0.410139
vt 0.783816 0.420003
vt 0.750000 0.423333
vt 0.716184 0.420003
vt 0.683668 0.410139
vt 0.653701 0.394121
vt 0.627435 0.372565
vt 0.605878 0.346299
vt 0.589861 0.316332
vt 0.579997 0.283816
vt 0.589861 0.183668
vt 0.658156 0.028269
vt 0.703178 0.014612
vt 0.750000 0.010000
vt 0.796822 0.014612
vt 0.841844 0.028269
vt 0.605879 0.153701
vt 0.627435 0.127435
vt 0.653701 0.105879
vt 0.683668 0.089861
vt 0.716184 0.079997
vt 0.750000 0.076667
vt 0.783816 0.079997
vt 0.816332 0.089861
vt 0.846299 0.105879
vt 0.872565 0.127435
vt 0.894121 0.153701
vt 0.910139 0.183668
vt 0.920003 0.216184
vt 0.207098 0.403380
vt 0.226494 0.407685
vt 0.467282 0.293220
vt 0.454675 0.334779
vt 0.454675 0.165221
vt 0.467282 0.206780
vt 0.434203 0.126920
vt 0.434202 0.373080
vt 0.406651 0.406651
vt 0.406651 0.093349
vt 0.373080 0.434202
vt 0.373080 0.065798
vt 0.334779 0.045325
vt 0.334779 0.454675
vt 0.293220 0.467282
vt 0.293220 0.032718
vt 0.250000 0.028462
vt 0.250000 0.471538
vt 0.206780 0.032718
vt 0.206780 0.467282
vt 0.165221 0.454675
vt 0.165221 0.045325
vt 0.126920 0.065798
vt 0.126920 0.434202
vt 0.093349 0.406651
vt 0.093349 0.093349
vt 0.065798 0.373080
vt 0.065798 0.126920
vt 0.045325 0.165221
vt 0.045325 0.334779
vt 0.032718 0.293220
vt 0.032718 0.206780
vt 0.796822 0.014612
vt 0.750000 0.093684
vt 0.719504 0.096688
vt 0.690181 0.105583
vt 0.663156 0.120028
vt 0.639468 0.139468
vt 0.620028 0.163156
vt 0.605583 0.190181
vt 0.596688 0.219504
vt 0.593684 0.250000
vt 0.596688 0.280496
vt 0.605583 0.309819
vt 0.620028 0.336844
vt 0.639468 0.360532
vt 0.663155 0.379972
vt 0.690181 0.394417
vt 0.719504 0.403312
vt 0.750000 0.406316
vt 0.780496 0.403312
vt 0.809820 0.394417
vt 0.836844 0.379972
vt 0.860532 0.360532
vt 0.879972 0.336844
vt 0.903312 0.280496
vt 0.906316 0.250000
vt 0.903313 0.219504
vt 0.894417 0.190181
vt 0.879972 0.163156
vt 0.860532 0.139468
vt 0.836844 0.120028
vt 0.250000 0.463874
vt 0.250000 0.036126
s 0
usemtl Material
f 5/1/1 16/2/1 7/2/1
f 32/3/2 38/4/2 30/4/2
f 31/5/1 37/6/1 39/5/1
f 26/7/1 12/8/1 24/8/1
f 15/9/3 47/10/3 49/9/3
f 21/11/1 52/1/1 18/1/1
f 37/6/1 42/12/1 57/6/1
f 14/13/4 47/13/4 13/13/4
f 40/3/2 56/14/2 60/3/2
f 20/15/2 51/16/2 53/15/2
f 12/13/5 46/13/5 11/13/5
f 4/15/2 17/16/2 20/15/2
f 9/13/4 13/13/4 10/13/4
f 25/17/2 11/18/2 33/17/2
f 30/4/2 10/10/2 6/16/2
f 3/11/1 18/1/1 5/1/1
f 30/4/2 36/19/2 28/19/2
f 7/2/1 27/12/1 31/5/1
f 1/20/1 21/11/1 3/11/1
f 39/5/1 55/20/1 22/20/1
f 33/17/6 46/18/6 44/17/6
f 27/12/1 33/17/1 35/12/1
f 6/16/2 15/9/2 17/16/2
f 28/19/2 34/7/2 26/7/2
f 2/14/2 20/15/2 19/14/2
f 31/5/1 22/20/1 1/20/1
f 2/14/2 40/3/2 32/3/2
f 7/2/1 14/21/1 9/21/1
f 29/6/1 35/12/1 37/6/1
f 24/13/5 11/13/5 23/13/5
f 8/9/2 13/10/2 15/9/2
f 60/22/7 55/23/7 59/24/7
f 58/25/8 59/24/8 57/26/8
f 41/27/9 57/26/9 42/28/9
f 43/29/10 42/28/10 44/30/10
f 45/31/5 44/30/5 46/32/5
f 49/33/4 48/34/4 50/35/4
f 51/36/11 50/35/11 52/37/11
f 53/38/12 52/37/12 54/39/12
f 56/40/13 54/39/13 55/41/13
f 38/4/2 41/19/2 36/19/2
f 36/19/2 43/7/2 34/7/2
f 16/2/2 48/21/2 14/21/2
f 35/12/1 44/17/1 42/12/1
f 39/5/1 57/6/1 59/5/1
f 19/14/2 53/15/2 56/14/2
f 17/16/2 49/9/2 51/16/2
f 40/3/2 58/4/2 38/4/2
f 34/7/14 45/8/14 12/8/14
f 22/20/1 54/11/1 21/11/1
f 18/1/1 50/2/1 16/2/1
f 5/1/1 18/1/1 16/2/1
f 32/3/2 40/3/2 38/4/2
f 31/5/1 29/6/1 37/6/1
f 26/7/1 34/7/1 12/8/1
f 15/9/2 13/10/2 47/10/2
f 21/11/1 54/11/1 52/1/1
f 37/6/1 35/12/1 42/12/1
f 14/13/4 48/13/4 47/13/4
f 40/3/2 19/14/2 56/14/2
f 20/15/2 17/16/2 51/16/2
f 12/13/5 45/13/5 46/13/5
f 4/15/2 6/16/2 17/16/2
f 9/13/4 14/13/4 13/13/4
f 25/17/2 23/18/2 11/18/2
f 6/16/2 4/15/2 2/14/2
f 2/14/2 32/3/2 30/4/2
f 30/4/2 28/19/2 26/7/2
f 26/7/2 24/8/2 10/10/2
f 10/10/2 8/9/2 6/16/2
f 6/16/2 2/14/2 30/4/2
f 30/4/2 26/7/2 10/10/2
f 3/11/1 21/11/1 18/1/1
f 30/4/2 38/4/2 36/19/2
f 31/5/1 1/20/1 3/11/1
f 3/11/1 5/1/1 7/2/1
f 7/2/1 9/21/1 23/18/1
f 23/18/1 25/17/1 27/12/1
f 27/12/1 29/6/1 31/5/1
f 31/5/1 3/11/1 7/2/1
f 7/2/1 23/18/1 27/12/1
f 1/20/1 22/20/1 21/11/1
f 39/5/1 59/5/1 55/20/1
f 33/17/148 11/18/148 46/18/148
f 27/12/1 25/17/1 33/17/1
f 6/16/2 8/9/2 15/9/2
f 28/19/2 36/19/2 34/7/2
f 2/14/2 4/15/2 20/15/2
f 31/5/1 39/5/1 22/20/1
f 2/14/2 19/14/2 40/3/2
f 7/2/1 16/2/1 14/21/1
f 29/6/1 27/12/1 35/12/1
f 24/13/5 12/13/5 11/13/5
f 8/9/2 10/10/2 13/10/2
f 60/22/7 56/443/7 55/23/7
f 58/25/8 60/22/8 59/24/8
f 41/27/9 58/25/9 57/26/9
f 43/29/10 41/27/10 42/28/10
f 45/31/5 43/29/5 44/30/5
f 49/33/4 47/339/4 48/34/4
f 51/36/11 49/33/11 50/35/11
f 53/38/12 51/36/12 52/37/12
f 56/40/13 53/38/13 54/39/13
f 38/4/2 58/4/2 41/19/2
f 36/19/2 41/19/2 43/7/2
f 16/2/149 50/2/149 48/21/149
f 35/12/1 33/17/1 44/17/1
f 39/5/1 37/6/1 57/6/1
f 19/14/2 20/15/2 53/15/2
f 17/16/2 15/9/2 49/9/2
f 40/3/2 60/3/2 58/4/2
f 34/7/150 43/7/150 45/8/150
f 22/20/1 55/20/1 54/11/1
f 18/1/1 52/1/1 50/2/1
usemtl マテリアル.002
f 68/40/15 73/42/15 62/41/15
f 79/43/16 85/39/16 73/42/16
f 91/38/17 97/44/17 85/39/17
f 103/45/18 110/37/18 97/44/18
f 115/36/19 121/46/19 110/37/19
f 126/47/20 129/35/20 121/46/20
f 132/33/21 136/48/21 129/35/21
f 138/49/22 142/34/22 136/48/22
f 142/34/23 151/50/23 148/51/23
f 148/51/24 157/52/24 153/53/24
f 153/53/25 162/54/25 159/55/25
f 159/55/26 168/56/26 165/57/26
f 165/57/27 174/58/27 171/59/27
f 171/59/28 180/60/28 177/61/28
f 177/61/29 186/62/29 185/63/29
f 185/63/30 190/64/30 189/65/30
f 189/65/31 192/66/31 191/67/31
f 191/67/32 194/68/32 193/69/32
f 193/69/33 196/70/33 195/71/33
f 195/71/34 198/72/34 197/73/34
f 197/73/35 200/74/35 199/75/35
f 199/75/36 202/31/36 201/32/36
f 201/32/37 204/76/37 203/77/37
f 203/77/38 206/29/38 205/30/38
f 206/29/39 207/78/39 205/30/39
f 208/79/40 209/28/40 207/78/40
f 210/27/41 211/80/41 209/28/41
f 212/81/42 213/26/42 211/80/42
f 214/25/43 215/82/43 213/26/43
f 216/83/44 217/24/44 215/82/44
f 91/15/45 447/84/45 446/85/45
f 194/86/45 472/87/45 458/88/45
f 218/22/46 219/89/46 217/24/46
f 220/90/47 62/23/47 219/89/47
f 136/91/48 185/92/48 233/93/48
f 203/94/48 252/95/48 242/96/48
f 222/97/31 269/98/31 270/99/31
f 271/100/31 256/101/31 272/102/31
f 401/103/31 333/104/31 399/105/31
f 256/101/31 270/99/31 272/102/31
f 227/106/32 273/107/32 274/108/32
f 269/98/32 257/109/32 275/110/32
f 399/105/32 335/111/32 402/112/32
f 257/109/32 274/108/32 275/110/32
f 225/113/33 276/114/33 277/115/33
f 273/107/33 259/116/33 278/117/33
f 402/112/33 336/118/33 403/119/33
f 259/116/33 277/115/33 278/117/33
f 236/120/34 279/121/34 280/122/34
f 276/114/34 260/123/34 281/124/34
f 403/119/34 337/125/34 404/126/34
f 260/123/34 280/122/34 281/124/34
f 230/127/35 279/121/35 236/120/35
f 338/128/35 404/126/35 337/125/35
f 235/129/36 282/130/36 230/127/36
f 405/131/36 339/132/36 406/133/36
f 232/134/37 283/135/37 235/129/37
f 340/136/37 406/133/37 339/132/37
f 231/137/38 284/138/38 232/134/38
f 408/139/38 340/136/38 409/140/38
f 231/137/39 286/141/39 285/142/39
f 342/143/39 411/144/39 409/140/39
f 234/145/40 287/146/40 286/141/40
f 342/143/40 412/147/40 411/144/40
f 233/148/41 288/149/41 287/146/41
f 413/150/41 343/151/41 344/152/41
f 228/153/42 289/154/42 288/149/42
f 344/152/42 414/155/42 413/150/42
f 229/156/43 290/157/43 289/154/43
f 345/158/43 415/159/43 414/155/43
f 226/160/44 291/161/44 290/157/44
f 416/162/44 346/163/44 347/164/44
f 224/165/46 292/166/46 291/161/46
f 347/164/46 417/167/46 416/162/46
f 249/168/47 293/169/47 292/166/47
f 417/167/47 349/170/47 419/171/47
f 250/172/15 294/173/15 293/169/15
f 350/174/15 420/175/15 349/170/15
f 248/176/16 295/177/16 294/173/16
f 350/174/16 422/178/16 421/175/16
f 251/179/17 296/180/17 295/177/17
f 423/181/17 351/182/17 352/183/17
f 246/184/18 297/185/18 296/180/18
f 352/183/18 424/186/18 423/181/18
f 299/187/19 241/188/19 298/189/19
f 297/185/19 258/190/19 300/191/19
f 353/192/19 425/193/19 424/186/19
f 258/190/19 299/187/19 300/191/19
f 302/194/20 238/195/20 301/196/20
f 298/189/20 255/197/20 303/198/20
f 354/199/20 426/200/20 425/193/20
f 255/197/20 302/194/20 303/198/20
f 305/201/21 239/202/21 304/203/21
f 301/196/21 253/204/21 306/205/21
f 355/206/21 427/207/21 426/200/21
f 253/204/21 305/201/21 306/205/21
f 237/208/22 307/209/22 308/210/22
f 304/203/22 261/211/22 309/212/22
f 356/213/22 428/214/22 429/215/22
f 261/211/22 308/210/22 309/212/22
f 240/216/23 310/217/23 311/218/23
f 307/209/23 264/219/23 312/220/23
f 357/221/49 431/222/49 430/222/49
f 264/219/23 311/218/23 312/220/23
f 244/223/24 313/224/24 314/225/24
f 310/217/24 265/226/24 315/227/24
f 431/222/24 359/228/24 432/229/24
f 265/226/24 314/225/24 315/227/24
f 242/230/25 316/231/25 317/232/25
f 313/224/25 267/233/25 318/234/25
f 432/229/25 360/235/25 433/236/25
f 267/233/25 317/232/25 318/234/25
f 252/237/26 319/238/26 320/239/26
f 316/231/26 268/240/26 321/241/26
f 433/236/26 361/242/26 434/243/26
f 268/240/26 320/239/26 321/241/26
f 323/244/27 247/245/27 322/246/27
f 319/238/27 266/247/27 324/248/27
f 434/243/27 362/249/27 435/250/27
f 266/247/27 323/244/27 324/248/27
f 326/251/28 245/252/28 325/253/28
f 322/246/28 263/254/28 327/255/28
f 435/250/28 363/256/28 436/257/28
f 263/254/28 326/251/28 327/255/28
f 329/258/29 221/259/29 328/260/29
f 325/253/29 262/261/29 330/262/29
f 436/257/29 364/263/29 437/264/29
f 262/261/29 329/258/29 330/262/29
f 223/265/30 271/266/30 331/267/30
f 328/260/30 254/268/30 332/269/30
f 437/264/50 334/270/50 438/271/50
f 254/268/30 331/267/30 332/269/30
f 331/272/51 63/14/51 328/273/51
f 78/15/52 330/274/52 328/273/52
f 78/15/53 322/275/53 326/276/53
f 84/277/54 319/278/54 324/279/54
f 88/16/55 316/280/55 320/281/55
f 313/282/56 317/283/56 94/284/56
f 313/282/57 108/285/57 315/286/57
f 311/287/58 108/285/58 307/288/58
f 307/288/59 117/289/59 309/290/59
f 125/291/60 306/292/60 304/293/60
f 125/291/61 298/294/61 303/295/61
f 299/296/62 128/297/62 297/298/62
f 131/299/63 296/300/63 297/298/63
f 295/301/64 133/302/64 135/303/64
f 135/303/65 294/304/65 295/301/65
f 139/305/66 293/306/66 294/304/66
f 144/307/67 293/306/67 141/308/67
f 147/86/68 292/309/68 144/307/68
f 291/310/69 150/311/69 290/312/69
f 290/312/70 154/313/70 289/314/70
f 289/314/71 156/315/71 288/316/71
f 160/8/72 288/316/72 156/315/72
f 163/317/73 287/318/73 160/8/73
f 166/7/74 286/319/74 163/317/74
f 166/7/75 284/320/75 285/321/75
f 170/322/76 283/323/76 284/320/76
f 173/19/77 282/324/77 283/323/77
f 176/325/78 279/326/78 282/324/78
f 280/327/79 178/4/79 276/328/79
f 273/329/80 277/330/80 182/331/80
f 163/94/48 377/332/48 375/333/48
f 108/91/48 365/334/48 383/335/48
f 274/336/81 183/3/81 269/337/81
f 269/337/82 63/14/82 272/338/82
f 373/42/31 66/40/31 372/41/31
f 374/39/32 71/43/32 373/42/32
f 382/44/33 76/38/33 374/39/33
f 381/37/34 82/45/34 382/44/34
f 90/36/35 380/46/35 95/47/35
f 95/47/36 379/35/36 99/33/36
f 99/33/37 378/48/37 106/49/37
f 106/49/38 375/34/38 111/339/38
f 119/50/39 375/34/39 376/51/39
f 119/50/40 376/51/40 393/53/40
f 127/54/41 393/53/41 395/55/41
f 130/56/42 395/55/42 394/57/42
f 134/58/43 394/57/43 392/59/43
f 137/60/44 392/59/44 396/61/44
f 140/62/46 396/61/46 390/63/46
f 143/64/47 390/63/47 389/65/47
f 146/66/15 389/65/15 391/67/15
f 149/68/16 391/67/16 388/69/16
f 152/70/17 388/69/17 397/71/17
f 155/72/18 397/71/18 398/73/18
f 158/74/19 398/73/19 384/75/19
f 161/31/20 384/75/20 385/32/20
f 164/76/21 385/32/21 386/77/21
f 167/29/22 386/77/22 383/30/22
f 387/78/23 167/29/23 383/30/23
f 365/78/24 172/27/24 169/79/24
f 367/80/25 172/27/25 366/28/25
f 370/26/26 175/81/26 367/80/26
f 371/82/27 179/25/27 370/26/27
f 369/24/28 181/83/28 371/82/28
f 99/9/48 124/291/48 341/340/48
f 161/8/48 172/19/48 357/341/48
f 368/89/29 184/22/29 369/24/29
f 372/23/30 188/90/30 368/89/30
f 401/342/83 64/343/83 438/344/83
f 64/343/84 436/345/84 437/344/84
f 436/345/85 67/277/85 435/346/85
f 69/16/86 435/346/86 67/277/86
f 72/284/87 434/347/87 69/16/87
f 433/348/88 74/9/88 432/349/88
f 430/350/89 431/350/89 74/9/89
f 430/350/90 77/10/90 428/351/90
f 77/10/91 429/352/91 428/351/91
f 80/289/92 426/353/92 427/352/92
f 81/291/93 425/354/93 426/353/93
f 83/297/94 424/355/94 425/354/94
f 86/299/95 423/356/95 424/355/95
f 87/302/96 422/357/96 423/356/96
f 92/305/97 421/358/97 422/357/97
f 92/305/98 419/359/98 420/358/98
f 96/307/99 419/359/99 93/308/99
f 418/360/89 96/307/89 417/360/89
f 416/361/100 100/311/100 415/362/100
f 415/362/101 102/313/101 414/363/101
f 414/363/102 104/315/102 413/364/102
f 413/364/103 105/8/103 412/365/103
f 107/317/104 410/366/104 412/365/104
f 109/7/105 410/366/105 107/317/105
f 109/7/106 408/367/106 409/368/106
f 112/322/107 406/369/107 407/367/107
f 114/19/108 405/370/108 406/369/108
f 404/371/109 116/325/109 118/4/109
f 403/372/110 118/4/110 120/331/110
f 120/331/111 402/373/111 403/372/111
f 75/91/48 475/374/48 474/375/48
f 479/376/2 504/377/2 503/376/2
f 123/378/112 399/379/112 122/3/112
f 123/378/113 401/342/113 400/379/113
f 484/380/114 448/381/114 480/382/114
f 480/382/115 439/383/115 478/384/115
f 478/384/116 444/385/116 481/386/116
f 481/386/117 443/387/117 477/388/117
f 477/388/118 442/389/118 476/390/118
f 476/390/119 441/391/119 475/392/119
f 441/391/2 440/391/2 474/393/2
f 474/393/2 464/394/2 473/393/2
f 457/395/120 501/396/120 502/397/120
f 463/398/121 500/399/121 501/396/121
f 462/400/122 499/401/122 500/399/122
f 461/402/123 506/403/123 499/401/123
f 460/404/124 505/405/124 506/403/124
f 459/406/125 504/407/125 505/405/125
f 458/408/126 503/409/126 504/407/126
f 472/410/127 485/411/127 479/409/127
f 485/411/128 466/412/128 482/413/128
f 470/414/129 482/413/129 466/412/129
f 471/415/130 495/416/130 470/414/130
f 468/417/131 496/418/131 471/415/131
f 469/419/132 489/420/132 468/417/132
f 467/421/133 490/422/133 469/419/133
f 450/423/134 486/424/134 491/425/134
f 449/426/135 486/424/135 451/427/135
f 449/426/136 488/428/136 487/429/136
f 452/430/137 492/431/137 488/428/137
f 453/432/138 493/433/138 492/431/138
f 454/434/139 494/435/139 493/433/139
f 455/436/140 497/437/140 494/435/140
f 456/438/141 498/439/141 497/437/141
f 446/440/142 483/441/142 498/439/142
f 447/442/143 484/380/143 483/441/143
f 68/40/15 79/43/15 73/42/15
f 79/43/16 91/38/16 85/39/16
f 91/38/17 103/45/17 97/44/17
f 103/45/18 115/36/18 110/37/18
f 115/36/19 126/47/19 121/46/19
f 126/47/20 132/33/20 129/35/20
f 132/33/21 138/49/21 136/48/21
f 138/49/22 145/339/22 142/34/22
f 142/34/23 145/339/23 151/50/23
f 148/51/24 151/50/24 157/52/24
f 153/53/25 157/52/25 162/54/25
f 159/55/26 162/54/26 168/56/26
f 165/57/27 168/56/27 174/58/27
f 171/59/28 174/58/28 180/60/28
f 177/61/29 180/60/29 186/62/29
f 185/63/30 186/62/30 190/64/30
f 189/65/31 190/64/31 192/66/31
f 191/67/32 192/66/32 194/68/32
f 193/69/33 194/68/33 196/70/33
f 195/71/34 196/70/34 198/72/34
f 197/73/35 198/72/35 200/74/35
f 199/75/36 200/74/36 202/31/36
f 201/32/37 202/31/37 204/76/37
f 203/77/38 204/76/38 206/29/38
f 206/29/39 208/79/39 207/78/39
f 208/79/40 210/27/40 209/28/40
f 210/27/41 212/81/41 211/80/41
f 212/81/42 214/25/42 213/26/42
f 214/25/43 216/83/43 215/82/43
f 216/83/44 218/22/44 217/24/44
f 451/444/45 450/445/45 157/291/45
f 157/291/45 151/289/45 145/10/45
f 145/10/45 138/285/45 132/9/45
f 132/9/45 126/284/45 115/16/45
f 115/16/45 103/277/45 91/15/45
f 91/15/45 79/343/45 68/14/45
f 68/14/45 220/378/45 218/3/45
f 218/3/45 216/331/45 214/4/45
f 214/4/45 212/325/45 210/19/45
f 210/19/89 440/446/89 441/447/89
f 210/19/45 441/447/45 442/448/45
f 451/444/45 157/291/45 145/10/45
f 449/449/45 451/444/45 145/10/45
f 214/4/45 210/19/45 442/448/45
f 214/4/45 442/448/45 443/450/45
f 452/451/45 449/449/45 145/10/45
f 452/451/45 145/10/45 132/9/45
f 214/4/45 443/450/45 444/452/45
f 218/3/151 214/4/151 444/452/151
f 453/453/45 452/451/45 132/9/45
f 454/454/45 453/453/45 132/9/45
f 218/3/45 444/452/45 439/455/45
f 218/3/45 439/455/45 448/456/45
f 454/454/152 132/9/152 115/16/152
f 455/457/45 454/454/45 115/16/45
f 68/14/153 218/3/153 448/456/153
f 68/14/45 448/456/45 445/458/45
f 456/459/45 455/457/45 115/16/45
f 456/459/45 115/16/45 91/15/45
f 68/14/45 445/458/45 447/84/45
f 446/85/45 456/459/45 91/15/45
f 91/15/154 68/14/154 447/84/154
f 464/460/45 440/446/45 210/19/45
f 210/19/45 208/322/45 206/7/45
f 206/7/45 204/317/45 202/8/45
f 202/8/45 200/315/45 198/313/45
f 198/313/45 196/311/45 194/86/45
f 194/86/45 192/307/45 190/308/45
f 190/308/45 186/305/45 180/303/45
f 180/303/45 174/302/45 168/299/45
f 168/299/45 162/297/45 157/291/45
f 157/291/155 450/445/155 467/461/155
f 157/291/45 467/461/45 469/462/45
f 464/460/45 210/19/45 206/7/45
f 457/463/45 464/460/45 206/7/45
f 168/299/45 157/291/45 469/462/45
f 168/299/45 469/462/45 468/464/45
f 463/465/45 457/463/45 206/7/45
f 463/465/45 206/7/45 202/8/45
f 168/299/45 468/464/45 471/466/45
f 180/303/45 168/299/45 471/466/45
f 462/467/45 463/465/45 202/8/45
f 461/468/45 462/467/45 202/8/45
f 180/303/45 471/466/45 470/469/45
f 180/303/45 470/469/45 466/470/45
f 461/468/151 202/8/151 198/313/151
f 460/471/45 461/468/45 198/313/45
f 190/308/153 180/303/153 466/470/153
f 190/308/45 466/470/45 465/472/45
f 459/473/45 460/471/45 198/313/45
f 459/473/45 198/313/45 194/86/45
f 190/308/45 465/472/45 472/87/45
f 458/88/45 459/473/45 194/86/45
f 194/86/156 190/308/156 472/87/156
f 218/22/46 220/90/46 219/89/46
f 220/90/47 68/443/47 62/23/47
f 254/474/48 221/475/48 219/476/48
f 219/476/48 62/20/48 73/477/48
f 73/477/48 85/11/48 97/478/48
f 97/478/48 110/1/48 121/479/48
f 121/479/48 129/2/48 136/91/48
f 136/91/48 142/21/48 148/480/48
f 148/480/48 153/481/48 159/482/48
f 159/482/48 165/483/48 171/484/48
f 171/484/48 177/485/48 185/92/48
f 185/92/48 189/486/48 191/487/48
f 191/487/48 193/488/48 195/489/48
f 195/489/48 197/490/48 199/491/48
f 199/491/48 201/18/48 203/94/48
f 203/94/48 239/492/48 253/493/48
f 203/94/48 253/493/48 238/494/48
f 195/489/48 199/491/48 203/94/48
f 185/92/48 191/487/48 195/489/48
f 159/482/48 171/484/48 185/92/48
f 136/91/48 148/480/48 159/482/48
f 97/478/48 121/479/48 136/91/48
f 219/476/48 73/477/48 97/478/48
f 223/495/48 254/474/48 219/476/48
f 256/496/48 223/495/48 219/476/48
f 219/476/48 97/478/48 136/91/48
f 136/91/48 159/482/48 185/92/48
f 185/92/48 195/489/48 203/94/48
f 203/94/48 238/494/48 255/497/48
f 203/94/48 255/497/48 241/498/48
f 222/499/48 256/496/48 219/476/48
f 257/500/48 222/499/48 219/476/48
f 203/94/48 241/498/48 258/501/48
f 203/94/48 258/501/48 243/502/48
f 227/503/48 257/500/48 219/476/48
f 259/504/48 227/503/48 219/476/48
f 185/92/48 203/94/48 243/502/48
f 185/92/48 243/502/48 246/505/48
f 259/504/48 219/476/48 136/91/48
f 236/506/157 260/507/157 225/508/157
f 225/508/48 259/504/48 136/91/48
f 185/92/48 246/505/48 251/509/48
f 185/92/48 251/509/48 248/510/48
f 236/506/48 225/508/48 136/91/48
f 230/511/48 236/506/48 136/91/48
f 185/92/48 248/510/48 250/512/48
f 185/92/48 250/512/48 249/513/48
f 235/514/48 230/511/48 136/91/48
f 232/515/48 235/514/48 136/91/48
f 185/92/48 249/513/48 224/516/48
f 185/92/48 224/516/48 226/517/48
f 231/518/48 232/515/48 136/91/48
f 234/519/48 231/518/48 136/91/48
f 185/92/48 226/517/48 229/520/48
f 185/92/48 229/520/48 228/521/48
f 233/93/48 234/519/48 136/91/48
f 185/92/48 228/521/48 233/93/48
f 261/522/48 239/492/48 203/94/48
f 203/94/48 205/17/48 207/523/48
f 207/523/48 209/12/48 211/524/48
f 211/524/48 213/6/48 215/525/48
f 215/525/48 217/5/48 219/476/48
f 219/476/48 221/475/48 262/526/48
f 245/527/158 263/528/158 247/529/158
f 219/476/48 262/526/48 245/527/48
f 211/524/48 215/525/48 219/476/48
f 203/94/48 207/523/48 211/524/48
f 237/530/48 261/522/48 203/94/48
f 264/531/48 237/530/48 203/94/48
f 203/94/48 211/524/48 219/476/48
f 219/476/48 245/527/48 247/529/48
f 219/476/48 247/529/48 266/532/48
f 240/533/48 264/531/48 203/94/48
f 265/534/48 240/533/48 203/94/48
f 219/476/48 266/532/48 252/95/48
f 252/95/159 268/535/159 242/96/159
f 242/96/160 267/536/160 244/537/160
f 244/537/48 265/534/48 203/94/48
f 203/94/48 219/476/48 252/95/48
f 242/96/48 244/537/48 203/94/48
f 271/100/31 223/538/31 256/101/31
f 401/103/31 334/539/31 333/104/31
f 399/105/161 400/105/161 401/103/161
f 256/101/31 222/97/31 270/99/31
f 269/98/32 222/97/32 257/109/32
f 399/105/32 333/104/32 335/111/32
f 257/109/32 227/106/32 274/108/32
f 273/107/33 227/106/33 259/116/33
f 402/112/33 335/111/33 336/118/33
f 259/116/33 225/113/33 277/115/33
f 276/114/34 225/113/34 260/123/34
f 403/119/34 336/118/34 337/125/34
f 260/123/34 236/120/34 280/122/34
f 230/127/35 282/130/35 279/121/35
f 338/128/35 405/131/35 404/126/35
f 235/129/36 283/135/36 282/130/36
f 405/131/36 338/128/36 339/132/36
f 232/134/37 284/138/37 283/135/37
f 340/136/37 407/139/37 406/133/37
f 231/137/38 285/142/38 284/138/38
f 340/136/38 341/540/38 409/140/38
f 408/139/2 407/139/2 340/136/2
f 231/137/39 234/145/39 286/141/39
f 409/140/39 341/540/39 342/143/39
f 411/144/2 410/144/2 409/140/2
f 234/145/40 233/148/40 287/146/40
f 342/143/40 343/151/40 412/147/40
f 233/148/41 228/153/41 288/149/41
f 413/150/41 412/147/41 343/151/41
f 228/153/42 229/156/42 289/154/42
f 344/152/42 345/158/42 414/155/42
f 229/156/43 226/160/43 290/157/43
f 345/158/43 346/163/43 415/159/43
f 226/160/44 224/165/44 291/161/44
f 416/162/44 415/159/44 346/163/44
f 224/165/46 249/168/46 292/166/46
f 347/164/46 348/541/46 417/167/46
f 249/168/47 250/172/47 293/169/47
f 419/171/162 418/167/162 417/167/162
f 417/167/47 348/541/47 349/170/47
f 250/172/15 248/176/15 294/173/15
f 350/174/1 421/175/1 420/175/1
f 420/175/15 419/171/15 349/170/15
f 248/176/16 251/179/16 295/177/16
f 350/174/16 351/182/16 422/178/16
f 251/179/17 246/184/17 296/180/17
f 423/181/17 422/178/17 351/182/17
f 246/184/18 243/542/18 297/185/18
f 352/183/18 353/192/18 424/186/18
f 297/185/19 243/542/19 258/190/19
f 353/192/19 354/199/19 425/193/19
f 258/190/19 241/188/19 299/187/19
f 298/189/20 241/188/20 255/197/20
f 354/199/20 355/206/20 426/200/20
f 255/197/20 238/195/20 302/194/20
f 301/196/21 238/195/21 253/204/21
f 355/206/21 356/213/21 427/207/21
f 253/204/21 239/202/21 305/201/21
f 304/203/22 239/202/22 261/211/22
f 429/215/89 427/207/89 356/213/89
f 356/213/22 357/221/22 428/214/22
f 261/211/22 237/208/22 308/210/22
f 307/209/23 237/208/23 264/219/23
f 430/222/23 428/214/23 357/221/23
f 357/221/23 358/543/23 431/222/23
f 264/219/23 240/216/23 311/218/23
f 310/217/24 240/216/24 265/226/24
f 431/222/24 358/543/24 359/228/24
f 265/226/24 244/223/24 314/225/24
f 313/224/25 244/223/25 267/233/25
f 432/229/25 359/228/25 360/235/25
f 267/233/25 242/230/25 317/232/25
f 316/231/26 242/230/26 268/240/26
f 433/236/26 360/235/26 361/242/26
f 268/240/26 252/237/26 320/239/26
f 319/238/27 252/237/27 266/247/27
f 434/243/27 361/242/27 362/249/27
f 266/247/27 247/245/27 323/244/27
f 322/246/28 247/245/28 263/254/28
f 435/250/28 362/249/28 363/256/28
f 263/254/28 245/252/28 326/251/28
f 325/253/29 245/252/29 262/261/29
f 436/257/29 363/256/29 364/263/29
f 262/261/29 221/259/29 329/258/29
f 328/260/30 221/259/30 254/268/30
f 437/264/30 364/263/30 334/270/30
f 334/270/30 401/544/30 438/271/30
f 254/268/30 223/265/30 331/267/30
f 331/272/51 271/545/51 63/14/51
f 63/14/51 70/343/51 328/273/51
f 328/273/163 332/546/163 331/272/163
f 328/273/52 70/343/52 78/15/52
f 78/15/52 325/547/52 330/274/52
f 330/274/164 329/548/164 328/273/164
f 326/276/53 325/547/53 78/15/53
f 78/15/53 84/277/53 322/275/53
f 322/275/165 327/549/165 326/276/165
f 323/550/54 322/275/54 84/277/54
f 84/277/54 88/16/54 319/278/54
f 324/279/54 323/550/54 84/277/54
f 320/281/55 319/278/55 88/16/55
f 88/16/55 94/284/55 316/280/55
f 316/280/166 321/551/166 320/281/166
f 94/284/56 101/9/56 313/282/56
f 313/282/167 318/552/167 317/283/167
f 317/283/56 316/280/56 94/284/56
f 315/286/168 314/553/168 313/282/168
f 313/282/57 101/9/57 108/285/57
f 108/285/57 310/554/57 315/286/57
f 311/287/58 310/554/58 108/285/58
f 108/285/58 113/10/58 307/288/58
f 307/288/169 312/555/169 311/287/169
f 309/290/170 308/556/170 307/288/170
f 307/288/59 113/10/59 117/289/59
f 117/289/59 304/293/59 309/290/59
f 304/293/60 117/289/60 125/291/60
f 125/291/60 301/557/60 306/292/60
f 306/292/171 305/558/171 304/293/171
f 302/559/61 301/557/61 125/291/61
f 125/291/61 128/297/61 298/294/61
f 303/295/61 302/559/61 125/291/61
f 299/296/62 298/294/62 128/297/62
f 128/297/62 131/299/62 297/298/62
f 297/298/172 300/560/172 299/296/172
f 131/299/63 133/302/63 296/300/63
f 295/301/64 296/300/64 133/302/64
f 135/303/65 139/305/65 294/304/65
f 139/305/66 141/308/66 293/306/66
f 144/307/67 292/309/67 293/306/67
f 147/86/68 291/310/68 292/309/68
f 291/310/69 147/86/69 150/311/69
f 290/312/70 150/311/70 154/313/70
f 289/314/71 154/313/71 156/315/71
f 160/8/72 287/318/72 288/316/72
f 163/317/73 286/319/73 287/318/73
f 166/7/74 285/321/74 286/319/74
f 166/7/75 170/322/75 284/320/75
f 170/322/76 173/19/76 283/323/76
f 173/19/77 176/325/77 282/324/77
f 176/325/78 178/4/78 279/326/78
f 280/327/79 279/326/79 178/4/79
f 178/4/79 182/331/79 276/328/79
f 276/328/173 281/561/173 280/327/173
f 182/331/80 183/3/80 273/329/80
f 273/329/174 278/562/174 277/330/174
f 277/330/80 276/328/80 182/331/80
f 365/334/48 108/91/48 101/2/48
f 101/2/48 94/479/48 88/1/48
f 88/1/48 84/478/48 78/11/48
f 78/11/48 70/477/48 63/20/48
f 63/20/48 187/476/48 183/5/48
f 183/5/48 182/525/48 178/6/48
f 178/6/48 176/524/48 173/12/48
f 173/12/48 170/523/48 166/17/48
f 366/563/48 365/334/48 101/2/48
f 101/2/48 88/1/48 78/11/48
f 78/11/48 63/20/48 183/5/48
f 183/5/48 178/6/48 173/12/48
f 173/12/48 166/17/48 163/94/48
f 183/5/48 173/12/48 163/94/48
f 366/563/48 101/2/48 78/11/48
f 367/564/48 366/563/48 78/11/48
f 370/565/48 367/564/48 78/11/48
f 371/566/48 370/565/48 78/11/48
f 369/567/48 371/566/48 78/11/48
f 368/568/48 369/567/48 78/11/48
f 372/569/48 368/568/48 78/11/48
f 373/570/48 372/569/48 78/11/48
f 374/571/48 373/570/48 78/11/48
f 374/571/48 78/11/48 183/5/48
f 382/572/48 374/571/48 183/5/48
f 381/573/48 382/572/48 183/5/48
f 380/574/48 381/573/48 183/5/48
f 379/575/48 380/574/48 183/5/48
f 379/575/48 183/5/48 163/94/48
f 378/576/48 379/575/48 163/94/48
f 375/333/48 378/576/48 163/94/48
f 377/332/2 376/332/2 375/333/2
f 393/577/48 377/332/48 163/94/48
f 163/94/48 160/18/48 156/491/48
f 156/491/48 154/490/48 150/489/48
f 150/489/48 147/578/48 144/579/48
f 144/579/48 141/580/48 139/581/48
f 139/581/48 135/582/48 133/484/48
f 133/484/48 131/483/48 128/482/48
f 128/482/48 125/481/48 117/480/48
f 117/480/48 113/21/48 108/91/48
f 128/482/48 117/480/48 108/91/48
f 139/581/48 133/484/48 128/482/48
f 150/489/48 144/579/48 139/581/48
f 163/94/48 156/491/48 150/489/48
f 395/583/48 393/577/48 163/94/48
f 394/584/48 395/583/48 163/94/48
f 392/585/48 394/584/48 163/94/48
f 392/585/48 163/94/48 150/489/48
f 396/586/48 392/585/48 150/489/48
f 390/587/48 396/586/48 150/489/48
f 389/588/48 390/587/48 150/489/48
f 391/589/48 389/588/48 150/489/48
f 391/589/48 150/489/48 139/581/48
f 388/590/48 391/589/48 139/581/48
f 397/591/48 388/590/48 139/581/48
f 398/592/48 397/591/48 139/581/48
f 384/593/48 398/592/48 139/581/48
f 384/593/48 139/581/48 128/482/48
f 385/594/48 384/593/48 128/482/48
f 386/595/48 385/594/48 128/482/48
f 383/335/48 386/595/48 128/482/48
f 383/335/48 128/482/48 108/91/48
f 365/334/2 387/334/2 383/335/2
f 274/336/81 273/329/81 183/3/81
f 183/3/81 187/378/81 269/337/81
f 269/337/175 275/596/175 274/336/175
f 272/338/89 270/597/89 269/337/89
f 269/337/82 187/378/82 63/14/82
f 63/14/82 271/545/82 272/338/82
f 373/42/31 71/43/31 66/40/31
f 374/39/32 76/38/32 71/43/32
f 382/44/33 82/45/33 76/38/33
f 381/37/34 90/36/34 82/45/34
f 90/36/35 381/37/35 380/46/35
f 95/47/36 380/46/36 379/35/36
f 99/33/37 379/35/37 378/48/37
f 106/49/38 378/48/38 375/34/38
f 119/50/39 111/339/39 375/34/39
f 393/53/40 124/52/40 119/50/40
f 376/51/2 377/51/2 393/53/2
f 127/54/41 124/52/41 393/53/41
f 130/56/42 127/54/42 395/55/42
f 134/58/43 130/56/43 394/57/43
f 137/60/44 134/58/44 392/59/44
f 140/62/46 137/60/46 396/61/46
f 143/64/47 140/62/47 390/63/47
f 146/66/15 143/64/15 389/65/15
f 149/68/16 146/66/16 391/67/16
f 152/70/17 149/68/17 388/69/17
f 155/72/18 152/70/18 397/71/18
f 158/74/19 155/72/19 398/73/19
f 161/31/20 158/74/20 384/75/20
f 164/76/21 161/31/21 385/32/21
f 167/29/22 164/76/22 386/77/22
f 387/78/23 169/79/23 167/29/23
f 365/78/24 366/28/24 172/27/24
f 169/79/2 387/78/2 365/78/2
f 367/80/25 175/81/25 172/27/25
f 370/26/26 179/25/26 175/81/26
f 371/82/27 181/83/27 179/25/27
f 369/24/28 184/22/28 181/83/28
f 340/598/48 339/599/48 99/9/48
f 99/9/48 106/285/48 111/10/48
f 111/10/48 119/289/48 124/291/48
f 124/291/48 343/600/48 342/601/48
f 341/340/48 340/598/48 99/9/48
f 124/291/48 342/601/48 341/340/48
f 99/9/48 111/10/48 124/291/48
f 344/602/48 343/600/48 124/291/48
f 124/291/48 127/297/48 130/299/48
f 130/299/48 134/302/48 137/303/48
f 137/303/48 140/305/48 143/308/48
f 143/308/48 146/307/48 149/86/48
f 149/86/48 152/311/48 155/313/48
f 155/313/48 158/315/48 161/8/48
f 161/8/48 164/317/48 167/7/48
f 167/7/48 169/322/48 172/19/48
f 172/19/48 175/325/48 179/4/48
f 179/4/48 181/331/48 184/3/48
f 184/3/48 188/378/48 66/14/48
f 66/14/48 71/343/48 76/15/48
f 76/15/48 82/277/48 90/16/48
f 90/16/48 95/284/48 99/9/48
f 99/9/48 339/599/48 338/603/48
f 99/9/48 338/603/48 337/604/48
f 76/15/48 90/16/48 99/9/48
f 184/3/48 66/14/48 76/15/48
f 172/19/48 179/4/48 184/3/48
f 161/8/48 167/7/48 172/19/48
f 149/86/48 155/313/48 161/8/48
f 137/303/48 143/308/48 149/86/48
f 124/291/48 130/299/48 137/303/48
f 345/605/48 344/602/48 124/291/48
f 345/605/48 124/291/48 137/303/48
f 76/15/176 99/9/176 337/604/176
f 76/15/48 337/604/48 336/606/48
f 346/607/48 345/605/48 137/303/48
f 347/608/48 346/607/48 137/303/48
f 76/15/48 336/606/48 335/609/48
f 76/15/48 335/609/48 333/610/48
f 348/611/48 347/608/48 137/303/48
f 349/612/48 348/611/48 137/303/48
f 76/15/48 333/610/48 334/613/48
f 184/3/176 76/15/176 334/613/176
f 349/612/177 137/303/177 149/86/177
f 350/614/48 349/612/48 149/86/48
f 184/3/48 334/613/48 364/615/48
f 184/3/48 364/615/48 363/616/48
f 351/617/48 350/614/48 149/86/48
f 352/618/48 351/617/48 149/86/48
f 184/3/48 363/616/48 362/619/48
f 184/3/48 362/619/48 361/620/48
f 353/621/48 352/618/48 149/86/48
f 353/621/48 149/86/48 161/8/48
f 172/19/48 184/3/48 361/620/48
f 172/19/48 361/620/48 360/622/48
f 354/623/48 353/621/48 161/8/48
f 355/624/48 354/623/48 161/8/48
f 172/19/48 360/622/48 359/625/48
f 172/19/48 359/625/48 358/626/48
f 356/627/48 355/624/48 161/8/48
f 172/19/48 358/626/48 357/341/48
f 357/341/48 356/627/48 161/8/48
f 368/89/29 188/90/29 184/22/29
f 372/23/30 66/443/30 188/90/30
f 401/342/83 61/14/83 64/343/83
f 64/343/84 65/15/84 436/345/84
f 437/344/89 438/344/89 64/343/89
f 436/345/85 65/15/85 67/277/85
f 69/16/86 434/347/86 435/346/86
f 72/284/87 433/348/87 434/347/87
f 433/348/88 72/284/88 74/9/88
f 74/9/178 75/285/178 430/350/178
f 431/350/178 432/349/178 74/9/178
f 430/350/90 75/285/90 77/10/90
f 77/10/91 80/289/91 429/352/91
f 80/289/92 81/291/92 426/353/92
f 427/352/89 429/352/89 80/289/89
f 81/291/93 83/297/93 425/354/93
f 83/297/94 86/299/94 424/355/94
f 86/299/95 87/302/95 423/356/95
f 87/302/96 89/303/96 422/357/96
f 422/357/97 89/303/97 92/305/97
f 92/305/179 420/358/179 421/358/179
f 92/305/98 93/308/98 419/359/98
f 96/307/99 418/360/99 419/359/99
f 96/307/180 98/86/180 416/361/180
f 96/307/180 416/361/180 417/360/180
f 416/361/100 98/86/100 100/311/100
f 415/362/101 100/311/101 102/313/101
f 414/363/102 102/313/102 104/315/102
f 413/364/103 104/315/103 105/8/103
f 412/365/104 105/8/104 107/317/104
f 410/366/2 411/366/2 412/365/2
f 109/7/105 409/368/105 410/366/105
f 109/7/106 112/322/106 408/367/106
f 112/322/107 114/19/107 406/369/107
f 407/367/2 408/367/2 112/322/2
f 114/19/108 116/325/108 405/370/108
f 404/371/109 405/370/109 116/325/109
f 403/372/110 404/371/110 118/4/110
f 120/331/111 122/3/111 402/373/111
f 75/91/48 74/2/48 72/479/48
f 72/479/48 69/1/48 67/478/48
f 67/478/48 65/11/48 64/477/48
f 64/477/48 61/20/48 123/476/48
f 123/476/48 122/5/48 120/525/48
f 120/525/48 118/6/48 116/524/48
f 116/524/48 114/12/48 112/523/48
f 112/523/48 109/17/48 107/94/48
f 107/94/48 105/18/48 104/491/48
f 104/491/48 102/490/48 100/489/48
f 100/489/48 98/578/48 96/579/48
f 96/579/48 93/580/48 92/628/48
f 92/628/48 479/376/48 485/629/48
f 92/628/48 485/629/48 482/630/48
f 100/489/48 96/579/48 92/628/48
f 107/94/48 104/491/48 100/489/48
f 116/524/48 112/523/48 107/94/48
f 123/476/48 120/525/48 116/524/48
f 67/478/48 64/477/48 123/476/48
f 75/91/48 72/479/48 67/478/48
f 75/91/48 67/478/48 123/476/48
f 123/476/48 116/524/48 107/94/48
f 107/94/48 100/489/48 92/628/48
f 92/628/48 482/630/48 495/631/48
f 92/628/48 495/631/48 496/632/48
f 107/94/48 92/628/48 496/632/48
f 107/94/48 496/632/48 489/633/48
f 107/94/48 489/633/48 490/634/48
f 107/94/48 490/634/48 491/635/48
f 107/94/48 491/635/48 486/636/48
f 107/94/48 486/636/48 487/637/48
f 107/94/48 487/637/48 488/638/48
f 107/94/48 488/638/48 492/639/48
f 107/94/48 492/639/48 493/640/48
f 123/476/48 107/94/48 493/640/48
f 123/476/48 493/640/48 494/641/48
f 123/476/48 494/641/48 497/642/48
f 123/476/48 497/642/48 498/643/48
f 123/476/48 498/643/48 483/644/48
f 123/476/48 483/644/48 484/645/48
f 123/476/48 484/645/48 480/646/48
f 123/476/48 480/646/48 478/647/48
f 123/476/48 478/647/48 481/648/48
f 75/91/48 123/476/48 481/648/48
f 75/91/48 481/648/48 477/649/48
f 75/91/48 477/649/48 476/650/48
f 75/91/48 476/650/48 475/374/48
f 474/375/2 473/651/2 75/91/2
f 92/628/48 89/582/48 87/484/48
f 87/484/48 86/483/48 83/482/48
f 83/482/48 81/481/48 80/480/48
f 80/480/48 77/21/48 75/91/48
f 75/91/48 473/651/48 502/652/48
f 75/91/48 502/652/48 501/653/48
f 83/482/48 80/480/48 75/91/48
f 92/628/48 87/484/48 83/482/48
f 479/376/48 92/628/48 83/482/48
f 83/482/48 75/91/48 501/653/48
f 83/482/48 501/653/48 500/654/48
f 83/482/48 500/654/48 499/655/48
f 83/482/48 499/655/48 506/656/48
f 83/482/48 506/656/48 505/657/48
f 83/482/48 505/657/48 504/377/48
f 479/376/48 83/482/48 504/377/48
f 123/378/181 400/379/181 399/379/181
f 399/379/112 402/373/112 122/3/112
f 123/378/113 61/14/113 401/342/113
f 484/380/114 445/658/114 448/381/114
f 480/382/115 448/381/115 439/383/115
f 478/384/116 439/383/116 444/385/116
f 481/386/117 444/385/117 443/387/117
f 477/388/118 443/387/118 442/389/118
f 476/390/119 442/389/119 441/391/119
f 474/393/182 475/392/182 441/391/182
f 440/391/182 464/394/182 474/393/182
f 464/394/183 457/395/183 502/397/183
f 464/394/183 502/397/183 473/393/183
f 457/395/120 463/398/120 501/396/120
f 463/398/121 462/400/121 500/399/121
f 462/400/122 461/402/122 499/401/122
f 461/402/123 460/404/123 506/403/123
f 460/404/124 459/406/124 505/405/124
f 459/406/125 458/408/125 504/407/125
f 458/408/126 472/410/126 503/409/126
f 472/410/127 465/659/127 485/411/127
f 479/409/2 503/409/2 472/410/2
f 485/411/128 465/659/128 466/412/128
f 470/414/129 495/416/129 482/413/129
f 471/415/130 496/418/130 495/416/130
f 468/417/131 489/420/131 496/418/131
f 469/419/132 490/422/132 489/420/132
f 467/421/133 491/425/133 490/422/133
f 491/425/184 467/421/184 450/423/184
f 450/423/134 451/427/134 486/424/134
f 449/426/135 487/429/135 486/424/135
f 449/426/136 452/430/136 488/428/136
f 452/430/137 453/432/137 492/431/137
f 453/432/138 454/434/138 493/433/138
f 454/434/139 455/436/139 494/435/139
f 455/436/140 456/438/140 497/437/140
f 456/438/141 446/440/141 498/439/141
f 446/440/142 447/442/142 483/441/142
f 447/442/143 445/658/143 484/380/143
usemtl マテリアル
f 511/1/1 522/2/1 513/2/1
f 538/3/2 544/4/2 536/4/2
f 537/5/1 543/6/1 545/5/1
f 532/7/1 518/8/1 530/8/1
f 521/9/2 553/10/2 555/9/2
f 527/11/1 558/1/1 524/1/1
f 543/6/1 548/12/1 563/6/1
f 520/13/4 553/13/4 519/13/4
f 546/3/2 562/14/2 566/3/2
f 526/15/2 557/16/2 559/15/2
f 518/13/5 552/13/5 517/13/5
f 510/15/2 523/16/2 526/15/2
f 515/13/4 519/13/4 516/13/4
f 531/17/144 517/18/144 539/17/144
f 536/4/2 516/10/2 512/16/2
f 509/11/1 524/1/1 511/1/1
f 536/4/2 542/19/2 534/19/2
f 513/2/1 533/12/1 537/5/1
f 507/20/1 527/11/1 509/11/1
f 545/5/1 561/20/1 528/20/1
f 539/17/2 552/18/2 550/17/2
f 533/12/1 539/17/1 541/12/1
f 512/16/2 521/9/2 523/16/2
f 534/19/2 540/7/2 532/7/2
f 508/14/2 526/15/2 525/14/2
f 537/5/1 528/20/1 507/20/1
f 508/14/2 546/3/2 538/3/2
f 513/2/1 520/21/1 515/21/1
f 535/6/1 541/12/1 543/6/1
f 530/13/5 517/13/5 529/13/5
f 514/9/145 519/10/145 521/9/145
f 566/22/7 561/23/7 565/24/7
f 564/25/8 565/24/8 563/26/8
f 547/27/146 563/26/146 548/28/146
f 549/29/10 548/28/10 550/30/10
f 551/31/5 550/30/5 552/32/5
f 555/33/4 554/34/4 556/35/4
f 557/36/11 556/35/11 558/37/11
f 559/38/12 558/37/12 560/39/12
f 562/40/13 560/39/13 561/41/13
f 544/4/2 547/19/2 542/19/2
f 542/19/2 549/7/2 540/7/2
f 522/2/2 554/21/2 520/21/2
f 541/12/1 550/17/1 548/12/1
f 545/5/1 563/6/1 565/5/1
f 525/14/2 559/15/2 562/14/2
f 523/16/2 555/9/2 557/16/2
f 546/3/2 564/4/2 544/4/2
f 540/7/147 551/8/147 518/8/147
f 528/20/1 560/11/1 527/11/1
f 524/1/1 556/2/1 522/2/1
f 511/1/1 524/1/1 522/2/1
f 538/3/2 546/3/2 544/4/2
f 537/5/1 535/6/1 543/6/1
f 532/7/185 540/7/185 518/8/185
f 521/9/2 519/10/2 553/10/2
f 527/11/1 560/11/1 558/1/1
f 543/6/1 541/12/1 548/12/1
f 520/13/4 554/13/4 553/13/4
f 546/3/2 525/14/2 562/14/2
f 526/15/2 523/16/2 557/16/2
f 518/13/5 551/13/5 552/13/5
f 510/15/2 512/16/2 523/16/2
f 515/13/4 520/13/4 519/13/4
f 531/17/2 529/18/2 517/18/2
f 512/16/2 510/15/2 508/14/2
f 508/14/2 538/3/2 536/4/2
f 536/4/2 534/19/2 532/7/2
f 532/7/2 530/8/2 516/10/2
f 516/10/2 514/9/2 512/16/2
f 512/16/2 508/14/2 536/4/2
f 536/4/2 532/7/2 516/10/2
f 509/11/1 527/11/1 524/1/1
f 536/4/2 544/4/2 542/19/2
f 537/5/1 507/20/1 509/11/1
f 509/11/1 511/1/1 513/2/1
f 513/2/1 515/21/1 529/18/1
f 529/18/1 531/17/1 533/12/1
f 533/12/1 535/6/1 537/5/1
f 537/5/1 509/11/1 513/2/1
f 513/2/1 529/18/1 533/12/1
f 507/20/1 528/20/1 527/11/1
f 545/5/1 565/5/1 561/20/1
f 539/17/186 517/18/186 552/18/186
f 533/12/1 531/17/1 539/17/1
f 512/16/2 514/9/2 521/9/2
f 534/19/2 542/19/2 540/7/2
f 508/14/2 510/15/2 526/15/2
f 537/5/1 545/5/1 528/20/1
f 508/14/2 525/14/2 546/3/2
f 513/2/187 522/2/187 520/21/187
f 535/6/1 533/12/1 541/12/1
f 530/13/5 518/13/5 517/13/5
f 514/9/2 516/10/2 519/10/2
f 566/22/7 562/443/7 561/23/7
f 564/25/8 566/22/8 565/24/8
f 547/27/9 564/25/9 563/26/9
f 549/29/10 547/27/10 548/28/10
f 551/31/5 549/29/5 550/30/5
f 555/33/4 553/339/4 554/34/4
f 557/36/11 555/33/11 556/35/11
f 559/38/12 557/36/12 558/37/12
f 562/40/13 559/38/13 560/39/13
f 544/4/2 564/4/2 547/19/2
f 542/19/2 547/19/2 549/7/2
f 522/2/1 556/2/1 554/21/1
f 541/12/1 539/17/1 550/17/1
f 545/5/1 543/6/1 563/6/1
f 525/14/2 526/15/2 559/15/2
f 523/16/2 521/9/2 555/9/2
f 546/3/2 566/3/2 564/4/2
f 540/7/1 549/7/1 551/8/1
f 528/20/1 561/20/1 560/11/1
f 524/1/1 558/1/1 556/2/1
