# Blender 5.2.0 LTS
# www.blender.org
mtllib EnemyCore.mtl
o 立方体.009
v -0.500000 0.631168 2.048698
v -0.500000 1.631168 2.048698
v -0.500000 0.631168 1.048698
v -0.500000 1.631168 1.048698
v 0.500000 0.631168 2.048698
v 0.500000 1.631168 2.048698
v 0.500000 0.631168 1.048698
v 0.500000 1.631168 1.048698
v 1.000000 2.000000 -1.000000
v 1.000000 0.000000 -1.000000
v 1.000000 2.000000 1.000000
v 1.000000 0.000000 1.000000
v -1.000000 2.000000 -1.000000
v -1.000000 0.000000 -1.000000
v -1.000000 2.000000 1.000000
v -1.000000 0.000000 1.000000
v -0.500000 1.684821 -0.422621
v -0.500000 2.684821 -0.422621
v -0.500000 1.684821 -1.422621
v -0.500000 2.684821 -1.422621
v 0.500000 1.684821 -0.422621
v 0.500000 2.684821 -0.422621
v 0.500000 1.684821 -1.422621
v 0.500000 2.684821 -1.422621
v -0.500000 2.460468 0.404681
v -0.500000 3.460468 0.404681
v -0.500000 2.460468 -0.595319
v -0.500000 3.460468 -0.595319
v 0.500000 2.460468 0.404681
v 0.500000 3.460468 0.404681
v 0.500000 2.460468 -0.595319
v 0.500000 3.460468 -0.595319
v -0.500000 1.713819 1.229126
v -0.500000 2.713819 1.229126
v -0.500000 1.713819 0.229126
v -0.500000 2.713819 0.229126
v 0.500000 1.713819 1.229126
v 0.500000 2.713819 1.229126
v 0.500000 1.713819 0.229126
v 0.500000 2.713819 0.229126
v -1.663334 1.206349 0.168806
v -1.663334 2.206349 0.168806
v -1.663334 1.206349 -0.831194
v -1.663334 2.206349 -0.831194
v -0.663334 1.206349 0.168806
v -0.663334 2.206349 0.168806
v -0.663334 1.206349 -0.831194
v -0.663334 2.206349 -0.831194
v 0.690890 0.641315 0.404681
v 0.690890 1.641315 0.404681
v 0.690890 0.641315 -0.595319
v 0.690890 1.641315 -0.595319
v 1.690890 0.641315 0.404681
v 1.690890 1.641315 0.404681
v 1.690890 0.641315 -0.595319
v 1.690890 1.641315 -0.595319
v 0.690890 -0.110162 1.376423
v 0.690890 0.889838 1.376423
v 0.690890 -0.110162 0.376423
v 0.690890 0.889838 0.376423
v 1.690890 -0.110162 1.376423
v 1.690890 0.889838 1.376423
v 1.690890 -0.110162 0.376423
v 1.690890 0.889838 0.376423
v -0.608429 -0.110162 -0.706804
v -0.608429 0.889838 -0.706804
v -0.608429 -0.110162 -1.706804
v -0.608429 0.889838 -1.706804
v 0.391571 -0.110162 -0.706804
v 0.391571 0.889838 -0.706804
v 0.391571 -0.110162 -1.706804
v 0.391571 0.889838 -1.706804
v -0.608429 -0.110162 1.192605
v -0.608429 0.889838 1.192605
v -0.608429 -0.110162 0.192605
v -0.608429 0.889838 0.192605
v 0.391571 -0.110162 1.192605
v 0.391571 0.889838 1.192605
v 0.391571 -0.110162 0.192605
v 0.391571 0.889838 0.192605
v -1.629511 -0.110162 0.602679
v -1.629511 0.889838 0.602679
v -1.629511 -0.110162 -0.397321
v -1.629511 0.889838 -0.397321
v -0.629511 -0.110162 0.602679
v -0.629511 0.889838 0.602679
v -0.629511 -0.110162 -0.397321
v -0.629511 0.889838 -0.397321
vn -1.0000 -0.0000 -0.0000
vn -0.0000 -0.0000 -1.0000
vn 1.0000 -0.0000 -0.0000
vn -0.0000 -0.0000 1.0000
vn -0.0000 -1.0000 -0.0000
vn -0.0000 1.0000 -0.0000
vt 0.625000 0.000000
vt 0.375000 0.250000
vt 0.375000 0.000000
vt 0.625000 0.250000
vt 0.375000 0.500000
vt 0.625000 0.500000
vt 0.375000 0.750000
vt 0.625000 0.750000
vt 0.375000 1.000000
vt 0.125000 0.750000
vt 0.125000 0.500000
vt 0.875000 0.500000
vt 0.000000 0.000000
vt 0.625000 1.000000
vt 0.875000 0.750000
s 0
usemtl マテリアル
f 2/1/1 3/2/1 1/3/1
f 4/4/2 7/5/2 3/2/2
f 8/6/3 5/7/3 7/5/3
f 6/8/4 1/9/4 5/7/4
f 7/5/5 1/10/5 3/11/5
f 4/12/6 6/8/6 8/6/6
f 18/1/1 19/2/1 17/3/1
f 20/4/2 23/5/2 19/2/2
f 24/6/3 21/7/3 23/5/3
f 22/8/4 17/9/4 21/7/4
f 23/5/5 17/10/5 19/11/5
f 20/12/6 22/8/6 24/6/6
f 26/1/1 27/2/1 25/3/1
f 28/4/2 31/5/2 27/2/2
f 32/6/3 29/7/3 31/5/3
f 30/8/4 25/9/4 29/7/4
f 31/5/5 25/10/5 27/11/5
f 28/12/6 30/8/6 32/6/6
f 34/1/1 35/2/1 33/3/1
f 36/4/2 39/5/2 35/2/2
f 40/6/3 37/7/3 39/5/3
f 38/8/4 33/9/4 37/7/4
f 39/5/5 33/10/5 35/11/5
f 36/12/6 38/8/6 40/6/6
f 42/1/1 43/2/1 41/3/1
f 44/4/2 47/5/2 43/2/2
f 48/6/3 45/7/3 47/5/3
f 46/8/4 41/9/4 45/7/4
f 47/5/5 41/10/5 43/11/5
f 44/12/6 46/8/6 48/6/6
f 50/1/1 51/2/1 49/3/1
f 52/4/2 55/5/2 51/2/2
f 56/6/3 53/7/3 55/5/3
f 54/8/4 49/9/4 53/7/4
f 55/5/5 49/10/5 51/11/5
f 52/12/6 54/8/6 56/6/6
f 58/1/1 59/2/1 57/3/1
f 60/4/2 63/5/2 59/2/2
f 64/6/3 61/7/3 63/5/3
f 62/8/4 57/9/4 61/7/4
f 63/5/5 57/10/5 59/11/5
f 60/12/6 62/8/6 64/6/6
f 66/1/1 67/2/1 65/3/1
f 68/4/2 71/5/2 67/2/2
f 72/6/3 69/7/3 71/5/3
f 70/8/4 65/9/4 69/7/4
f 71/5/5 65/10/5 67/11/5
f 68/12/6 70/8/6 72/6/6
f 74/1/1 75/2/1 73/3/1
f 76/4/2 79/5/2 75/2/2
f 80/6/3 77/7/3 79/5/3
f 78/8/4 73/9/4 77/7/4
f 79/5/5 73/10/5 75/11/5
f 76/12/6 78/8/6 80/6/6
f 82/1/1 83/2/1 81/3/1
f 84/4/2 87/5/2 83/2/2
f 88/6/3 85/7/3 87/5/3
f 86/8/4 81/9/4 85/7/4
f 87/5/5 81/10/5 83/11/5
f 84/12/6 86/8/6 88/6/6
f 2/1/1 4/4/1 3/2/1
f 4/4/2 8/6/2 7/5/2
f 8/6/3 6/8/3 5/7/3
f 6/8/4 2/14/4 1/9/4
f 7/5/5 5/7/5 1/10/5
f 4/12/6 2/15/6 6/8/6
f 18/1/1 20/4/1 19/2/1
f 20/4/2 24/6/2 23/5/2
f 24/6/3 22/8/3 21/7/3
f 22/8/4 18/14/4 17/9/4
f 23/5/5 21/7/5 17/10/5
f 20/12/6 18/15/6 22/8/6
f 26/1/1 28/4/1 27/2/1
f 28/4/2 32/6/2 31/5/2
f 32/6/3 30/8/3 29/7/3
f 30/8/4 26/14/4 25/9/4
f 31/5/5 29/7/5 25/10/5
f 28/12/6 26/15/6 30/8/6
f 34/1/1 36/4/1 35/2/1
f 36/4/2 40/6/2 39/5/2
f 40/6/3 38/8/3 37/7/3
f 38/8/4 34/14/4 33/9/4
f 39/5/5 37/7/5 33/10/5
f 36/12/6 34/15/6 38/8/6
f 42/1/1 44/4/1 43/2/1
f 44/4/2 48/6/2 47/5/2
f 48/6/3 46/8/3 45/7/3
f 46/8/4 42/14/4 41/9/4
f 47/5/5 45/7/5 41/10/5
f 44/12/6 42/15/6 46/8/6
f 50/1/1 52/4/1 51/2/1
f 52/4/2 56/6/2 55/5/2
f 56/6/3 54/8/3 53/7/3
f 54/8/4 50/14/4 49/9/4
f 55/5/5 53/7/5 49/10/5
f 52/12/6 50/15/6 54/8/6
f 58/1/1 60/4/1 59/2/1
f 60/4/2 64/6/2 63/5/2
f 64/6/3 62/8/3 61/7/3
f 62/8/4 58/14/4 57/9/4
f 63/5/5 61/7/5 57/10/5
f 60/12/6 58/15/6 62/8/6
f 66/1/1 68/4/1 67/2/1
f 68/4/2 72/6/2 71/5/2
f 72/6/3 70/8/3 69/7/3
f 70/8/4 66/14/4 65/9/4
f 71/5/5 69/7/5 65/10/5
f 68/12/6 66/15/6 70/8/6
f 74/1/1 76/4/1 75/2/1
f 76/4/2 80/6/2 79/5/2
f 80/6/3 78/8/3 77/7/3
f 78/8/4 74/14/4 73/9/4
f 79/5/5 77/7/5 73/10/5
f 76/12/6 74/15/6 78/8/6
f 82/1/1 84/4/1 83/2/1
f 84/4/2 88/6/2 87/5/2
f 88/6/3 86/8/3 85/7/3
f 86/8/4 82/14/4 81/9/4
f 87/5/5 85/7/5 81/10/5
f 84/12/6 82/15/6 86/8/6
usemtl Material
f 13/13/6 11/13/6 9/13/6
f 11/13/4 16/13/4 12/13/4
f 15/13/1 14/13/1 16/13/1
f 10/13/5 16/13/5 14/13/5
f 9/13/3 12/13/3 10/13/3
f 13/13/2 10/13/2 14/13/2
f 13/13/6 15/13/6 11/13/6
f 11/13/4 15/13/4 16/13/4
f 15/13/1 13/13/1 14/13/1
f 10/13/5 12/13/5 16/13/5
f 9/13/3 11/13/3 12/13/3
f 13/13/2 9/13/2 10/13/2
