# Blender 5.1.2
# www.blender.org
mtllib stage.mtl
o 円柱
v -0.000019 -5.405065 85.946167
v -0.000022 -1.376683 58.113037
v -13.656342 -5.405065 84.601135
v -9.754539 -1.376683 57.152283
v -13.656342 33.894936 84.601135
v -26.787861 -5.405065 80.617737
v -19.134193 -1.376683 54.307007
v -26.787861 33.894936 80.617737
v -38.889935 -5.405065 74.149048
v -27.778536 -1.376683 49.686508
v -38.889935 33.894936 74.149048
v -49.497494 -5.405065 65.443634
v -35.355362 -1.376683 43.468353
v -49.497494 33.894936 65.443634
v -58.202896 -5.405065 54.836090
v -41.573505 -1.376683 35.891541
v -58.202896 33.894936 54.836090
v -64.671585 -5.405065 42.734009
v -46.194000 -1.376683 27.247192
v -64.671585 33.894936 42.734009
v -68.654991 -5.405065 29.602478
v -49.039291 -1.376683 17.867554
v -68.654991 33.894936 29.602478
v -70.000023 -5.405065 15.946167
v -50.000027 -1.376683 8.113037
v -70.000023 33.894936 15.946167
v -68.654991 -5.405065 2.289856
v -49.039291 -1.376683 -1.641479
v -68.654991 33.894936 2.289856
v -46.194004 -1.376683 -11.021149
v -64.671593 -5.405065 -10.841675
v -64.671593 33.894936 -10.841675
v -58.202904 -5.405065 -22.943756
v -41.573509 -1.376683 -19.665497
v -58.202904 33.894936 -22.943756
v -49.497505 -5.405065 -33.551300
v -35.355370 -1.376683 -27.242310
v -49.497505 33.894936 -33.551300
v -38.889946 -5.405065 -42.256714
v -27.778543 -1.376683 -33.460449
v -38.889946 33.894936 -42.256714
v -26.787872 -5.405065 -48.725403
v -19.134203 -1.376683 -38.080963
v -26.787872 33.894936 -48.725403
v -9.754547 -1.376683 -40.926239
v -13.656354 -5.405065 -52.708801
v -13.656354 33.894936 -52.708801
v -0.000031 -5.405065 -54.053833
v -0.000030 -1.376683 -41.886963
v -0.000031 33.894936 -54.053833
v 13.656291 -5.405065 -52.708801
v 9.754486 -1.376683 -40.926239
v 13.656291 33.894936 -52.708801
v 26.787811 -5.405065 -48.725403
v 19.134142 -1.376683 -38.080963
v 26.787811 33.894936 -48.725403
v 38.889885 -5.405065 -42.256714
v 27.778482 -1.376683 -33.460449
v 38.889885 33.894936 -42.256714
v 49.497444 -5.405065 -33.551300
v 35.355309 -1.376683 -27.242310
v 49.497444 33.894936 -33.551300
v 58.202843 -5.405065 -22.943756
v 41.573456 -1.376683 -19.665497
v 58.202843 33.894936 -22.943756
v 64.671532 -5.405065 -10.841675
v 46.193951 -1.376683 -11.021149
v 64.671532 33.894936 -10.841675
v 68.654945 -5.405065 2.289856
v 49.039238 -1.376683 -1.641479
v 68.654945 33.894936 2.289856
v 69.999977 -5.405065 15.946167
v 49.999973 -1.376683 8.113037
v 69.999977 33.894936 15.946167
v 68.654945 -5.405065 29.602478
v 49.039238 -1.376683 17.867554
v 68.654945 33.894936 29.602478
v 64.671539 -5.405065 42.734009
v 46.193954 -1.376683 27.247192
v 64.671539 33.894936 42.734009
v 58.202850 -5.405065 54.836090
v 41.573460 -1.376683 35.891541
v 58.202850 33.894936 54.836090
v 49.497456 -5.405065 65.443634
v 35.355316 -1.376683 43.468353
v 49.497456 33.894936 65.443634
v 38.889896 -5.405065 74.149048
v 27.778490 -1.376683 49.686508
v 38.889896 33.894936 74.149048
v 26.787823 -5.405065 80.617737
v 19.134151 -1.376683 54.307007
v 26.787823 33.894936 80.617737
v 13.656303 -5.405065 84.601135
v 9.754495 -1.376683 57.152283
v 13.656303 33.894936 84.601135
v 49.039238 33.894936 -1.641479
v 41.573456 33.894936 -19.665497
v 46.193951 33.894936 -11.021149
v -0.000030 33.894936 -41.886963
v -9.754547 33.894936 -40.926239
v -27.778543 33.894936 -33.460449
v -35.355370 33.894936 -27.242310
v -19.134203 33.894936 -38.080963
v 49.999973 33.894936 8.113037
v 49.039238 33.894936 17.867554
v 46.193954 33.894936 27.247192
v 41.573460 33.894936 35.891541
v 35.355309 33.894936 -27.242310
v 35.355316 33.894936 43.468353
v 21.790592 33.894936 -36.661041
v 27.778482 33.894936 -33.460449
v 19.134151 33.894936 54.307007
v 27.778490 33.894936 49.686508
v 19.134142 33.894936 -38.080963
v 9.754486 33.894936 -40.926239
v -19.134193 33.894936 54.307007
v -35.355362 33.894936 43.468353
v -27.778536 33.894936 49.686508
v -41.573509 33.894936 -19.665497
v -50.000027 33.894936 8.113037
v -49.039291 33.894936 -1.641479
v -49.039291 33.894936 17.867554
v -46.194004 33.894936 -11.021149
v -46.194000 33.894936 27.247192
v -41.573505 33.894936 35.891541
v -12.000019 33.894936 84.764267
v -0.000019 -0.407668 85.946167
v -12.000019 -0.407668 84.764267
v 11.999981 33.894936 84.764267
v 11.999978 33.894936 56.471130
v -12.000022 33.894936 56.471130
v 11.999981 -0.407668 84.764267
v -0.000022 -0.407668 58.113037
v -9.754539 -0.407668 57.152283
v -12.000022 -0.407668 56.471130
v 11.999978 -0.407668 56.471130
v 9.754495 -0.407668 57.152283
v 104.999992 -1.000000 199.925415
v 104.999992 -0.400000 199.925415
v 105.000008 -1.000000 409.925415
v 105.000008 -0.400000 409.925415
v -105.000008 -1.000000 199.925415
v -105.000008 -0.400000 199.925415
v -104.999992 -1.000000 409.925415
v -104.999992 -0.400000 409.925415
v 108.499992 -1.000000 199.925415
v 108.499992 47.000000 199.925415
v 108.500008 -1.000000 409.925415
v 108.500008 47.000000 409.925415
v 104.999992 -1.000000 199.925415
v 104.999992 47.000000 199.925415
v 105.000008 -1.000000 409.925415
v 105.000008 47.000000 409.925415
v -105.000008 -1.000000 199.925415
v -105.000008 47.000000 199.925415
v -104.999992 -1.000000 409.925415
v -104.999992 47.000000 409.925415
v -108.500008 -1.000000 199.925415
v -108.500008 47.000000 199.925415
v -108.499992 -1.000000 409.925415
v -108.499992 47.000000 409.925415
v -107.999992 -1.000000 408.175415
v -107.999992 47.000000 408.175415
v 108.000008 -1.000000 408.175415
v 108.000008 47.000000 408.175415
v -107.999992 -1.000000 411.675415
v -107.999992 47.000000 411.675415
v 108.000008 -1.000000 411.675415
v 108.000008 47.000000 411.675415
v 15.999980 -1.000000 81.183563
v 15.999980 -0.400000 81.183563
v 15.999990 -1.000000 201.183563
v 15.999990 -0.400000 201.183563
v -16.000019 -1.000000 81.183563
v -16.000019 -0.400000 81.183563
v -16.000010 -1.000000 201.183563
v -16.000010 -0.400000 201.183563
v -105.000008 -1.000000 197.848312
v -105.000008 47.000000 197.848312
v -15.000010 -1.000000 197.848297
v -15.000010 47.000000 197.848297
v -105.000008 -1.000000 201.348312
v -105.000008 47.000000 201.348312
v -15.000009 -1.000000 201.348297
v -15.000009 47.000000 201.348297
v 14.999990 -1.000000 197.848297
v 14.999990 47.000000 197.848297
v 104.999992 -1.000000 197.848282
v 104.999992 47.000000 197.848282
v 14.999991 -1.000000 201.348297
v 14.999991 47.000000 201.348297
v 104.999992 -1.000000 201.348282
v 104.999992 47.000000 201.348282
v -16.888605 -1.000000 201.368439
v -16.888605 47.000000 201.368439
v -16.888630 -1.000000 81.368439
v -16.888630 47.000000 81.368439
v -13.388604 -1.000000 201.368439
v -13.388604 47.000000 201.368439
v -13.388630 -1.000000 81.368439
v -13.388630 47.000000 81.368439
v 14.032584 -1.000000 201.368439
v 14.032584 47.000000 201.368439
v 14.032558 -1.000000 81.368439
v 14.032558 47.000000 81.368439
v 17.532583 -1.000000 201.368439
v 17.532583 47.000000 201.368439
v 17.532558 -1.000000 81.368439
v 17.532558 47.000000 81.368439
vn -0.0980 -0.0000 0.9952
vn -0.2903 -0.0000 0.9569
vn -0.4714 -0.0000 0.8819
vn -0.6344 -0.0000 0.7730
vn -0.7730 -0.0000 0.6344
vn -0.8819 -0.0000 0.4714
vn -0.9569 -0.0000 0.2903
vn -0.9952 -0.0000 0.0980
vn -0.9952 -0.0000 -0.0980
vn -0.9569 -0.0000 -0.2903
vn -0.8819 -0.0000 -0.4714
vn -0.7730 -0.0000 -0.6344
vn -0.6344 -0.0000 -0.7730
vn -0.4714 -0.0000 -0.8819
vn -0.2903 -0.0000 -0.9569
vn -0.0980 -0.0000 -0.9952
vn 0.0980 -0.0000 -0.9952
vn 0.2903 -0.0000 -0.9569
vn 0.4714 -0.0000 -0.8819
vn 0.6344 -0.0000 -0.7730
vn 0.7730 -0.0000 -0.6344
vn 0.8819 -0.0000 -0.4714
vn 0.9569 -0.0000 -0.2903
vn 0.9952 -0.0000 -0.0980
vn 0.9952 -0.0000 0.0980
vn 0.9569 -0.0000 0.2903
vn 0.8819 -0.0000 0.4714
vn 0.7730 -0.0000 0.6344
vn 0.6344 -0.0000 0.7730
vn 0.4714 -0.0000 0.8819
vn -0.0000 1.0000 -0.0000
vn 0.2903 -0.0000 0.9569
vn 0.0980 -0.0000 0.9952
vn -0.0000 -1.0000 -0.0000
vn -1.0000 -0.0000 -0.0000
vn 1.0000 -0.0000 -0.0000
vn -0.0000 -0.0000 1.0000
vn -0.0000 -0.0000 -1.0000
vt 0.968750 0.500000
vt 1.000000 0.563580
vt 0.972540 0.563580
vt 0.968750 1.000000
vt 0.937500 0.500000
vt 0.937500 1.000000
vt 0.906250 0.500000
vt 0.906250 1.000000
vt 0.875000 0.500000
vt 0.875000 1.000000
vt 0.843750 0.500000
vt 0.843750 1.000000
vt 0.812500 0.500000
vt 0.812500 1.000000
vt 0.781250 0.500000
vt 0.781250 1.000000
vt 0.750000 0.500000
vt 0.750000 1.000000
vt 0.718750 0.500000
vt 0.718750 1.000000
vt 0.687500 0.500000
vt 0.687500 1.000000
vt 0.656250 0.500000
vt 0.656250 1.000000
vt 0.625000 0.500000
vt 0.625000 1.000000
vt 0.593750 0.500000
vt 0.593750 1.000000
vt 0.562500 0.500000
vt 0.562500 1.000000
vt 0.531250 0.500000
vt 0.531250 1.000000
vt 0.500000 0.500000
vt 0.500000 1.000000
vt 0.468750 0.500000
vt 0.468750 1.000000
vt 0.437500 0.500000
vt 0.437500 1.000000
vt 0.406250 0.500000
vt 0.406250 1.000000
vt 0.375000 0.500000
vt 0.375000 1.000000
vt 0.343750 0.500000
vt 0.343750 1.000000
vt 0.312500 0.500000
vt 0.312500 1.000000
vt 0.281250 0.500000
vt 0.281250 1.000000
vt 0.250000 0.500000
vt 0.250000 1.000000
vt 0.218750 0.500000
vt 0.218750 1.000000
vt 0.187500 0.500000
vt 0.187500 1.000000
vt 0.156250 0.500000
vt 0.156250 1.000000
vt 0.125000 0.500000
vt 0.125000 1.000000
vt 0.093750 0.500000
vt 0.093750 1.000000
vt 0.062500 0.500000
vt 0.028269 0.158156
vt 0.081865 0.256588
vt 0.091621 0.288746
vt 0.418135 0.256588
vt 0.421429 0.223144
vt 0.490000 0.250000
vt 0.158156 0.028269
vt 0.341844 0.028269
vt 0.216556 0.055009
vt 0.062500 1.000000
vt 0.031250 0.500000
vt 0.027460 1.000000
vt 0.027460 0.563580
vt 0.883337 0.050447
vt 0.550447 0.116663
vt 0.616663 0.449553
vt 1.000000 0.500000
vt 0.968750 0.504845
vt 1.000000 0.504845
vt 0.961269 0.676358
vt 0.961269 0.504845
vt 0.906250 0.676358
vt 0.937500 0.676358
vt 0.875000 0.676358
vt 0.843750 0.676358
vt 0.812500 0.676358
vt 0.781250 0.676358
vt 0.750000 0.676358
vt 0.718750 0.676358
vt 0.687500 0.676358
vt 0.656250 0.676358
vt 0.625000 0.676358
vt 0.593750 0.676358
vt 0.562500 0.676358
vt 0.531250 0.676358
vt 0.500000 0.676358
vt 0.468750 0.676358
vt 0.406250 0.676358
vt 0.427897 0.676358
vt 0.343750 0.676358
vt 0.375000 0.676358
vt 0.312500 0.676358
vt 0.281250 0.676358
vt 0.250000 0.676358
vt 0.218750 0.676358
vt 0.187500 0.676358
vt 0.156250 0.676358
vt 0.125000 0.676358
vt 0.093750 0.676358
vt 0.062500 0.676358
vt 0.031250 0.504845
vt 0.038731 0.504845
vt 0.000000 0.504845
vt 0.985388 0.296822
vt 0.703178 0.485388
vt 0.514612 0.203178
vt 0.375000 0.092868
vt 0.460757 0.022135
vt 0.375000 0.022135
vt 0.375000 0.727865
vt 0.460757 0.657132
vt 0.375000 0.657132
vt 0.125000 0.657132
vt 0.250000 0.723760
vt 0.625000 0.000000
vt 0.375000 0.250000
vt 0.375000 0.000000
vt 0.625000 0.250000
vt 0.375000 0.750000
vt 0.625000 0.750000
vt 0.125000 0.750000
vt 0.972540 1.000000
vt 0.208857 0.485948
vt 0.203178 0.485388
vt 0.158156 0.471731
vt 0.116663 0.449553
vt 0.080294 0.419706
vt 0.050447 0.383337
vt 0.028269 0.341844
vt 0.014612 0.296822
vt 0.010000 0.250000
vt 0.014612 0.203178
vt 0.050447 0.116663
vt 0.080294 0.080294
vt 0.116663 0.050447
vt 0.175289 0.069632
vt 0.154759 0.080606
vt 0.128782 0.101925
vt 0.208857 0.388943
vt 0.184397 0.381523
vt 0.107462 0.127903
vt 0.154759 0.365681
vt 0.128782 0.344362
vt 0.091621 0.157541
vt 0.081865 0.189699
vt 0.107462 0.318384
vt 0.078571 0.223143
vt 0.345241 0.080606
vt 0.315603 0.064764
vt 0.383337 0.050447
vt 0.419706 0.080294
vt 0.449553 0.116663
vt 0.471731 0.158156
vt 0.485388 0.203178
vt 0.485388 0.296822
vt 0.471731 0.341844
vt 0.449553 0.383337
vt 0.419706 0.419706
vt 0.383337 0.449553
vt 0.341844 0.471731
vt 0.296822 0.485388
vt 0.291143 0.485948
vt 0.291143 0.388943
vt 0.315603 0.381523
vt 0.345241 0.365681
vt 0.371218 0.101925
vt 0.371218 0.344362
vt 0.392538 0.318384
vt 0.392538 0.127903
vt 0.408379 0.157541
vt 0.408379 0.288746
vt 0.418135 0.189699
vt 0.184397 0.064764
vt 0.203178 0.014612
vt 0.250000 0.010000
vt 0.296822 0.014612
vt 0.283444 0.055009
vt 0.250000 0.051715
vt 0.031250 1.000000
vt 0.000000 0.563580
vt 0.000000 0.500000
vt 0.658156 0.471731
vt 0.750000 0.490000
vt 0.796822 0.485388
vt 0.841844 0.471731
vt 0.883337 0.449553
vt 0.919706 0.419706
vt 0.949553 0.383337
vt 0.971731 0.341844
vt 0.990000 0.250000
vt 0.985388 0.203178
vt 0.971731 0.158156
vt 0.949553 0.116663
vt 0.919706 0.080294
vt 0.841844 0.028269
vt 0.796822 0.014612
vt 0.750000 0.010000
vt 0.703178 0.014612
vt 0.658156 0.028269
vt 0.616663 0.050447
vt 0.580294 0.080294
vt 0.528269 0.158156
vt 0.510000 0.250000
vt 0.514612 0.296822
vt 0.528269 0.341844
vt 0.550447 0.383337
vt 0.580294 0.419706
vt 0.437500 0.676358
vt 0.038731 0.676358
vt 0.460757 0.092868
vt 0.460756 0.727865
vt 0.351610 0.726162
vt 0.250000 0.654177
vt 0.125000 0.727865
vt 0.148390 0.726162
vt 0.875000 0.750000
s 0
usemtl マテリアル.001
f 3/1/1 127/2/1 128/3/1
f 5/4/2 6/5/2 3/1/2
f 8/6/3 9/7/3 6/5/3
f 11/8/4 12/9/4 9/7/4
f 14/10/5 15/11/5 12/9/5
f 17/12/6 18/13/6 15/11/6
f 20/14/7 21/15/7 18/13/7
f 23/16/8 24/17/8 21/15/8
f 26/18/9 27/19/9 24/17/9
f 29/20/10 31/21/10 27/19/10
f 32/22/11 33/23/11 31/21/11
f 35/24/12 36/25/12 33/23/12
f 38/26/13 39/27/13 36/25/13
f 41/28/14 42/29/14 39/27/14
f 44/30/15 46/31/15 42/29/15
f 47/32/16 48/33/16 46/31/16
f 50/34/17 51/35/17 48/33/17
f 53/36/18 54/37/18 51/35/18
f 56/38/19 57/39/19 54/37/19
f 59/40/20 60/41/20 57/39/20
f 62/42/21 63/43/21 60/41/21
f 65/44/22 66/45/22 63/43/22
f 68/46/23 69/47/23 66/45/23
f 71/48/24 72/49/24 69/47/24
f 74/50/25 75/51/25 72/49/25
f 77/52/26 78/53/26 75/51/26
f 80/54/27 81/55/27 78/53/27
f 83/56/28 84/57/28 81/55/28
f 86/58/29 87/59/29 84/57/29
f 89/60/30 90/61/30 87/59/30
f 68/62/31 105/63/31 106/64/31
f 122/65/31 120/66/31 26/67/31
f 56/68/31 44/69/31 115/70/31
f 92/71/32 93/72/32 90/61/32
f 93/72/33 129/73/33 132/74/33
f 39/75/34 63/76/34 87/77/34
f 2/78/17 134/79/17 133/80/17
f 7/5/18 131/81/18 135/82/18
f 7/5/19 118/83/19 116/84/19
f 10/7/20 117/85/20 118/83/20
f 16/11/21 117/85/21 13/9/21
f 19/13/22 125/86/22 16/11/22
f 22/15/23 124/87/23 19/13/23
f 25/17/24 122/88/24 22/15/24
f 28/19/25 120/89/25 25/17/25
f 30/21/26 121/90/26 28/19/26
f 34/23/27 123/91/27 30/21/27
f 37/25/28 119/92/28 34/23/28
f 40/27/29 102/93/29 37/25/29
f 43/29/30 101/94/30 40/27/30
f 45/31/32 103/95/32 43/29/32
f 49/33/33 100/96/33 45/31/33
f 52/35/1 99/97/1 49/33/1
f 55/37/2 115/98/2 52/35/2
f 55/37/3 111/99/3 110/100/3
f 61/41/4 111/99/4 58/39/4
f 61/41/5 97/101/5 108/102/5
f 64/43/6 98/103/6 97/101/6
f 67/45/7 96/104/7 98/103/7
f 70/47/8 104/105/8 96/104/8
f 73/49/9 105/106/9 104/105/9
f 76/51/10 106/107/10 105/106/10
f 79/53/11 107/108/11 106/107/11
f 82/55/12 109/109/12 107/108/12
f 85/57/13 113/110/13 109/109/13
f 88/59/14 112/111/14 113/110/14
f 91/61/15 137/112/15 136/113/15
f 94/72/16 133/114/16 137/112/16
f 22/115/31 94/116/31 70/117/31
f 132/118/35 130/119/35 136/120/35
f 135/121/36 126/122/36 128/123/36
f 128/123/31 132/124/31 133/125/31
f 147/126/36 148/127/36 146/128/36
f 149/129/37 152/41/37 148/127/37
f 153/25/35 150/130/35 152/41/35
f 151/131/38 146/42/38 150/130/38
f 152/41/34 146/132/34 148/57/34
f 149/9/31 151/131/31 153/25/31
f 155/126/36 156/127/36 154/128/36
f 157/129/37 160/41/37 156/127/37
f 161/25/35 158/130/35 160/41/35
f 159/131/38 154/42/38 158/130/38
f 160/41/34 154/132/34 156/57/34
f 157/9/31 159/131/31 161/25/31
f 163/126/38 164/127/38 162/128/38
f 165/129/36 168/41/36 164/127/36
f 169/25/37 166/130/37 168/41/37
f 167/131/35 162/42/35 166/130/35
f 168/41/34 162/132/34 164/57/34
f 165/9/31 167/131/31 169/25/31
f 171/126/36 172/127/36 170/128/36
f 173/129/37 176/41/37 172/127/37
f 177/25/35 174/130/35 176/41/35
f 175/131/38 170/42/38 174/130/38
f 176/41/34 170/132/34 172/57/34
f 173/9/31 175/131/31 177/25/31
f 179/126/38 180/127/38 178/128/38
f 181/129/36 184/41/36 180/127/36
f 185/25/37 182/130/37 184/41/37
f 183/131/35 178/42/35 182/130/35
f 184/41/34 178/132/34 180/57/34
f 181/9/31 183/131/31 185/25/31
f 187/126/38 188/127/38 186/128/38
f 189/129/36 192/41/36 188/127/36
f 193/25/37 190/130/37 192/41/37
f 191/131/35 186/42/35 190/130/35
f 192/41/34 186/132/34 188/57/34
f 189/9/31 191/131/31 193/25/31
f 195/126/35 196/127/35 194/128/35
f 197/129/38 200/41/38 196/127/38
f 201/25/36 198/130/36 200/41/36
f 199/131/37 194/42/37 198/130/37
f 200/41/34 194/132/34 196/57/34
f 197/9/31 199/131/31 201/25/31
f 203/126/35 204/127/35 202/128/35
f 205/129/38 208/41/38 204/127/38
f 209/25/36 206/130/36 208/41/36
f 207/131/37 202/42/37 206/130/37
f 208/41/34 202/132/34 204/57/34
f 205/9/31 207/131/31 209/25/31
f 126/133/1 5/4/1 3/1/1
f 3/1/1 1/78/1 127/2/1
f 128/3/1 126/133/1 3/1/1
f 5/4/2 8/6/2 6/5/2
f 8/6/3 11/8/3 9/7/3
f 11/8/4 14/10/4 12/9/4
f 14/10/5 17/12/5 15/11/5
f 17/12/6 20/14/6 18/13/6
f 20/14/7 23/16/7 21/15/7
f 23/16/8 26/18/8 24/17/8
f 26/18/9 29/20/9 27/19/9
f 29/20/10 32/22/10 31/21/10
f 32/22/11 35/24/11 33/23/11
f 35/24/12 38/26/12 36/25/12
f 38/26/13 41/28/13 39/27/13
f 41/28/14 44/30/14 42/29/14
f 44/30/15 47/32/15 46/31/15
f 47/32/16 50/34/16 48/33/16
f 50/34/17 53/36/17 51/35/17
f 53/36/18 56/38/18 54/37/18
f 56/38/19 59/40/19 57/39/19
f 59/40/20 62/42/20 60/41/20
f 62/42/21 65/44/21 63/43/21
f 65/44/22 68/46/22 66/45/22
f 68/46/23 71/48/23 69/47/23
f 71/48/24 74/50/24 72/49/24
f 74/50/25 77/52/25 75/51/25
f 77/52/26 80/54/26 78/53/26
f 80/54/27 83/56/27 81/55/27
f 83/56/28 86/58/28 84/57/28
f 86/58/29 89/60/29 87/59/29
f 89/60/30 92/71/30 90/61/30
f 129/134/31 95/135/31 92/136/31
f 92/136/31 89/137/31 86/138/31
f 86/138/31 83/139/31 80/140/31
f 80/140/31 77/141/31 74/142/31
f 74/142/31 71/143/31 68/62/31
f 68/62/31 65/144/31 62/145/31
f 62/145/31 59/146/31 56/68/31
f 56/68/31 110/147/31 111/148/31
f 56/68/31 111/148/31 108/149/31
f 68/62/31 62/145/31 56/68/31
f 80/140/31 74/142/31 68/62/31
f 92/136/31 86/138/31 80/140/31
f 130/150/31 129/134/31 92/136/31
f 112/151/31 130/150/31 92/136/31
f 92/136/31 80/140/31 68/62/31
f 68/62/31 56/68/31 108/149/31
f 68/62/31 108/149/31 97/152/31
f 113/153/31 112/151/31 92/136/31
f 109/154/31 113/153/31 92/136/31
f 68/62/31 97/152/31 98/155/31
f 68/62/31 98/155/31 96/156/31
f 107/157/31 109/154/31 92/136/31
f 106/64/31 107/157/31 92/136/31
f 68/62/31 96/156/31 104/158/31
f 68/62/31 104/158/31 105/63/31
f 106/64/31 92/136/31 68/62/31
f 101/159/31 103/160/31 44/69/31
f 44/69/31 41/161/31 38/162/31
f 38/162/31 35/163/31 32/164/31
f 32/164/31 29/165/31 26/67/31
f 26/67/31 23/166/31 20/167/31
f 20/167/31 17/168/31 14/169/31
f 14/169/31 11/170/31 8/171/31
f 8/171/31 5/172/31 126/173/31
f 126/173/31 131/174/31 116/175/31
f 126/173/31 116/175/31 118/176/31
f 14/169/31 8/171/31 126/173/31
f 26/67/31 20/167/31 14/169/31
f 38/162/31 32/164/31 26/67/31
f 101/159/31 44/69/31 38/162/31
f 102/177/31 101/159/31 38/162/31
f 26/67/31 14/169/31 126/173/31
f 126/173/31 118/176/31 117/178/31
f 126/173/31 117/178/31 125/179/31
f 119/180/31 102/177/31 38/162/31
f 123/181/31 119/180/31 38/162/31
f 26/67/31 126/173/31 125/179/31
f 26/67/31 125/179/31 124/182/31
f 123/181/31 38/162/31 26/67/31
f 121/183/31 123/181/31 26/67/31
f 26/67/31 124/182/31 122/65/31
f 120/66/31 121/183/31 26/67/31
f 114/184/31 110/147/31 56/68/31
f 56/68/31 53/185/31 50/186/31
f 50/186/31 47/187/31 44/69/31
f 44/69/31 103/160/31 100/188/31
f 44/69/31 100/188/31 99/189/31
f 56/68/31 50/186/31 44/69/31
f 115/70/31 114/184/31 56/68/31
f 44/69/31 99/189/31 115/70/31
f 92/71/32 95/190/32 93/72/32
f 127/191/33 1/192/33 93/72/33
f 93/72/33 95/190/33 129/73/33
f 132/74/33 127/191/33 93/72/33
f 87/77/34 90/193/34 93/116/34
f 93/116/34 1/194/34 3/195/34
f 3/195/34 6/196/34 9/197/34
f 9/197/34 12/198/34 15/199/34
f 15/199/34 18/200/34 21/115/34
f 21/115/34 24/201/34 27/202/34
f 27/202/34 31/203/34 33/204/34
f 33/204/34 36/205/34 39/75/34
f 39/75/34 42/206/34 46/207/34
f 46/207/34 48/208/34 51/209/34
f 51/209/34 54/210/34 57/211/34
f 57/211/34 60/212/34 63/76/34
f 63/76/34 66/213/34 69/117/34
f 69/117/34 72/214/34 75/215/34
f 75/215/34 78/216/34 81/217/34
f 81/217/34 84/218/34 87/77/34
f 87/77/34 93/116/34 3/195/34
f 3/195/34 9/197/34 15/199/34
f 15/199/34 21/115/34 27/202/34
f 27/202/34 33/204/34 39/75/34
f 39/75/34 46/207/34 51/209/34
f 51/209/34 57/211/34 63/76/34
f 63/76/34 69/117/34 75/215/34
f 75/215/34 81/217/34 87/77/34
f 87/77/34 3/195/34 15/199/34
f 15/199/34 27/202/34 39/75/34
f 39/75/34 51/209/34 63/76/34
f 63/76/34 75/215/34 87/77/34
f 87/77/34 15/199/34 39/75/34
f 2/78/17 4/1/17 134/79/17
f 135/82/18 134/79/18 4/1/18
f 7/5/18 116/84/18 131/81/18
f 135/82/18 4/1/18 7/5/18
f 7/5/19 10/7/19 118/83/19
f 10/7/20 13/9/20 117/85/20
f 16/11/21 125/86/21 117/85/21
f 19/13/22 124/87/22 125/86/22
f 22/15/23 122/88/23 124/87/23
f 25/17/24 120/89/24 122/88/24
f 28/19/25 121/90/25 120/89/25
f 30/21/26 123/91/26 121/90/26
f 34/23/27 119/92/27 123/91/27
f 37/25/28 102/93/28 119/92/28
f 40/27/29 101/94/29 102/93/29
f 43/29/30 103/95/30 101/94/30
f 45/31/32 100/96/32 103/95/32
f 49/33/33 99/97/33 100/96/33
f 52/35/1 115/98/1 99/97/1
f 55/37/2 114/219/2 115/98/2
f 110/100/3 114/219/3 55/37/3
f 55/37/3 58/39/3 111/99/3
f 61/41/4 108/102/4 111/99/4
f 61/41/5 64/43/5 97/101/5
f 64/43/6 67/45/6 98/103/6
f 67/45/7 70/47/7 96/104/7
f 70/47/8 73/49/8 104/105/8
f 73/49/9 76/51/9 105/106/9
f 76/51/10 79/53/10 106/107/10
f 79/53/11 82/55/11 107/108/11
f 82/55/12 85/57/12 109/109/12
f 85/57/13 88/59/13 113/110/13
f 88/59/14 91/61/14 112/111/14
f 136/113/15 130/220/15 112/111/15
f 91/61/15 94/72/15 137/112/15
f 136/113/15 112/111/15 91/61/15
f 94/72/16 2/192/16 133/114/16
f 70/117/31 67/213/31 64/76/31
f 64/76/31 61/212/31 58/211/31
f 58/211/31 55/210/31 52/209/31
f 52/209/31 49/208/31 45/207/31
f 45/207/31 43/206/31 40/75/31
f 40/75/31 37/205/31 34/204/31
f 34/204/31 30/203/31 28/202/31
f 28/202/31 25/201/31 22/115/31
f 22/115/31 19/200/31 16/199/31
f 16/199/31 13/198/31 10/197/31
f 10/197/31 7/196/31 4/195/31
f 4/195/31 2/194/31 94/116/31
f 94/116/31 91/193/31 88/77/31
f 88/77/31 85/218/31 82/217/31
f 82/217/31 79/216/31 76/215/31
f 76/215/31 73/214/31 70/117/31
f 70/117/31 64/76/31 58/211/31
f 58/211/31 52/209/31 45/207/31
f 45/207/31 40/75/31 34/204/31
f 34/204/31 28/202/31 22/115/31
f 22/115/31 16/199/31 10/197/31
f 10/197/31 4/195/31 94/116/31
f 94/116/31 88/77/31 82/217/31
f 82/217/31 76/215/31 70/117/31
f 70/117/31 58/211/31 45/207/31
f 45/207/31 34/204/31 22/115/31
f 22/115/31 10/197/31 94/116/31
f 94/116/31 82/217/31 70/117/31
f 70/117/31 45/207/31 22/115/31
f 132/118/35 129/221/35 130/119/35
f 135/121/36 131/222/36 126/122/36
f 134/223/31 135/121/31 128/123/31
f 128/123/31 127/224/31 132/124/31
f 132/124/31 136/225/31 137/226/31
f 133/125/31 134/223/31 128/123/31
f 132/124/31 137/226/31 133/125/31
f 147/126/36 149/129/36 148/127/36
f 149/129/37 153/25/37 152/41/37
f 153/25/35 151/131/35 150/130/35
f 151/131/38 147/26/38 146/42/38
f 152/41/34 150/130/34 146/132/34
f 149/9/31 147/227/31 151/131/31
f 155/126/36 157/129/36 156/127/36
f 157/129/37 161/25/37 160/41/37
f 161/25/35 159/131/35 158/130/35
f 159/131/38 155/26/38 154/42/38
f 160/41/34 158/130/34 154/132/34
f 157/9/31 155/227/31 159/131/31
f 163/126/38 165/129/38 164/127/38
f 165/129/36 169/25/36 168/41/36
f 169/25/37 167/131/37 166/130/37
f 167/131/35 163/26/35 162/42/35
f 168/41/34 166/130/34 162/132/34
f 165/9/31 163/227/31 167/131/31
f 171/126/36 173/129/36 172/127/36
f 173/129/37 177/25/37 176/41/37
f 177/25/35 175/131/35 174/130/35
f 175/131/38 171/26/38 170/42/38
f 176/41/34 174/130/34 170/132/34
f 173/9/31 171/227/31 175/131/31
f 179/126/38 181/129/38 180/127/38
f 181/129/36 185/25/36 184/41/36
f 185/25/37 183/131/37 182/130/37
f 183/131/35 179/26/35 178/42/35
f 184/41/34 182/130/34 178/132/34
f 181/9/31 179/227/31 183/131/31
f 187/126/38 189/129/38 188/127/38
f 189/129/36 193/25/36 192/41/36
f 193/25/37 191/131/37 190/130/37
f 191/131/35 187/26/35 186/42/35
f 192/41/34 190/130/34 186/132/34
f 189/9/31 187/227/31 191/131/31
f 195/126/35 197/129/35 196/127/35
f 197/129/38 201/25/38 200/41/38
f 201/25/36 199/131/36 198/130/36
f 199/131/37 195/26/37 194/42/37
f 200/41/34 198/130/34 194/132/34
f 197/9/31 195/227/31 199/131/31
f 203/126/35 205/129/35 204/127/35
f 205/129/38 209/25/38 208/41/38
f 209/25/36 207/131/36 206/130/36
f 207/131/37 203/26/37 202/42/37
f 208/41/34 206/130/34 202/132/34
f 205/9/31 203/227/31 207/131/31
usemtl マテリアル
f 139/126/36 140/127/36 138/128/36
f 141/129/37 144/41/37 140/127/37
f 145/25/35 142/130/35 144/41/35
f 143/131/38 138/42/38 142/130/38
f 144/41/34 138/132/34 140/57/34
f 141/9/31 143/131/31 145/25/31
f 139/126/36 141/129/36 140/127/36
f 141/129/37 145/25/37 144/41/37
f 145/25/35 143/131/35 142/130/35
f 143/131/38 139/26/38 138/42/38
f 144/41/34 142/130/34 138/132/34
f 141/9/31 139/227/31 143/131/31
