# Blender 5.0.1
# www.blender.org
mtllib sword.mtl
o Sword
v -0.981108 1.344072 -0.447095
v -0.354543 1.368770 -0.559421
v -0.667826 1.356422 -0.503258
v -1.153253 1.735542 -3.118544
v -0.051100 1.298519 -0.459113
v -1.224621 1.252257 -0.248735
v -1.191948 1.709619 -3.349216
v -0.637861 1.275387 -0.353924
v -0.894440 1.693427 -2.809952
v -0.923640 1.700011 -2.857201
v -0.972384 1.709114 -2.923270
v -1.023510 1.717621 -2.985502
v -1.075015 1.725313 -3.042235
v -1.126204 1.732135 -3.093045
v -0.736507 1.645143 -2.871547
v -1.193185 1.709552 -3.348871
v -0.788155 1.656760 -2.954923
v -0.843461 1.667060 -3.029697
v -0.899939 1.676431 -3.098263
v -0.957109 1.684942 -3.161056
v -1.014815 1.692607 -3.218156
v -1.073074 1.699401 -3.269393
v -1.132126 1.705232 -3.314168
v -1.282154 1.678459 -2.742584
v -1.166896 1.730556 -3.085917
v -1.196541 1.720586 -3.020884
v -1.224369 1.709815 -2.950247
v -1.249883 1.698340 -2.874644
v -1.271806 1.686515 -2.796339
v -1.447496 1.617442 -2.746305
v -1.192841 1.709571 -3.348966
v -1.429135 1.631737 -2.841680
v -1.404315 1.645126 -2.930341
v -1.376197 1.657770 -3.013653
v -1.345388 1.669696 -3.091858
v -1.312058 1.680906 -3.164978
v -1.276130 1.691376 -3.232858
v -1.237170 1.701045 -3.295024
v -0.719887 1.623675 -2.724407
v -0.705113 1.602065 -2.576473
v -0.690594 1.580445 -2.428495
v -0.675271 1.558913 -2.281039
v -0.658816 1.537522 -2.134445
v -0.640824 1.516315 -1.988960
v -0.620774 1.495323 -1.844751
v -0.597996 1.474566 -1.701904
v -0.571636 1.454058 -1.560426
v -0.540639 1.433804 -1.420257
v -0.503725 1.413800 -1.281268
v -0.459363 1.394039 -1.143275
v -0.405749 1.374512 -1.006043
v -0.340776 1.355205 -0.869303
v -0.261989 1.336106 -0.732762
v -0.166536 1.317210 -0.596124
v -0.881945 1.677288 -2.699336
v -0.867287 1.655849 -2.552563
v -0.852738 1.634183 -2.404267
v -0.837299 1.612490 -2.255707
v -0.820671 1.590875 -2.107572
v -0.802422 1.569364 -1.960008
v -0.781989 1.547970 -1.813035
v -0.758633 1.526687 -1.666571
v -0.731405 1.505505 -1.520440
v -0.699114 1.484403 -1.374410
v -0.660289 1.463363 -1.228228
v -0.613172 1.442376 -1.081663
v -0.555703 1.421444 -0.934567
v -0.485544 1.400596 -0.786913
v -0.400090 1.379880 -0.638818
v -0.296489 1.359371 -0.490516
v -1.165607 1.277846 -0.417159
v -1.125179 1.302119 -0.578290
v -1.100330 1.325322 -0.733542
v -1.088492 1.347677 -0.884183
v -1.087470 1.369377 -1.031338
v -1.095386 1.390592 -1.175992
v -1.110636 1.411470 -1.318992
v -1.131851 1.432128 -1.461041
v -1.157878 1.452668 -1.602706
v -1.187752 1.473163 -1.744410
v -1.220673 1.493667 -1.886440
v -1.255981 1.514211 -2.028950
v -1.293130 1.534805 -2.171967
v -1.331651 1.555442 -2.315394
v -1.371120 1.576097 -2.459031
v -1.410315 1.596764 -2.602720
v -1.254218 1.662922 -2.634697
v -1.215331 1.642418 -2.492144
v -1.175781 1.621719 -2.348207
v -1.136970 1.600927 -2.203700
v -1.099430 1.580116 -2.059179
v -1.063616 1.559279 -1.914630
v -1.030065 1.538382 -1.769878
v -0.999434 1.517368 -1.624588
v -0.972551 1.496153 -1.478266
v -0.950450 1.474631 -1.330282
v -0.934412 1.452674 -1.179887
v -0.926004 1.430143 -1.026255
v -0.927100 1.406884 -0.868531
v -0.939883 1.382746 -0.705876
v -0.966833 1.357580 -0.537495
v -1.010709 1.331237 -0.362617
v -0.659253 1.349703 -0.456914
v -0.637861 1.275387 -0.353924
v -0.051100 1.298519 -0.459113
v -0.265707 1.365216 -0.527466
v -1.052802 1.334188 -0.386361
v -1.224621 1.252257 -0.248735
v -1.193185 1.709552 -3.348871
v -1.168060 1.746483 -3.194093
v -1.147465 1.744764 -3.180615
v -1.132126 1.705232 -3.314168
v -1.128586 1.742624 -3.164422
v -1.073074 1.699401 -3.269393
v -1.091078 1.738007 -3.129789
v -1.014815 1.692607 -3.218156
v -1.038519 1.730822 -3.076396
v -0.957109 1.684942 -3.161056
v -0.985810 1.722807 -3.017362
v -0.899939 1.676431 -3.098263
v -0.933487 1.713985 -2.952893
v -0.843461 1.667060 -3.029697
v -0.883113 1.704486 -2.883987
v -0.788155 1.656760 -2.954923
v -0.847481 1.696372 -2.825794
v -0.736507 1.645143 -2.871547
v -0.166536 1.317210 -0.596124
v -0.258570 1.364061 -0.518997
v -1.237170 1.701045 -3.295024
v -1.182328 1.743223 -3.173231
v -1.168314 1.746424 -3.193712
v -1.192841 1.709571 -3.348966
v -1.276130 1.691376 -3.232858
v -1.193489 1.739877 -3.151509
v -1.312058 1.680906 -3.164978
v -1.214245 1.733312 -3.108790
v -1.345388 1.669696 -3.091858
v -1.243943 1.722884 -3.040658
v -1.376197 1.657770 -3.013653
v -1.271837 1.711712 -2.967307
v -1.404315 1.645126 -2.930341
v -1.297488 1.699852 -2.889101
v -1.429135 1.631737 -2.841680
v -1.319781 1.687536 -2.807499
v -1.447496 1.617442 -2.746305
v -1.332150 1.677593 -2.741125
v -1.056395 1.332631 -0.376111
v -1.165607 1.277846 -0.417159
v -0.833965 1.678636 -2.704245
v -0.719887 1.623675 -2.724407
v -0.819433 1.657141 -2.557111
v -0.705113 1.602065 -2.576473
v -0.805014 1.635486 -2.408898
v -0.690594 1.580445 -2.428495
v -0.789700 1.613838 -2.260655
v -0.675271 1.558913 -2.281039
v -0.773191 1.592287 -2.112966
v -0.658816 1.537522 -2.134445
v -0.755070 1.570865 -1.966008
v -0.640824 1.516315 -1.988960
v -0.734788 1.549587 -1.819844
v -0.620774 1.495323 -1.844751
v -0.711632 1.528458 -1.674439
v -0.597996 1.474566 -1.701904
v -0.684681 1.507473 -1.529672
v -0.571636 1.454058 -1.560426
v -0.652786 1.486620 -1.385361
v -0.540639 1.433804 -1.420257
v -0.614535 1.465884 -1.241287
v -0.503725 1.413800 -1.281268
v -0.568235 1.445255 -1.097236
v -0.459363 1.394039 -1.143275
v -0.511905 1.424735 -0.953034
v -0.405749 1.374512 -1.006043
v -0.443272 1.404338 -0.808582
v -0.340776 1.355205 -0.869303
v -0.359778 1.384098 -0.663876
v -0.261989 1.336106 -0.732762
v -1.410315 1.596764 -2.602720
v -1.301138 1.660524 -2.622568
v -1.371120 1.576097 -2.459031
v -1.261940 1.639984 -2.479734
v -1.331651 1.555442 -2.315394
v -1.222248 1.619306 -2.335930
v -1.293130 1.534805 -2.171967
v -1.183396 1.598567 -2.191775
v -1.255981 1.514211 -2.028950
v -1.145877 1.577824 -2.047723
v -1.220673 1.493667 -1.886440
v -1.110141 1.557077 -1.903793
v -1.187752 1.473163 -1.744410
v -1.076722 1.536298 -1.759855
v -1.157878 1.452668 -1.602706
v -1.046273 1.515438 -1.615629
v -1.131851 1.432128 -1.461041
v -1.019610 1.494424 -1.470683
v -1.110636 1.411470 -1.318992
v -0.997745 1.473156 -1.324447
v -1.095386 1.390592 -1.175992
v -0.981921 1.451517 -1.176226
v -1.087470 1.369377 -1.031338
v -0.973645 1.429372 -1.025232
v -1.088492 1.347677 -0.884183
v -0.974709 1.406571 -0.870611
v -1.100330 1.325322 -0.733542
v -0.987207 1.382957 -0.711483
v -1.125179 1.302119 -0.578290
v -1.013536 1.358367 -0.546954
v -0.979596 1.227786 -0.464233
v -0.353031 1.252488 -0.576558
v -0.666315 1.240137 -0.520396
v -1.151743 1.619257 -3.135681
v -0.892928 1.577143 -2.827089
v -0.922128 1.583727 -2.874338
v -0.970872 1.592830 -2.940407
v -1.021999 1.601337 -3.002640
v -1.073503 1.609029 -3.059372
v -1.124693 1.615851 -3.110182
v -1.280642 1.562174 -2.759722
v -1.165384 1.614271 -3.103056
v -1.195029 1.604301 -3.038022
v -1.222857 1.593530 -2.967385
v -1.248371 1.582055 -2.891782
v -1.270294 1.570230 -2.813477
v -0.880433 1.561002 -2.716473
v -0.865775 1.539561 -2.569701
v -0.851226 1.517895 -2.421405
v -0.835787 1.496201 -2.272845
v -0.819159 1.474585 -2.124711
v -0.800910 1.453075 -1.977146
v -0.780477 1.431681 -1.830174
v -0.757121 1.410399 -1.683710
v -0.729894 1.389217 -1.537579
v -0.697602 1.368116 -1.391548
v -0.658777 1.347077 -1.245365
v -0.611660 1.326090 -1.098801
v -0.554191 1.305159 -0.951705
v -0.484033 1.284311 -0.804051
v -0.398578 1.263596 -0.655955
v -0.294977 1.243087 -0.507653
v -1.252706 1.546637 -2.651834
v -1.213820 1.526133 -2.509283
v -1.174269 1.505434 -2.365344
v -1.135458 1.484642 -2.220837
v -1.097918 1.463831 -2.076317
v -1.062104 1.442994 -1.931768
v -1.028553 1.422096 -1.787016
v -0.997923 1.401083 -1.641725
v -0.971040 1.379868 -1.495405
v -0.948938 1.358346 -1.347420
v -0.932900 1.336389 -1.197024
v -0.924492 1.313858 -1.043393
v -0.925588 1.290599 -0.885668
v -0.938371 1.266460 -0.723014
v -0.965321 1.241295 -0.554633
v -1.009197 1.214951 -0.379754
v -0.657741 1.233418 -0.474052
v -0.264195 1.248933 -0.544604
v -1.051290 1.217904 -0.403499
v -1.166548 1.630199 -3.211231
v -1.145953 1.628480 -3.197752
v -1.127074 1.626339 -3.181559
v -1.089566 1.621723 -3.146926
v -1.037008 1.614538 -3.093534
v -0.984298 1.606523 -3.034499
v -0.931976 1.597702 -2.970032
v -0.881602 1.588202 -2.901125
v -0.845969 1.580088 -2.842932
v -0.257058 1.247778 -0.536134
v -1.180816 1.626939 -3.190368
v -1.166802 1.630139 -3.210849
v -1.191977 1.623592 -3.168648
v -1.212733 1.617027 -3.125928
v -1.242431 1.606599 -3.057795
v -1.270325 1.595427 -2.984444
v -1.295976 1.583567 -2.906238
v -1.318269 1.571251 -2.824637
v -1.330638 1.561308 -2.758263
v -1.054883 1.216346 -0.393248
v -0.832453 1.562350 -2.721382
v -0.817921 1.540854 -2.574249
v -0.803502 1.519198 -2.426036
v -0.788188 1.497548 -2.277793
v -0.771679 1.475998 -2.130105
v -0.753558 1.454575 -1.983147
v -0.733276 1.433297 -1.836982
v -0.710120 1.412170 -1.691577
v -0.683169 1.391185 -1.546810
v -0.651274 1.370332 -1.402499
v -0.613023 1.349597 -1.258425
v -0.566723 1.328969 -1.114374
v -0.510393 1.308449 -0.970171
v -0.441760 1.288053 -0.825719
v -0.358266 1.267813 -0.681014
v -1.299627 1.544239 -2.639705
v -1.260428 1.523699 -2.496872
v -1.220735 1.503021 -2.353067
v -1.181885 1.482282 -2.208912
v -1.144366 1.461539 -2.064861
v -1.108629 1.440792 -1.920931
v -1.075210 1.420013 -1.776993
v -1.044761 1.399153 -1.632766
v -1.018098 1.378139 -1.487820
v -0.996233 1.356871 -1.341584
v -0.980410 1.335232 -1.193363
v -0.972133 1.313087 -1.042369
v -0.973197 1.290286 -0.887748
v -0.985695 1.266672 -0.728620
v -1.012024 1.242082 -0.564093
v -0.418914 1.135328 0.615744
v -0.622207 1.294647 -0.483222
v -0.419615 1.132600 0.615478
v -0.622908 1.291919 -0.483487
v -0.421761 1.129920 0.615487
v -0.625054 1.289238 -0.483479
v -0.425269 1.127388 0.615769
v -0.628563 1.286707 -0.483198
v -0.430005 1.125104 0.616314
v -0.633299 1.284422 -0.482653
v -0.435786 1.123155 0.617101
v -0.639080 1.282474 -0.481866
v -0.442391 1.121616 0.618100
v -0.645685 1.280934 -0.480867
v -0.449566 1.120545 0.619271
v -0.652860 1.279864 -0.479695
v -0.457035 1.119985 0.620572
v -0.660329 1.279304 -0.478394
v -0.464511 1.119956 0.621951
v -0.667805 1.279275 -0.477016
v -0.471706 1.120460 0.623354
v -0.675000 1.279779 -0.475612
v -0.478345 1.121477 0.624731
v -0.681638 1.280796 -0.474236
v -0.484171 1.122969 0.626025
v -0.687465 1.282287 -0.472942
v -0.488962 1.124877 0.627188
v -0.692255 1.284196 -0.471779
v -0.492533 1.127130 0.628174
v -0.695826 1.286448 -0.470793
v -0.494745 1.129638 0.628947
v -0.698039 1.288957 -0.470019
v -0.495517 1.132308 0.629477
v -0.698810 1.291627 -0.469490
v -0.494816 1.135035 0.629743
v -0.698110 1.294355 -0.469223
v -0.492670 1.137717 0.629734
v -0.695964 1.297036 -0.469232
v -0.489162 1.140247 0.629453
v -0.692455 1.299567 -0.469514
v -0.484426 1.142532 0.628907
v -0.687719 1.301851 -0.470059
v -0.478644 1.144481 0.628120
v -0.681937 1.303800 -0.470846
v -0.472038 1.146020 0.627122
v -0.675332 1.305339 -0.471845
v -0.464864 1.147091 0.625950
v -0.668157 1.306409 -0.473017
v -0.457395 1.147652 0.624650
v -0.660688 1.306970 -0.474317
v -0.449919 1.147680 0.623271
v -0.653213 1.306998 -0.475696
v -0.442724 1.147176 0.621867
v -0.646017 1.306495 -0.477100
v -0.436086 1.146158 0.620491
v -0.639379 1.305477 -0.478476
v -0.430259 1.144667 0.619197
v -0.633552 1.303986 -0.479769
v -0.425469 1.142759 0.618035
v -0.628762 1.302077 -0.480932
v -0.421898 1.140507 0.617047
v -0.625192 1.299826 -0.481919
v -0.419684 1.137998 0.616274
v -0.622978 1.297316 -0.482693
vn -0.0129 0.9892 0.1458
vn -0.5059 0.0868 0.8582
vn -0.9946 -0.0514 0.0907
vn -0.1801 0.1411 -0.9735
vn 0.4337 -0.1422 0.8898
vn 0.0129 -0.9892 -0.1457
vn -0.0128 0.9892 0.1458
vn -0.2677 -0.1352 0.9540
vn -0.1800 0.1411 -0.9735
vn 0.0129 -0.9892 -0.1458
vn -0.5059 0.0869 0.8582
vn -0.1801 0.1410 -0.9735
vn 0.2862 -0.1478 0.9467
vn 0.9802 0.1778 -0.0869
vn -0.0806 0.9965 0.0241
vn 0.3471 -0.1481 0.9261
vn 0.3234 -0.1479 0.9346
vn 0.3022 -0.1478 0.9417
vn -0.1800 0.1410 -0.9735
vn 0.2817 -0.1478 0.9481
vn 0.2597 -0.1478 0.9543
vn -0.1806 0.1536 -0.9715
vn 0.2243 -0.1479 0.9632
vn -0.1805 0.1510 -0.9719
vn -0.1800 0.1394 -0.9737
vn 0.0205 -0.1477 0.9888
vn -0.1796 0.1278 -0.9754
vn -0.1850 -0.1417 0.9725
vn -0.3104 -0.1302 0.9416
vn -0.2418 -0.1376 0.9605
vn -0.2200 -0.1394 0.9655
vn -0.2000 -0.1407 0.9696
vn -0.1804 -0.1419 0.9733
vn -0.1796 0.1282 -0.9754
vn -0.1591 -0.1431 0.9768
vn -0.1796 0.1296 -0.9752
vn -0.1240 -0.1446 0.9817
vn -0.1797 0.1319 -0.9748
vn -0.1801 0.1429 -0.9732
vn 0.0878 -0.1482 0.9851
vn 0.0130 -0.9892 -0.1457
vn 0.0128 -0.9892 -0.1458
vn 0.4829 -0.1436 0.8638
vn -0.1800 0.1391 -0.9738
vn 0.0143 -0.1477 0.9889
vn 0.0134 -0.1477 0.9889
vn -0.1801 0.1392 -0.9738
vn 0.0163 -0.1477 0.9889
vn -0.1801 0.1394 -0.9737
vn 0.0202 -0.1477 0.9888
vn -0.1800 0.1397 -0.9737
vn 0.0257 -0.1478 0.9887
vn -0.1800 0.1400 -0.9736
vn 0.0329 -0.1478 0.9885
vn -0.1801 0.1405 -0.9736
vn 0.0425 -0.1479 0.9881
vn -0.1800 0.1412 -0.9735
vn 0.0550 -0.1480 0.9875
vn -0.1801 0.1420 -0.9733
vn 0.0710 -0.1481 0.9864
vn -0.1801 0.1430 -0.9732
vn 0.0908 -0.1482 0.9848
vn -0.1802 0.1443 -0.9730
vn 0.1148 -0.1482 0.9823
vn -0.1803 0.1459 -0.9727
vn 0.1430 -0.1482 0.9786
vn -0.1804 0.1478 -0.9724
vn 0.1753 -0.1481 0.9733
vn -0.1804 0.1500 -0.9721
vn 0.2108 -0.1480 0.9663
vn -0.1805 0.1527 -0.9716
vn 0.2481 -0.1479 0.9574
vn -0.1802 0.1432 -0.9732
vn 0.0939 -0.1482 0.9845
vn -0.1801 0.1432 -0.9732
vn 0.0948 -0.1482 0.9844
vn -0.1802 0.1431 -0.9732
vn 0.0921 -0.1482 0.9847
vn 0.0883 -0.1482 0.9850
vn -0.1802 0.1426 -0.9732
vn 0.0829 -0.1481 0.9855
vn -0.1801 0.1422 -0.9733
vn 0.0757 -0.1481 0.9861
vn -0.1801 0.1417 -0.9734
vn 0.0662 -0.1481 0.9868
vn 0.0539 -0.1480 0.9875
vn -0.1801 0.1403 -0.9736
vn 0.0378 -0.1479 0.9883
vn -0.1799 0.1393 -0.9738
vn 0.0175 -0.1477 0.9889
vn -0.1800 0.1380 -0.9739
vn -0.0077 -0.1474 0.9890
vn -0.1799 0.1365 -0.9742
vn -0.0380 -0.1470 0.9884
vn -0.1798 0.1348 -0.9744
vn -0.0736 -0.1462 0.9865
vn -0.1798 0.1327 -0.9747
vn -0.1101 -0.1451 0.9833
vn -0.1796 0.1304 -0.9751
vn -0.1477 -0.1436 0.9785
vn 0.0707 0.8158 0.5740
vn 0.2141 0.9417 -0.2595
vn 0.2764 0.9297 -0.2435
vn 0.3029 0.9269 -0.2215
vn 0.3203 0.9261 -0.1994
vn 0.3348 0.9251 -0.1794
vn 0.3479 0.9237 -0.1603
vn 0.3626 0.9217 -0.1380
vn 0.3822 0.9180 -0.1060
vn 0.3388 0.9273 -0.1590
vn -0.4014 0.9062 -0.1331
vn -0.4386 0.8944 -0.0876
vn -0.4373 0.8962 -0.0747
vn -0.4416 0.8955 -0.0554
vn -0.4470 0.8939 -0.0338
vn -0.4519 0.8920 -0.0130
vn -0.4562 0.8899 0.0067
vn -0.4635 0.8850 0.0434
vn 0.4426 -0.8965 0.0190
vn 0.4448 0.8921 0.0799
vn 0.4447 0.8916 0.0858
vn 0.4443 0.8917 0.0867
vn 0.4436 0.8922 0.0842
vn 0.4430 0.8929 0.0806
vn 0.4421 0.8938 0.0756
vn 0.4411 0.8948 0.0689
vn 0.4397 0.8962 0.0601
vn 0.4376 0.8979 0.0486
vn 0.4345 0.9000 0.0340
vn 0.4300 0.9027 0.0157
vn 0.4235 0.9059 -0.0064
vn 0.4142 0.9096 -0.0324
vn 0.4015 0.9138 -0.0617
vn 0.3848 0.9183 -0.0936
vn 0.3638 0.9229 -0.1265
vn -0.4572 0.8559 0.2416
vn -0.4548 0.8556 0.2471
vn -0.4539 0.8559 0.2478
vn -0.4540 0.8566 0.2452
vn -0.4546 0.8573 0.2415
vn -0.4555 0.8582 0.2366
vn -0.4569 0.8593 0.2299
vn -0.4586 0.8607 0.2212
vn -0.4608 0.8624 0.2097
vn -0.4631 0.8646 0.1949
vn -0.4654 0.8674 0.1763
vn -0.4672 0.8707 0.1533
vn -0.4678 0.8748 0.1258
vn -0.4665 0.8796 0.0939
vn -0.4622 0.8849 0.0583
vn -0.4544 0.8906 0.0202
vn 0.1136 -0.9718 0.2069
vn 0.1094 -0.9710 0.2128
vn 0.1027 -0.9719 0.2120
vn 0.0936 -0.9446 0.3145
vn 0.2646 -0.8193 -0.5087
vn 0.3205 -0.8157 -0.4815
vn 0.3312 -0.8194 -0.4679
vn 0.3450 -0.8235 -0.4504
vn 0.3586 -0.8272 -0.4325
vn 0.3712 -0.8307 -0.4149
vn 0.3855 -0.8331 -0.3966
vn 0.4050 -0.8384 -0.3649
vn -0.3617 0.8331 0.4185
vn -0.3787 -0.8392 -0.3903
vn -0.4161 -0.8420 -0.3435
vn -0.4146 -0.8474 -0.3317
vn -0.4188 -0.8524 -0.3130
vn -0.4242 -0.8572 -0.2919
vn -0.4291 -0.8615 -0.2714
vn -0.4358 -0.8647 -0.2496
vn -0.4425 -0.8711 -0.2130
vn -0.4197 -0.8639 -0.2783
vn 0.4670 -0.8661 -0.1783
vn 0.4671 -0.8671 -0.1728
vn 0.4668 -0.8674 -0.1722
vn 0.4663 -0.8672 -0.1748
vn 0.4656 -0.8668 -0.1785
vn 0.4649 -0.8661 -0.1836
vn 0.4639 -0.8652 -0.1903
vn 0.4625 -0.8640 -0.1992
vn 0.4604 -0.8623 -0.2107
vn 0.4574 -0.8602 -0.2254
vn 0.4529 -0.8576 -0.2437
vn 0.4463 -0.8545 -0.2658
vn 0.4371 -0.8508 -0.2918
vn 0.4244 -0.8466 -0.3212
vn 0.4076 -0.8422 -0.3530
vn 0.3867 -0.8376 -0.3859
vn -0.4344 -0.9006 -0.0172
vn -0.4319 -0.9018 -0.0119
vn -0.4310 -0.9023 -0.0113
vn -0.4311 -0.9022 -0.0140
vn -0.4317 -0.9018 -0.0177
vn -0.4326 -0.9013 -0.0227
vn -0.4340 -0.9004 -0.0294
vn -0.4358 -0.8993 -0.0382
vn -0.4379 -0.8977 -0.0497
vn -0.4402 -0.8956 -0.0645
vn -0.4426 -0.8929 -0.0832
vn -0.4443 -0.8895 -0.1061
vn -0.4450 -0.8855 -0.1337
vn -0.4436 -0.8808 -0.1656
vn -0.4393 -0.8755 -0.2012
vn -0.4315 -0.8698 -0.2393
vn -0.4029 -0.8245 -0.3973
vn -0.4031 -0.8245 -0.3971
vn -0.4027 -0.8245 -0.3975
vn 0.9520 -0.2242 -0.2086
vn 0.7596 -0.6088 -0.2288
vn 0.5592 -0.7995 -0.2193
vn 0.4062 -0.8907 -0.2043
vn 0.2903 -0.9379 -0.1897
vn 0.1981 -0.9642 -0.1764
vn 0.1193 -0.9792 -0.1640
vn 0.0476 -0.9872 -0.1519
vn -0.0219 -0.9900 -0.1395
vn -0.0937 -0.9876 -0.1259
vn -0.1727 -0.9788 -0.1100
vn -0.2657 -0.9598 -0.0900
vn -0.3824 -0.9218 -0.0629
vn -0.5379 -0.8427 -0.0227
vn -0.7431 -0.6680 0.0406
vn -0.9451 -0.2991 0.1315
vn -0.9520 0.2242 0.2086
vn -0.7596 0.6088 0.2288
vn -0.5592 0.7995 0.2193
vn -0.4062 0.8907 0.2043
vn -0.2903 0.9380 0.1897
vn -0.1981 0.9642 0.1764
vn -0.1193 0.9792 0.1640
vn -0.0477 0.9872 0.1519
vn 0.0220 0.9900 0.1394
vn 0.0936 0.9876 0.1259
vn 0.1729 0.9788 0.1099
vn 0.2657 0.9599 0.0900
vn 0.3825 0.9218 0.0629
vn 0.5378 0.8428 0.0227
vn 0.1801 -0.1411 0.9735
vn 0.7430 0.6680 -0.0406
vn 0.9451 0.2989 -0.1318
vn 0.9451 0.2992 -0.1315
vn 0.4457 -0.0951 -0.8901
vn -0.4379 0.1417 -0.8878
vn 0.1186 0.1332 -0.9840
vn 0.4457 -0.0952 -0.8901
vn -0.4314 0.1334 -0.8923
vn -0.0130 0.9892 0.1458
vn 0.9654 0.1906 0.1779
vn -0.4791 0.1332 -0.8676
vn -0.1802 0.1410 -0.9735
vn -0.4609 0.1332 -0.8774
vn -0.4441 0.1332 -0.8860
vn -0.4277 0.1335 -0.8940
vn -0.4097 0.1338 -0.9024
vn -0.3800 0.1344 -0.9152
vn -0.1867 0.1390 -0.9725
vn 0.0216 0.1377 -0.9902
vn 0.1721 0.1290 -0.9766
vn 0.0873 0.1350 -0.9870
vn 0.0616 0.1363 -0.9888
vn 0.0385 0.1372 -0.9898
vn 0.0165 0.1379 -0.9903
vn -0.0070 0.1385 -0.9903
vn -0.0447 0.1392 -0.9893
vn -0.2548 0.1376 -0.9571
vn -0.4746 0.1447 -0.8682
vn -0.1805 0.1391 -0.9737
vn -0.1797 0.1391 -0.9738
vn -0.1825 0.1390 -0.9733
vn -0.1865 0.1390 -0.9726
vn -0.1801 0.1412 -0.9735
vn -0.1917 0.1389 -0.9716
vn -0.1991 0.1388 -0.9701
vn -0.2087 0.1386 -0.9681
vn -0.2212 0.1384 -0.9654
vn -0.1802 0.1411 -0.9735
vn -0.2375 0.1380 -0.9615
vn -0.2578 0.1375 -0.9564
vn -0.2813 0.1369 -0.9498
vn -0.3078 0.1362 -0.9417
vn -0.3371 0.1355 -0.9317
vn -0.3682 0.1347 -0.9199
vn -0.4001 0.1340 -0.9066
vn -0.2612 0.1374 -0.9555
vn -0.2620 0.1374 -0.9552
vn -0.2593 0.1374 -0.9560
vn -0.2552 0.1376 -0.9571
vn -0.2498 0.1377 -0.9585
vn -0.2423 0.1379 -0.9603
vn -0.2327 0.1381 -0.9627
vn -0.2201 0.1384 -0.9656
vn -0.2040 0.1387 -0.9691
vn -0.1837 0.1390 -0.9731
vn -0.1592 0.1393 -0.9774
vn -0.1300 0.1395 -0.9816
vn -0.0964 0.1396 -0.9855
vn -0.0592 0.1393 -0.9885
vn -0.0193 0.1388 -0.9901
vn -0.0153 0.9890 0.1472
vn -0.0137 0.9892 0.1457
vn -0.0151 0.9892 0.1460
vn -0.0128 0.9892 0.1457
vn -0.0121 0.9894 0.1450
vn -0.0130 0.9892 0.1457
vn 0.2417 0.9376 -0.2498
vn 0.2978 0.9278 -0.2246
vn 0.3085 0.9277 -0.2104
vn 0.3222 0.9269 -0.1925
vn 0.3358 0.9257 -0.1742
vn 0.3484 0.9242 -0.1563
vn 0.3598 0.9226 -0.1390
vn 0.3799 0.9188 -0.1073
vn -0.3389 -0.9273 0.1592
vn -0.3695 0.9155 -0.1589
vn -0.4192 0.8996 -0.1228
vn -0.4350 0.8957 -0.0921
vn -0.4423 0.8946 -0.0645
vn -0.4480 0.8931 -0.0403
vn -0.4529 0.8914 -0.0176
vn -0.4586 0.8886 0.0088
vn -0.4653 0.8840 0.0457
vn -0.4426 0.8965 -0.0189
vn 0.4442 0.8923 0.0808
vn 0.4442 0.8917 0.0864
vn 0.4439 0.8918 0.0871
vn 0.4434 0.8923 0.0845
vn 0.4428 0.8930 0.0808
vn 0.4420 0.8938 0.0758
vn 0.4410 0.8949 0.0691
vn 0.4396 0.8962 0.0602
vn 0.4375 0.8979 0.0487
vn 0.4300 0.9027 0.0158
vn -0.4560 0.8563 0.2426
vn -0.4539 0.8559 0.2477
vn -0.4532 0.8562 0.2482
vn -0.4535 0.8568 0.2455
vn -0.4542 0.8575 0.2418
vn -0.4552 0.8583 0.2368
vn -0.4567 0.8594 0.2301
vn -0.4585 0.8607 0.2213
vn -0.4606 0.8624 0.2098
vn -0.4630 0.8646 0.1950
vn -0.4672 0.8708 0.1533
vn -0.4664 0.8796 0.0939
vn -0.4543 0.8906 0.0202
vn -0.4196 0.8965 -0.1425
vn -0.4156 0.8982 -0.1430
vn -0.4235 0.8951 -0.1395
vn 0.0056 -0.9891 -0.1469
vn 0.0136 -0.9892 -0.1462
vn 0.0133 -0.9892 -0.1459
vn 0.0130 -0.9892 -0.1458
vn 0.0127 -0.9892 -0.1459
vn 0.0075 -0.9894 -0.1453
vn 0.0128 -0.9892 -0.1457
vn 0.0122 -0.9892 -0.1457
vn 0.2370 -0.8211 -0.5193
vn 0.2991 -0.8126 -0.5002
vn 0.3255 -0.8156 -0.4783
vn 0.3430 -0.8208 -0.4568
vn 0.3575 -0.8252 -0.4373
vn 0.3706 -0.8291 -0.4186
vn 0.3827 -0.8338 -0.3979
vn 0.4027 -0.8388 -0.3663
vn 0.3617 -0.8331 -0.4184
vn -0.3467 -0.8399 -0.4177
vn -0.3966 -0.8363 -0.3786
vn -0.4124 -0.8418 -0.3482
vn -0.4196 -0.8489 -0.3214
vn -0.4252 -0.8547 -0.2979
vn -0.4302 -0.8596 -0.2756
vn -0.4333 -0.8653 -0.2520
vn -0.4407 -0.8714 -0.2154
vn 0.4197 0.8639 0.2784
vn 0.4676 -0.8656 -0.1791
vn 0.4676 -0.8668 -0.1733
vn 0.4671 -0.8672 -0.1725
vn 0.4665 -0.8670 -0.1751
vn 0.4658 -0.8666 -0.1787
vn 0.4650 -0.8660 -0.1837
vn 0.4640 -0.8651 -0.1904
vn 0.4625 -0.8639 -0.1993
vn 0.4605 -0.8623 -0.2108
vn 0.4464 -0.8545 -0.2659
vn 0.4076 -0.8421 -0.3530
vn 0.3867 -0.8376 -0.3860
vn -0.4331 -0.9012 -0.0164
vn -0.4310 -0.9023 -0.0115
vn -0.4303 -0.9026 -0.0110
vn -0.4306 -0.9024 -0.0138
vn -0.4313 -0.9020 -0.0175
vn -0.4323 -0.9014 -0.0226
vn -0.4338 -0.9005 -0.0293
vn -0.4356 -0.8993 -0.0381
vn -0.4378 -0.8977 -0.0496
vn -0.4402 -0.8956 -0.0644
vn -0.4425 -0.8929 -0.0831
vn -0.4443 -0.8896 -0.1061
vn -0.4449 -0.8855 -0.1336
vn -0.4435 -0.8808 -0.1655
vn 0.0858 0.8707 0.4843
vn 0.0854 0.8707 0.4843
vn 0.0857 0.8706 0.4844
vn -0.0938 -0.9876 -0.1258
vn -0.1729 -0.9788 -0.1099
vn -0.9519 0.2243 0.2086
vn -0.7597 0.6087 0.2288
vn -0.5591 0.7996 0.2193
vn -0.4060 0.8908 0.2042
vn -0.2904 0.9379 0.1897
vn -0.1979 0.9642 0.1764
vn 0.1795 -0.1408 0.9736
vn 0.1802 -0.1410 0.9735
vn 0.1800 -0.1414 0.9734
vn 0.1805 -0.1390 0.9737
vn 0.1801 -0.1402 0.9736
vn 0.1801 -0.1413 0.9735
vn 0.1804 -0.1418 0.9733
vn 0.1808 -0.1414 0.9733
vn 0.1804 -0.1409 0.9734
vn 0.1805 -0.1401 0.9735
vn 0.1802 -0.1409 0.9735
vn 0.1800 -0.1421 0.9734
vn 0.1803 -0.1430 0.9732
vn 0.1801 -0.1412 0.9735
vn 0.1800 -0.1414 0.9735
vn 0.1801 -0.1414 0.9734
vn 0.1802 -0.1407 0.9735
vn 0.1801 -0.1404 0.9736
vn 0.9452 0.2988 -0.1312
vn 0.1797 -0.1412 0.9735
vn 0.1796 -0.1425 0.9734
vn 0.1800 -0.1424 0.9733
vn 0.1801 -0.1421 0.9733
vn 0.1800 -0.1407 0.9736
vn 0.1799 -0.1406 0.9736
vn 0.1794 -0.1405 0.9737
vn 0.1796 -0.1412 0.9735
vn 0.1794 -0.1418 0.9735
vn 0.1802 -0.1412 0.9735
vn 0.1800 -0.1422 0.9733
vn 0.1801 -0.1419 0.9734
vn 0.1800 -0.1405 0.9736
vn 0.1795 -0.1405 0.9737
vn 0.1802 -0.1408 0.9735
vn 0.1801 -0.1413 0.9734
vn 0.1801 -0.1410 0.9735
vn 0.1799 -0.1412 0.9735
vn 0.1800 -0.1412 0.9735
vt 0.317621 0.676718
vt 0.308955 0.645856
vt 0.321651 0.647664
vt 0.920290 0.003145
vt 0.760946 0.000340
vt 0.760948 0.000181
vt 0.360152 0.770027
vt 0.358737 0.788601
vt 0.358669 0.788522
vt 0.331768 0.050084
vt 0.422571 0.045925
vt 0.421996 0.057047
vt 0.419673 0.685134
vt 0.433562 0.656369
vt 0.432036 0.688404
vt 0.767366 0.811504
vt 0.780840 0.796907
vt 0.780855 0.796920
vt 0.363308 0.785219
vt 0.367543 0.780988
vt 0.375967 0.771743
vt 0.366339 0.763081
vt 0.388127 0.757332
vt 0.378177 0.749227
vt 0.400457 0.741124
vt 0.390108 0.733595
vt 0.412558 0.723245
vt 0.412999 0.698031
vt 0.401874 0.716342
vt 0.424059 0.704222
vt 0.738820 0.811132
vt 0.725680 0.796367
vt 0.725695 0.796354
vt 0.354697 0.784121
vt 0.351287 0.779248
vt 0.344904 0.769324
vt 0.355992 0.762271
vt 0.335518 0.753012
vt 0.346928 0.746671
vt 0.326353 0.734943
vt 0.338039 0.729276
vt 0.317687 0.715299
vt 0.329558 0.710325
vt 0.321879 0.690455
vt 0.309784 0.694646
vt 0.304764 0.677771
vt 0.527606 0.052139
vt 0.534194 0.045862
vt 0.535143 0.049897
vt 0.314920 0.606428
vt 0.327706 0.608454
vt 0.480460 0.126941
vt 0.510589 0.087756
vt 0.492849 0.131562
vt 0.466055 0.169633
vt 0.478441 0.173492
vt 0.454548 0.211149
vt 0.467013 0.214268
vt 0.445586 0.251987
vt 0.458151 0.254437
vt 0.438744 0.292450
vt 0.451404 0.294327
vt 0.433616 0.332742
vt 0.446356 0.334147
vt 0.429844 0.373009
vt 0.442650 0.374036
vt 0.427128 0.413354
vt 0.439988 0.414085
vt 0.425218 0.453837
vt 0.438120 0.454345
vt 0.423909 0.494475
vt 0.436841 0.494822
vt 0.423022 0.535229
vt 0.435967 0.535472
vt 0.422383 0.575982
vt 0.435312 0.576185
vt 0.421800 0.616399
vt 0.434656 0.616664
vt 0.321464 0.042235
vt 0.318903 0.034498
vt 0.420858 0.655911
vt 0.358322 0.117926
vt 0.335277 0.077526
vt 0.347015 0.073794
vt 0.365814 0.161310
vt 0.345992 0.120662
vt 0.369933 0.203714
vt 0.353254 0.163057
vt 0.371307 0.245299
vt 0.357260 0.204556
vt 0.370502 0.286271
vt 0.358570 0.245385
vt 0.367994 0.326829
vt 0.357733 0.285746
vt 0.364168 0.367145
vt 0.355210 0.325820
vt 0.359330 0.407363
vt 0.351375 0.365762
vt 0.353728 0.447582
vt 0.346529 0.405696
vt 0.347567 0.487855
vt 0.340917 0.445705
vt 0.341036 0.528177
vt 0.334746 0.485833
vt 0.334331 0.568472
vt 0.328208 0.526071
vt 0.321510 0.566350
vt 0.601607 0.000237
vt 0.601593 0.000181
vt 0.896191 0.044881
vt 0.920261 0.003225
vt 0.752972 0.823575
vt 0.752973 0.823488
vt 0.752979 0.823480
vt 0.793815 0.780647
vt 0.793832 0.780660
vt 0.806373 0.762854
vt 0.806391 0.762866
vt 0.818528 0.743569
vt 0.818548 0.743581
vt 0.830234 0.722781
vt 0.830256 0.722792
vt 0.841346 0.700394
vt 0.841369 0.700404
vt 0.851097 0.675884
vt 0.851128 0.675876
vt 0.848724 0.635968
vt 0.848685 0.635994
vt 0.624883 0.042418
vt 0.738806 0.811146
vt 0.713088 0.779931
vt 0.713105 0.779919
vt 0.700939 0.761985
vt 0.700958 0.761974
vt 0.689218 0.742572
vt 0.689239 0.742561
vt 0.677972 0.721679
vt 0.677993 0.721668
vt 0.667345 0.699214
vt 0.667369 0.699204
vt 0.658103 0.674677
vt 0.658136 0.674663
vt 0.661301 0.634790
vt 0.661259 0.634809
vt 0.752978 0.823585
vt 0.752991 0.823233
vt 0.767358 0.811483
vt 0.498362 0.081388
vt 0.845789 0.595949
vt 0.845751 0.595975
vt 0.842786 0.555931
vt 0.842747 0.555957
vt 0.840018 0.516015
vt 0.839980 0.516041
vt 0.837588 0.476277
vt 0.837550 0.476302
vt 0.835614 0.436766
vt 0.835575 0.436790
vt 0.834240 0.397501
vt 0.834202 0.397525
vt 0.833648 0.358476
vt 0.833609 0.358498
vt 0.834062 0.319653
vt 0.834023 0.319675
vt 0.835758 0.280970
vt 0.835718 0.280990
vt 0.839066 0.242334
vt 0.839024 0.242352
vt 0.844381 0.203627
vt 0.844338 0.203643
vt 0.852167 0.164705
vt 0.852123 0.164718
vt 0.862967 0.125402
vt 0.862920 0.125412
vt 0.877414 0.085529
vt 0.877364 0.085535
vt 0.896244 0.044878
vt 0.314818 0.034072
vt 0.664992 0.594798
vt 0.664950 0.594818
vt 0.668757 0.554808
vt 0.668715 0.554827
vt 0.672283 0.514916
vt 0.672241 0.514936
vt 0.675466 0.475196
vt 0.675425 0.475216
vt 0.678188 0.435694
vt 0.678148 0.435714
vt 0.680304 0.396427
vt 0.680264 0.396448
vt 0.681633 0.357384
vt 0.681593 0.357406
vt 0.681950 0.318526
vt 0.681912 0.318549
vt 0.680983 0.279783
vt 0.680946 0.279807
vt 0.678402 0.241056
vt 0.678365 0.241082
vt 0.673813 0.202220
vt 0.673778 0.202248
vt 0.666757 0.163122
vt 0.666722 0.163153
vt 0.656691 0.123586
vt 0.656658 0.123621
vt 0.642988 0.083410
vt 0.642957 0.083449
vt 0.624912 0.042374
vt 0.423027 0.000181
vt 0.260019 0.000181
vt 0.371364 0.825907
vt 0.353135 0.834079
vt 0.388150 0.814737
vt 0.404276 0.801033
vt 0.419718 0.784987
vt 0.434514 0.766826
vt 0.448648 0.746715
vt 0.461757 0.724593
vt 0.601231 0.005609
vt 0.582104 0.060008
vt 0.338581 0.822637
vt 0.324924 0.808647
vt 0.311955 0.792511
vt 0.299798 0.774252
vt 0.288532 0.754018
vt 0.278201 0.731949
vt 0.269198 0.708059
vt 0.261988 0.681940
vt 0.275290 0.046890
vt 0.476989 0.658865
vt 0.473460 0.700000
vt 0.478460 0.617855
vt 0.479200 0.576962
vt 0.479839 0.536305
vt 0.480648 0.495964
vt 0.481821 0.456011
vt 0.483542 0.416497
vt 0.486014 0.377446
vt 0.489479 0.338854
vt 0.494229 0.300680
vt 0.500629 0.262839
vt 0.509146 0.225171
vt 0.520401 0.187387
vt 0.535292 0.148872
vt 0.555241 0.108056
vt 0.265699 0.640658
vt 0.271506 0.599824
vt 0.278092 0.559249
vt 0.284808 0.518950
vt 0.291367 0.478954
vt 0.297559 0.439289
vt 0.303194 0.399969
vt 0.308072 0.360983
vt 0.311961 0.322297
vt 0.314583 0.283847
vt 0.315599 0.245544
vt 0.314587 0.207275
vt 0.310997 0.168902
vt 0.304066 0.130206
vt 0.292646 0.090584
vt 0.353030 0.834095
vt 0.516311 0.059826
vt 0.206418 0.625877
vt 0.192446 0.662303
vt 0.190919 0.626680
vt 0.128513 0.772521
vt 0.127753 0.796132
vt 0.127746 0.796216
vt 0.140353 0.034706
vt 0.208292 0.037070
vt 0.140141 0.042398
vt 0.067800 0.658852
vt 0.055453 0.621983
vt 0.070765 0.623432
vt 0.122457 0.791281
vt 0.117687 0.785336
vt 0.108399 0.772417
vt 0.121744 0.762900
vt 0.095373 0.752482
vt 0.108999 0.743854
vt 0.082600 0.730410
vt 0.096570 0.722678
vt 0.070534 0.706455
vt 0.084746 0.699644
vt 0.074024 0.675537
vt 0.059509 0.681357
vt 0.138387 0.785420
vt 0.133381 0.791105
vt 0.147789 0.773707
vt 0.134787 0.763350
vt 0.161586 0.754342
vt 0.148113 0.744988
vt 0.175111 0.732875
vt 0.161270 0.724453
vt 0.188029 0.709540
vt 0.173950 0.702055
vt 0.185597 0.678555
vt 0.199990 0.685041
vt 0.073238 0.043230
vt 0.068148 0.034343
vt 0.077204 0.043777
vt 0.203525 0.577960
vt 0.188107 0.578990
vt 0.094697 0.089140
vt 0.077432 0.060544
vt 0.085098 0.056513
vt 0.101339 0.121601
vt 0.085905 0.091269
vt 0.105426 0.155124
vt 0.091703 0.123027
vt 0.107417 0.190009
vt 0.095068 0.155941
vt 0.107692 0.226480
vt 0.096379 0.190281
vt 0.106533 0.264686
vt 0.095983 0.226270
vt 0.104167 0.304691
vt 0.094169 0.264055
vt 0.100797 0.346470
vt 0.091183 0.303702
vt 0.096616 0.389929
vt 0.087245 0.345192
vt 0.091810 0.434903
vt 0.082560 0.388427
vt 0.086567 0.481163
vt 0.077322 0.433241
vt 0.081089 0.528403
vt 0.071725 0.479407
vt 0.075637 0.576079
vt 0.065983 0.526623
vt 0.216467 0.026499
vt 0.217328 0.027575
vt 0.060371 0.574395
vt 0.204096 0.059913
vt 0.186392 0.089787
vt 0.196041 0.056957
vt 0.195701 0.092006
vt 0.179586 0.122715
vt 0.189427 0.124426
vt 0.174811 0.156475
vt 0.185225 0.157642
vt 0.171768 0.191447
vt 0.182818 0.192118
vt 0.170208 0.227960
vt 0.181927 0.228192
vt 0.169921 0.266221
vt 0.182307 0.266071
vt 0.170720 0.306316
vt 0.183742 0.305843
vt 0.172424 0.348229
vt 0.186031 0.347493
vt 0.174856 0.391859
vt 0.188983 0.390924
vt 0.177837 0.437037
vt 0.192412 0.435964
vt 0.181182 0.483527
vt 0.196128 0.482382
vt 0.184689 0.531024
vt 0.199921 0.529878
vt 0.063362 0.034073
vt 0.217052 0.028141
vt 0.138735 0.000181
vt 0.024360 0.014376
vt 0.259658 0.001235
vt 0.105900 0.842362
vt 0.086084 0.825128
vt 0.067888 0.804840
vt 0.051271 0.781872
vt 0.036068 0.756588
vt 0.022205 0.729247
vt 0.010084 0.699872
vt 0.052277 0.660875
vt 0.149148 0.842946
vt 0.168548 0.826337
vt 0.186940 0.806974
vt 0.204189 0.784989
vt 0.220261 0.760644
vt 0.235154 0.734165
vt 0.208002 0.665002
vt 0.248439 0.705573
vt 0.247517 0.037117
vt 0.002953 0.617770
vt 0.008245 0.568500
vt 0.014597 0.520071
vt 0.021323 0.472705
vt 0.028142 0.426656
vt 0.034848 0.382183
vt 0.041243 0.339519
vt 0.047111 0.298851
vt 0.052210 0.260301
vt 0.056268 0.223908
vt 0.058985 0.189617
vt 0.060040 0.157291
vt 0.059083 0.126742
vt 0.055686 0.097816
vt 0.049100 0.070439
vt 0.037552 0.043773
vt 0.259090 0.623913
vt 0.259658 0.674358
vt 0.255904 0.574284
vt 0.251575 0.525476
vt 0.246791 0.477754
vt 0.241834 0.431377
vt 0.236915 0.386603
vt 0.232229 0.343662
vt 0.227982 0.302740
vt 0.224411 0.263957
vt 0.221782 0.227347
vt 0.220401 0.192836
vt 0.220620 0.160228
vt 0.222858 0.129183
vt 0.227631 0.099176
vt 0.235605 0.069292
vt 0.128385 0.855889
vt 0.601593 0.829443
vt 0.689529 0.823947
vt 0.601593 0.823947
vt 0.689529 0.834939
vt 0.689529 0.829443
vt 0.601593 0.834939
vt 0.689529 0.840435
vt 0.601593 0.845931
vt 0.601593 0.840435
vt 0.689529 0.851427
vt 0.689529 0.845931
vt 0.601593 0.856923
vt 0.601593 0.851427
vt 0.689529 0.862419
vt 0.689529 0.856923
vt 0.601593 0.867915
vt 0.601593 0.862419
vt 0.601593 0.873411
vt 0.689529 0.867915
vt 0.601593 0.878907
vt 0.689529 0.873411
vt 0.689529 0.884403
vt 0.689529 0.878907
vt 0.601593 0.889899
vt 0.601593 0.884403
vt 0.689529 0.895395
vt 0.689529 0.889899
vt 0.601593 0.900891
vt 0.601593 0.895395
vt 0.689529 0.906387
vt 0.689529 0.900891
vt 0.601593 0.906387
vt 0.689529 0.911883
vt 0.601593 0.911883
vt 0.689529 0.917379
vt 0.601593 0.917379
vt 0.689529 0.922875
vt 0.601593 0.922875
vt 0.689529 0.928371
vt 0.601593 0.933867
vt 0.601593 0.928371
vt 0.601593 0.939363
vt 0.689529 0.933867
vt 0.601593 0.944859
vt 0.689529 0.939363
vt 0.601593 0.950355
vt 0.689529 0.944859
vt 0.689529 0.955851
vt 0.689529 0.950355
vt 0.601593 0.961347
vt 0.601593 0.955851
vt 0.601593 0.966843
vt 0.689529 0.961347
vt 0.689529 0.972339
vt 0.689529 0.966843
vt 0.601593 0.972339
vt 0.689529 0.977835
vt 0.601593 0.983331
vt 0.601593 0.977835
vt 0.601593 0.988827
vt 0.689529 0.983331
vt 0.691505 0.853700
vt 0.744150 0.825561
vt 0.772289 0.878205
vt 0.689529 0.994323
vt 0.689529 0.988827
vt 0.601593 0.994323
vt 0.689529 0.999819
vt 0.853497 0.846055
vt 0.836169 0.903178
vt 0.779046 0.885850
vt 0.000181 0.668000
vt 0.128695 0.856127
vt 0.769122 0.885850
vt 0.764525 0.892730
vt 0.758674 0.898581
vt 0.751794 0.903178
vt 0.744150 0.906344
vt 0.736034 0.907959
vt 0.727760 0.907959
vt 0.719644 0.906344
vt 0.712000 0.903178
vt 0.705120 0.898581
vt 0.699269 0.892730
vt 0.694672 0.885850
vt 0.691505 0.878205
vt 0.689891 0.870090
vt 0.689891 0.861815
vt 0.694672 0.846055
vt 0.699269 0.839175
vt 0.705120 0.833324
vt 0.712000 0.828727
vt 0.719644 0.825561
vt 0.727760 0.823946
vt 0.736034 0.823946
vt 0.751794 0.828727
vt 0.758674 0.833324
vt 0.764525 0.839175
vt 0.769122 0.846055
vt 0.772289 0.853700
vt 0.773903 0.861815
vt 0.773903 0.870090
vt 0.601593 0.999819
vt 0.775879 0.878205
vt 0.774265 0.870090
vt 0.774265 0.861815
vt 0.775879 0.853700
vt 0.779046 0.846055
vt 0.783643 0.839175
vt 0.789494 0.833324
vt 0.796374 0.828727
vt 0.804018 0.825561
vt 0.812134 0.823947
vt 0.820408 0.823947
vt 0.828524 0.825561
vt 0.836169 0.828727
vt 0.843049 0.833324
vt 0.848899 0.839175
vt 0.856663 0.853700
vt 0.858277 0.861815
vt 0.858277 0.870090
vt 0.856663 0.878205
vt 0.853497 0.885850
vt 0.848899 0.892730
vt 0.843049 0.898581
vt 0.828524 0.906345
vt 0.820408 0.907959
vt 0.812134 0.907959
vt 0.804018 0.906345
vt 0.796374 0.903178
vt 0.789494 0.898581
vt 0.783643 0.892730
s 0
usemtl Sword
f 24/1/1 180/2/1 87/3/1
f 5/4/2 104/5/3 8/6/4
f 4/7/1 110/8/1 131/9/1
f 1/10/1 103/11/1 3/12/1
f 9/13/1 149/14/1 125/15/1
f 23/16/5 114/17/3 22/18/6
f 4/7/7 111/19/7 110/8/7
f 4/7/1 113/20/1 111/19/1
f 4/7/1 115/21/1 113/20/1
f 14/22/1 117/23/1 115/21/1
f 13/24/1 119/25/1 117/23/1
f 12/26/1 121/27/1 119/25/1
f 10/28/1 121/27/1 11/29/1
f 9/13/1 123/30/1 10/28/1
f 129/31/8 37/32/3 133/33/9
f 4/7/7 130/34/7 134/35/7
f 4/7/1 136/36/1 25/37/1
f 25/37/1 138/38/1 26/39/1
f 26/39/1 140/40/1 27/41/1
f 27/41/1 142/42/1 28/43/1
f 29/44/1 142/42/1 144/45/1
f 24/1/1 144/45/1 146/46/1
f 70/47/6 106/48/6 128/49/6
f 4/7/1 131/9/1 130/34/1
f 87/3/1 182/50/1 88/51/1
f 68/52/1 177/53/1 175/54/1
f 67/55/1 175/54/1 173/56/1
f 66/57/1 173/56/1 171/58/1
f 65/59/1 171/58/1 169/60/1
f 64/61/1 169/60/1 167/62/1
f 63/63/1 167/62/1 165/64/1
f 62/65/1 165/64/1 163/66/1
f 61/67/1 163/66/1 161/68/1
f 60/69/1 161/68/1 159/70/1
f 59/71/1 159/70/1 157/72/1
f 58/73/1 157/72/1 155/74/1
f 57/75/1 155/74/1 153/76/1
f 56/77/1 153/76/1 151/78/1
f 102/79/10 107/80/10 1/10/10
f 55/81/1 151/78/1 149/14/1
f 100/82/1 208/83/1 101/84/1
f 99/85/1 206/86/1 100/82/1
f 98/87/1 204/88/1 99/85/1
f 97/89/1 202/90/1 98/87/1
f 96/91/1 200/92/1 97/89/1
f 95/93/1 198/94/1 96/91/1
f 94/95/1 196/96/1 95/93/1
f 93/97/1 194/98/1 94/95/1
f 92/99/1 192/100/1 93/97/1
f 91/101/1 190/102/1 92/99/1
f 90/103/1 188/104/1 91/101/1
f 89/105/1 186/106/1 90/103/1
f 88/51/1 184/107/1 89/105/1
f 8/6/11 108/108/3 6/109/4
f 5/4/12 127/110/13 105/111/3
f 109/112/14 31/113/3 132/114/15
f 22/18/16 116/115/3 21/116/4
f 21/116/17 118/117/3 20/118/4
f 20/118/18 120/119/3 19/120/19
f 19/120/20 122/121/3 18/122/12
f 18/122/21 124/123/3 17/124/22
f 17/124/23 126/125/3 15/126/24
f 39/127/25 126/125/26 150/128/3
f 108/108/27 71/129/28 6/109/3
f 132/114/29 38/130/3 129/31/4
f 133/33/30 36/131/3 135/132/9
f 135/132/31 35/133/3 137/134/4
f 137/134/32 34/135/3 139/136/4
f 139/136/33 33/137/3 141/138/34
f 141/138/35 32/139/3 143/140/36
f 143/140/37 30/141/3 145/142/38
f 179/143/39 30/141/40 86/144/3
f 109/112/3 16/145/41 7/146/42
f 16/145/43 112/147/3 23/16/6
f 69/148/1 128/49/1 177/53/1
f 40/149/44 150/128/45 152/150/3
f 41/151/44 152/150/46 154/152/3
f 42/153/47 154/152/48 156/154/3
f 43/155/49 156/154/50 158/156/3
f 44/157/51 158/156/52 160/158/3
f 45/159/53 160/158/54 162/160/3
f 46/161/55 162/160/56 164/162/3
f 47/163/57 164/162/58 166/164/3
f 48/165/59 166/164/60 168/166/3
f 49/167/61 168/166/62 170/168/3
f 50/169/63 170/168/64 172/170/3
f 51/171/65 172/170/66 174/172/3
f 52/173/67 174/172/68 176/174/3
f 53/175/69 176/174/70 178/176/3
f 54/177/71 178/176/72 127/110/3
f 101/84/1 147/178/1 102/79/1
f 181/179/73 86/144/74 85/180/3
f 183/181/75 85/180/76 84/182/3
f 185/183/77 84/182/78 83/184/3
f 187/185/39 83/184/79 82/186/3
f 189/187/80 82/186/81 81/188/3
f 191/189/82 81/188/83 80/190/3
f 193/191/84 80/190/85 79/192/3
f 195/193/4 79/192/86 78/194/3
f 197/195/87 78/194/88 77/196/3
f 199/197/89 77/196/90 76/198/3
f 201/199/91 76/198/92 75/200/3
f 203/201/93 75/200/94 74/202/3
f 205/203/95 74/202/96 73/204/3
f 207/205/97 73/204/98 72/206/3
f 148/207/99 72/206/100 71/129/3
f 25/37/1 24/1/1 89/105/1
f 104/208/101 106/48/101 103/11/101
f 104/208/101 107/80/101 108/209/101
f 110/8/102 112/210/102 109/211/102
f 111/19/103 114/212/103 112/210/103
f 113/20/104 116/213/104 114/212/104
f 115/21/105 118/214/105 116/213/105
f 117/23/106 120/215/106 118/214/106
f 119/25/107 122/216/107 120/215/107
f 123/30/108 122/216/108 121/27/108
f 125/15/109 124/217/109 123/30/109
f 128/49/110 105/218/110 127/219/110
f 131/9/111 129/220/111 130/34/111
f 130/34/112 133/221/112 134/35/112
f 134/35/113 135/222/113 136/36/113
f 136/36/114 137/223/114 138/38/114
f 138/38/115 139/224/115 140/40/115
f 140/40/116 141/225/116 142/42/116
f 144/45/117 141/225/117 143/226/117
f 146/46/118 143/226/118 145/227/118
f 148/228/119 107/80/119 147/178/119
f 125/15/120 150/229/120 126/230/120
f 149/14/121 152/231/121 150/229/121
f 151/78/122 154/232/122 152/231/122
f 153/76/123 156/233/123 154/232/123
f 155/74/124 158/234/124 156/233/124
f 157/72/125 160/235/125 158/234/125
f 159/70/126 162/236/126 160/235/126
f 161/68/127 164/237/127 162/236/127
f 163/66/128 166/238/128 164/237/128
f 165/64/129 168/239/129 166/238/129
f 167/62/130 170/240/130 168/239/130
f 169/60/131 172/241/131 170/240/131
f 171/58/132 174/242/132 172/241/132
f 173/56/133 176/243/133 174/242/133
f 175/54/134 178/244/134 176/243/134
f 177/53/135 127/219/135 178/244/135
f 179/245/136 146/46/136 145/227/136
f 181/246/137 180/2/137 179/245/137
f 183/247/138 182/50/138 181/246/138
f 185/248/139 184/107/139 183/247/139
f 187/249/140 186/106/140 185/248/140
f 189/250/141 188/104/141 187/249/141
f 191/251/142 190/102/142 189/250/142
f 193/252/143 192/100/143 191/251/143
f 195/253/144 194/98/144 193/252/144
f 197/254/145 196/96/145 195/253/145
f 199/255/146 198/94/146 197/254/146
f 201/256/147 200/92/147 199/255/147
f 203/257/148 202/90/148 201/256/148
f 205/258/149 204/88/149 203/257/149
f 207/259/150 206/86/150 205/258/150
f 148/228/151 208/83/151 207/259/151
f 131/9/152 109/211/153 132/260/154
f 2/261/1 103/11/1 106/48/1
f 295/262/10 219/263/10 241/264/10
f 212/265/10 271/266/10 260/267/10
f 257/268/10 209/269/10 211/270/10
f 213/271/10 280/272/10 225/273/10
f 212/265/10 260/267/10 261/274/10
f 212/265/42 261/274/42 262/275/42
f 212/265/10 263/276/10 218/277/10
f 218/277/10 264/278/10 217/279/10
f 217/279/10 265/280/10 216/281/10
f 216/281/10 266/282/10 215/283/10
f 266/282/10 214/284/10 215/283/10
f 267/285/10 213/271/10 214/284/10
f 212/265/10 272/286/10 270/287/10
f 273/288/10 212/265/10 220/289/10
f 274/290/10 220/289/10 221/291/10
f 275/292/10 221/291/10 222/293/10
f 276/294/10 222/293/10 223/295/10
f 224/296/10 276/294/10 223/295/10
f 219/263/10 277/297/10 224/296/10
f 240/298/1 258/299/1 210/300/1
f 212/265/42 270/287/42 271/266/42
f 296/301/10 241/264/10 242/302/10
f 238/303/10 294/304/10 239/305/10
f 237/306/10 293/307/10 238/303/10
f 236/308/10 292/309/10 237/306/10
f 235/310/10 291/311/10 236/308/10
f 234/312/10 290/313/10 235/310/10
f 233/314/42 289/315/42 234/312/42
f 232/316/10 288/317/10 233/314/10
f 231/318/10 287/319/10 232/316/10
f 230/320/10 286/321/10 231/318/10
f 229/322/10 285/323/10 230/320/10
f 228/324/10 284/325/10 229/322/10
f 227/326/10 283/327/10 228/324/10
f 226/328/10 282/329/10 227/326/10
f 259/330/1 256/331/1 209/269/1
f 225/273/10 281/332/10 226/328/10
f 309/333/10 254/334/10 255/335/10
f 308/336/10 253/337/10 254/334/10
f 307/338/10 252/339/10 253/337/10
f 306/340/10 251/341/10 252/339/10
f 305/342/10 250/343/10 251/341/10
f 304/344/10 249/345/10 250/343/10
f 303/346/10 248/347/10 249/345/10
f 302/348/10 247/349/10 248/347/10
f 301/350/10 246/351/10 247/349/10
f 300/352/10 245/353/10 246/351/10
f 299/354/10 244/355/10 245/353/10
f 298/356/10 243/357/10 244/355/10
f 297/358/10 242/302/10 243/357/10
f 239/305/10 269/359/10 240/298/10
f 279/360/10 255/335/10 256/331/10
f 220/289/10 215/283/10 227/326/10
f 104/361/155 258/299/155 105/362/155
f 259/330/155 104/361/155 108/363/155
f 260/267/156 112/364/156 261/274/156
f 261/274/157 114/365/157 262/275/157
f 262/275/158 116/366/158 263/276/158
f 263/276/159 118/367/159 264/278/159
f 264/278/160 120/368/160 265/280/160
f 265/280/161 122/369/161 266/282/161
f 122/369/162 267/285/162 266/282/162
f 124/370/163 268/371/163 267/285/163
f 269/359/164 105/362/164 258/299/164
f 129/372/165 271/266/165 270/287/165
f 133/373/166 270/287/166 272/286/166
f 135/374/167 272/286/167 273/288/167
f 137/375/168 273/288/168 274/290/168
f 139/376/169 274/290/169 275/292/169
f 141/377/170 275/292/170 276/294/170
f 277/297/171 141/377/171 276/294/171
f 278/378/172 143/379/172 277/297/172
f 148/380/173 259/330/173 108/363/173
f 268/371/174 150/381/174 280/272/174
f 280/272/175 152/382/175 281/332/175
f 281/332/176 154/383/176 282/329/176
f 282/329/177 156/384/177 283/327/177
f 283/327/178 158/385/178 284/325/178
f 284/325/179 160/386/179 285/323/179
f 285/323/180 162/387/180 286/321/180
f 286/321/181 164/388/181 287/319/181
f 287/319/182 166/389/182 288/317/182
f 288/317/183 168/390/183 289/315/183
f 289/315/184 170/391/184 290/313/184
f 290/313/185 172/392/185 291/311/185
f 291/311/186 174/393/186 292/309/186
f 292/309/187 176/394/187 293/307/187
f 293/307/188 178/395/188 294/304/188
f 294/304/189 127/396/189 269/359/189
f 278/378/190 179/397/190 145/398/190
f 295/262/191 181/399/191 179/397/191
f 296/301/192 183/400/192 181/399/192
f 297/358/193 185/401/193 183/400/193
f 298/356/194 187/402/194 185/401/194
f 299/354/195 189/403/195 187/402/195
f 300/352/196 191/404/196 189/403/196
f 301/350/197 193/405/197 191/404/197
f 302/348/198 195/406/198 193/405/198
f 303/346/199 197/407/199 195/406/199
f 304/344/200 199/408/200 197/407/200
f 305/342/201 201/409/201 199/408/201
f 306/340/202 203/410/202 201/409/202
f 307/338/203 205/411/203 203/410/203
f 308/336/204 207/412/204 205/411/204
f 309/333/205 148/380/205 207/412/205
f 271/266/206 109/413/207 260/267/208
f 210/300/10 257/268/10 211/270/10
f 312/414/209 311/415/209 310/416/209
f 312/414/210 315/417/210 313/418/210
f 314/419/211 317/420/211 315/417/211
f 318/421/212 317/420/212 316/422/212
f 318/421/213 321/423/213 319/424/213
f 322/425/214 321/423/214 320/426/214
f 322/425/215 325/427/215 323/428/215
f 326/429/216 325/427/216 324/430/216
f 328/431/217 327/432/217 326/429/217
f 330/433/218 329/434/218 328/431/218
f 330/433/219 333/435/219 331/436/219
f 334/437/220 333/435/220 332/438/220
f 334/437/221 337/439/221 335/440/221
f 338/441/222 337/439/222 336/442/222
f 338/441/223 341/443/223 339/444/223
f 340/445/224 343/446/224 341/443/224
f 342/447/225 345/448/225 343/446/225
f 344/449/226 347/450/226 345/448/226
f 346/451/227 349/452/227 347/450/227
f 350/453/228 349/452/228 348/454/228
f 352/455/229 351/456/229 350/453/229
f 354/457/230 353/458/230 352/455/230
f 356/459/231 355/460/231 354/457/231
f 356/459/232 359/461/232 357/462/232
f 360/463/233 359/461/233 358/464/233
f 362/465/234 361/466/234 360/463/234
f 362/465/235 365/467/235 363/468/235
f 364/469/236 367/470/236 365/467/236
f 368/471/237 367/470/237 366/472/237
f 370/473/238 369/474/238 368/471/238
f 347/475/239 331/476/239 315/477/239
f 370/473/240 373/478/240 371/479/240
f 372/480/241 311/481/242 373/478/242
f 344/482/239 328/483/239 312/484/239
f 24/1/1 146/46/1 180/2/1
f 5/4/3 105/111/4 104/5/243
f 1/10/1 107/80/1 103/11/1
f 9/13/1 55/81/1 149/14/1
f 23/16/3 112/147/42 114/17/244
f 4/7/1 14/22/1 115/21/1
f 14/22/1 13/24/1 117/23/1
f 13/24/1 12/26/1 119/25/1
f 12/26/1 11/29/1 121/27/1
f 10/28/1 123/30/1 121/27/1
f 9/13/7 125/15/7 123/30/7
f 129/31/3 38/130/12 37/32/245
f 4/7/1 134/35/1 136/36/1
f 25/37/1 136/36/1 138/38/1
f 26/39/1 138/38/1 140/40/1
f 27/41/1 140/40/1 142/42/1
f 29/44/1 28/43/1 142/42/1
f 24/1/1 29/44/1 144/45/1
f 70/47/10 2/261/10 106/48/10
f 87/3/1 180/2/1 182/50/1
f 68/52/1 69/148/1 177/53/1
f 67/55/1 68/52/1 175/54/1
f 66/57/1 67/55/1 173/56/1
f 65/59/1 66/57/1 171/58/1
f 64/61/1 65/59/1 169/60/1
f 63/63/1 64/61/1 167/62/1
f 62/65/1 63/63/1 165/64/1
f 61/67/1 62/65/1 163/66/1
f 60/69/1 61/67/1 161/68/1
f 59/71/1 60/69/1 159/70/1
f 58/73/1 59/71/1 157/72/1
f 57/75/1 58/73/1 155/74/1
f 56/77/1 57/75/1 153/76/1
f 102/79/10 147/178/10 107/80/10
f 55/81/1 56/77/1 151/78/1
f 100/82/1 206/86/1 208/83/1
f 99/85/1 204/88/1 206/86/1
f 98/87/1 202/90/1 204/88/1
f 97/89/1 200/92/1 202/90/1
f 96/91/1 198/94/1 200/92/1
f 95/93/1 196/96/1 198/94/1
f 94/95/1 194/98/1 196/96/1
f 93/97/1 192/100/1 194/98/1
f 92/99/1 190/102/1 192/100/1
f 91/101/1 188/104/1 190/102/1
f 90/103/1 186/106/1 188/104/1
f 89/105/1 184/107/1 186/106/1
f 88/51/7 182/50/7 184/107/7
f 8/6/3 104/5/4 108/108/246
f 5/4/247 54/177/3 127/110/4
f 109/112/1 7/146/248 31/113/249
f 22/18/3 114/17/12 116/115/250
f 21/116/3 116/115/251 118/117/252
f 20/118/3 118/117/4 120/119/253
f 19/120/3 120/119/4 122/121/254
f 18/122/3 122/121/9 124/123/255
f 17/124/3 124/123/12 126/125/256
f 39/127/257 15/126/3 126/125/4
f 108/108/258 148/207/3 71/129/4
f 132/114/3 31/113/4 38/130/259
f 133/33/3 37/32/4 36/131/260
f 135/132/3 36/131/4 35/133/261
f 137/134/3 35/133/4 34/135/262
f 139/136/3 34/135/12 33/137/263
f 141/138/3 33/137/4 32/139/264
f 143/140/3 32/139/4 30/141/265
f 179/143/266 145/142/3 30/141/12
f 16/145/3 109/112/42 112/147/267
f 69/148/1 70/47/1 128/49/1
f 40/149/268 39/127/3 150/128/12
f 41/151/269 40/149/3 152/150/4
f 42/153/270 41/151/3 154/152/19
f 43/155/271 42/153/3 156/154/272
f 44/157/273 43/155/3 158/156/12
f 45/159/274 44/157/3 160/158/4
f 46/161/275 45/159/3 162/160/12
f 47/163/276 46/161/3 164/162/277
f 48/165/278 47/163/3 166/164/4
f 49/167/279 48/165/3 168/166/4
f 50/169/280 49/167/3 170/168/4
f 51/171/281 50/169/3 172/170/12
f 52/173/282 51/171/3 174/172/4
f 53/175/283 52/173/3 176/174/9
f 54/177/284 53/175/3 178/176/12
f 101/84/1 208/83/1 147/178/1
f 181/179/285 179/143/3 86/144/272
f 183/181/286 181/179/3 85/180/4
f 185/183/287 183/181/3 84/182/9
f 187/185/288 185/183/3 83/184/19
f 189/187/289 187/185/3 82/186/4
f 191/189/290 189/187/3 81/188/272
f 193/191/291 191/189/3 80/190/4
f 195/193/292 193/191/3 79/192/12
f 197/195/293 195/193/3 78/194/4
f 199/197/294 197/195/3 77/196/277
f 201/199/295 199/197/3 76/198/4
f 203/201/296 201/199/3 75/200/9
f 205/203/297 203/201/3 74/202/4
f 207/205/298 205/203/3 73/204/12
f 148/207/299 207/205/3 72/206/4
f 2/261/1 70/47/1 69/148/1
f 2/261/300 69/148/300 68/52/300
f 3/12/1 2/261/1 68/52/1
f 3/12/1 68/52/1 67/55/1
f 101/84/1 102/79/1 1/10/1
f 1/10/1 3/12/1 67/55/1
f 1/10/1 67/55/1 66/57/1
f 100/82/301 101/84/301 1/10/301
f 100/82/1 1/10/1 66/57/1
f 100/82/1 66/57/1 65/59/1
f 99/85/1 100/82/1 65/59/1
f 99/85/1 65/59/1 64/61/1
f 98/87/1 99/85/1 64/61/1
f 98/87/1 64/61/1 63/63/1
f 97/89/1 98/87/1 63/63/1
f 97/89/1 63/63/1 62/65/1
f 96/91/1 97/89/1 62/65/1
f 96/91/1 62/65/1 61/67/1
f 95/93/1 96/91/1 61/67/1
f 95/93/1 61/67/1 60/69/1
f 94/95/1 95/93/1 60/69/1
f 94/95/1 60/69/1 59/71/1
f 93/97/1 94/95/1 59/71/1
f 93/97/1 59/71/1 58/73/1
f 92/99/1 93/97/1 58/73/1
f 57/75/302 56/77/302 55/81/302
f 92/99/1 58/73/1 57/75/1
f 91/101/1 92/99/1 57/75/1
f 57/75/248 55/81/248 9/13/248
f 9/13/303 10/28/303 11/29/303
f 11/29/1 12/26/1 13/24/1
f 13/24/304 14/22/304 4/7/304
f 25/37/305 26/39/305 27/41/305
f 13/24/1 4/7/1 25/37/1
f 9/13/7 11/29/7 13/24/7
f 91/101/1 57/75/1 9/13/1
f 90/103/1 91/101/1 9/13/1
f 9/13/1 13/24/1 25/37/1
f 25/37/7 27/41/7 28/43/7
f 28/43/1 29/44/1 24/1/1
f 24/1/7 87/3/7 88/51/7
f 89/105/1 90/103/1 9/13/1
f 24/1/7 88/51/7 89/105/7
f 25/37/1 28/43/1 24/1/1
f 89/105/1 9/13/1 25/37/1
f 104/208/101 105/218/101 106/48/101
f 104/208/101 103/11/101 107/80/101
f 110/8/306 111/19/306 112/210/306
f 111/19/307 113/20/307 114/212/307
f 113/20/308 115/21/308 116/213/308
f 115/21/309 117/23/309 118/214/309
f 117/23/310 119/25/310 120/215/310
f 119/25/311 121/27/311 122/216/311
f 123/30/312 124/217/312 122/216/312
f 125/15/313 126/230/313 124/217/313
f 128/49/314 106/48/314 105/218/314
f 131/9/315 132/260/315 129/220/315
f 130/34/316 129/220/316 133/221/316
f 134/35/317 133/221/317 135/222/317
f 136/36/318 135/222/318 137/223/318
f 138/38/319 137/223/319 139/224/319
f 140/40/320 139/224/320 141/225/320
f 144/45/321 142/42/321 141/225/321
f 146/46/322 144/45/322 143/226/322
f 148/228/323 108/209/323 107/80/323
f 125/15/324 149/14/324 150/229/324
f 149/14/325 151/78/325 152/231/325
f 151/78/326 153/76/326 154/232/326
f 153/76/327 155/74/327 156/233/327
f 155/74/328 157/72/328 158/234/328
f 157/72/329 159/70/329 160/235/329
f 159/70/330 161/68/330 162/236/330
f 161/68/331 163/66/331 164/237/331
f 163/66/332 165/64/332 166/238/332
f 165/64/129 167/62/129 168/239/129
f 167/62/333 169/60/333 170/240/333
f 169/60/131 171/58/131 172/241/131
f 171/58/132 173/56/132 174/242/132
f 173/56/133 175/54/133 176/243/133
f 175/54/134 177/53/134 178/244/134
f 177/53/135 128/49/135 127/219/135
f 179/245/334 180/2/334 146/46/334
f 181/246/335 182/50/335 180/2/335
f 183/247/336 184/107/336 182/50/336
f 185/248/337 186/106/337 184/107/337
f 187/249/338 188/104/338 186/106/338
f 189/250/339 190/102/339 188/104/339
f 191/251/340 192/100/340 190/102/340
f 193/252/341 194/98/341 192/100/341
f 195/253/342 196/96/342 194/98/342
f 197/254/343 198/94/343 196/96/343
f 199/255/146 200/92/146 198/94/146
f 201/256/344 202/90/344 200/92/344
f 203/257/148 204/88/148 202/90/148
f 205/258/345 206/86/345 204/88/345
f 207/259/150 208/83/150 206/86/150
f 148/228/346 147/178/346 208/83/346
f 131/9/347 110/8/348 109/211/349
f 2/261/1 3/12/1 103/11/1
f 295/262/10 278/378/10 219/263/10
f 257/268/10 259/330/10 209/269/10
f 213/271/42 268/371/42 280/272/42
f 212/265/10 262/275/10 263/276/10
f 218/277/10 263/276/10 264/278/10
f 217/279/10 264/278/10 265/280/10
f 216/281/10 265/280/10 266/282/10
f 266/282/10 267/285/10 214/284/10
f 267/285/42 268/371/42 213/271/42
f 273/288/10 272/286/10 212/265/10
f 274/290/10 273/288/10 220/289/10
f 275/292/10 274/290/10 221/291/10
f 276/294/10 275/292/10 222/293/10
f 224/296/10 277/297/10 276/294/10
f 219/263/10 278/378/10 277/297/10
f 240/298/1 269/359/1 258/299/1
f 296/301/10 295/262/10 241/264/10
f 238/303/10 293/307/10 294/304/10
f 237/306/10 292/309/10 293/307/10
f 236/308/10 291/311/10 292/309/10
f 235/310/10 290/313/10 291/311/10
f 234/312/42 289/315/42 290/313/42
f 233/314/10 288/317/10 289/315/10
f 232/316/10 287/319/10 288/317/10
f 231/318/10 286/321/10 287/319/10
f 230/320/10 285/323/10 286/321/10
f 229/322/10 284/325/10 285/323/10
f 228/324/10 283/327/10 284/325/10
f 227/326/10 282/329/10 283/327/10
f 226/328/10 281/332/10 282/329/10
f 259/330/7 279/360/7 256/331/7
f 225/273/10 280/272/10 281/332/10
f 309/333/42 308/336/42 254/334/42
f 308/336/10 307/338/10 253/337/10
f 307/338/10 306/340/10 252/339/10
f 306/340/10 305/342/10 251/341/10
f 305/342/10 304/344/10 250/343/10
f 304/344/10 303/346/10 249/345/10
f 303/346/10 302/348/10 248/347/10
f 302/348/10 301/350/10 247/349/10
f 301/350/10 300/352/10 246/351/10
f 300/352/10 299/354/10 245/353/10
f 299/354/10 298/356/10 244/355/10
f 298/356/10 297/358/10 243/357/10
f 297/358/42 296/301/42 242/302/42
f 239/305/10 294/304/10 269/359/10
f 279/360/10 309/333/10 255/335/10
f 209/269/42 256/331/42 255/335/42
f 209/269/350 255/335/350 254/334/350
f 211/270/10 209/269/10 254/334/10
f 211/270/10 254/334/10 253/337/10
f 239/305/42 240/298/42 210/300/42
f 210/300/10 211/270/10 253/337/10
f 210/300/10 253/337/10 252/339/10
f 238/303/351 239/305/351 210/300/351
f 238/303/10 210/300/10 252/339/10
f 238/303/10 252/339/10 251/341/10
f 237/306/10 238/303/10 251/341/10
f 237/306/10 251/341/10 250/343/10
f 236/308/10 237/306/10 250/343/10
f 236/308/10 250/343/10 249/345/10
f 235/310/10 236/308/10 249/345/10
f 235/310/10 249/345/10 248/347/10
f 234/312/10 235/310/10 248/347/10
f 234/312/10 248/347/10 247/349/10
f 233/314/10 234/312/10 247/349/10
f 233/314/10 247/349/10 246/351/10
f 232/316/10 233/314/10 246/351/10
f 232/316/10 246/351/10 245/353/10
f 231/318/10 232/316/10 245/353/10
f 231/318/10 245/353/10 244/355/10
f 230/320/10 231/318/10 244/355/10
f 243/357/352 242/302/352 241/264/352
f 230/320/10 244/355/10 243/357/10
f 229/322/10 230/320/10 243/357/10
f 243/357/42 241/264/42 219/263/42
f 219/263/353 224/296/353 223/295/353
f 223/295/354 222/293/354 221/291/354
f 220/289/10 212/265/10 218/277/10
f 223/295/10 221/291/10 220/289/10
f 243/357/42 219/263/42 223/295/42
f 228/324/10 229/322/10 243/357/10
f 225/273/355 226/328/355 227/326/355
f 227/326/10 228/324/10 243/357/10
f 243/357/10 223/295/10 220/289/10
f 220/289/10 218/277/10 217/279/10
f 217/279/10 216/281/10 215/283/10
f 215/283/356 214/284/356 213/271/356
f 213/271/357 225/273/357 227/326/357
f 227/326/10 243/357/10 220/289/10
f 220/289/10 217/279/10 215/283/10
f 215/283/10 213/271/10 227/326/10
f 104/361/155 257/268/155 258/299/155
f 259/330/155 257/268/155 104/361/155
f 260/267/358 109/413/358 112/364/358
f 261/274/359 112/364/359 114/365/359
f 262/275/360 114/365/360 116/366/360
f 263/276/361 116/366/361 118/367/361
f 264/278/362 118/367/362 120/368/362
f 265/280/363 120/368/363 122/369/363
f 122/369/364 124/370/364 267/285/364
f 124/370/365 126/485/365 268/371/365
f 269/359/366 127/396/366 105/362/366
f 129/372/367 132/486/367 271/266/367
f 133/373/368 129/372/368 270/287/368
f 135/374/369 133/373/369 272/286/369
f 137/375/370 135/374/370 273/288/370
f 139/376/371 137/375/371 274/290/371
f 141/377/372 139/376/372 275/292/372
f 277/297/373 143/379/373 141/377/373
f 278/378/374 145/398/374 143/379/374
f 148/380/375 279/360/375 259/330/375
f 268/371/376 126/485/376 150/381/376
f 280/272/377 150/381/377 152/382/377
f 281/332/378 152/382/378 154/383/378
f 282/329/379 154/383/379 156/384/379
f 283/327/380 156/384/380 158/385/380
f 284/325/381 158/385/381 160/386/381
f 285/323/382 160/386/382 162/387/382
f 286/321/383 162/387/383 164/388/383
f 287/319/384 164/388/384 166/389/384
f 288/317/183 166/389/183 168/390/183
f 289/315/184 168/390/184 170/391/184
f 290/313/385 170/391/385 172/392/385
f 291/311/186 172/392/186 174/393/186
f 292/309/187 174/393/187 176/394/187
f 293/307/386 176/394/386 178/395/386
f 294/304/387 178/395/387 127/396/387
f 278/378/388 295/262/388 179/397/388
f 295/262/389 296/301/389 181/399/389
f 296/301/390 297/358/390 183/400/390
f 297/358/391 298/356/391 185/401/391
f 298/356/392 299/354/392 187/402/392
f 299/354/393 300/352/393 189/403/393
f 300/352/394 301/350/394 191/404/394
f 301/350/395 302/348/395 193/405/395
f 302/348/396 303/346/396 195/406/396
f 303/346/397 304/344/397 197/407/397
f 304/344/398 305/342/398 199/408/398
f 305/342/399 306/340/399 201/409/399
f 306/340/400 307/338/400 203/410/400
f 307/338/401 308/336/401 205/411/401
f 308/336/204 309/333/204 207/412/204
f 309/333/205 279/360/205 148/380/205
f 271/266/402 132/486/403 109/413/404
f 210/300/10 258/299/10 257/268/10
f 312/414/209 313/418/209 311/415/209
f 312/414/210 314/419/210 315/417/210
f 314/419/211 316/422/211 317/420/211
f 318/421/212 319/424/212 317/420/212
f 318/421/213 320/426/213 321/423/213
f 322/425/214 323/428/214 321/423/214
f 322/425/215 324/430/215 325/427/215
f 326/429/216 327/432/216 325/427/216
f 328/431/217 329/434/217 327/432/217
f 330/433/405 331/436/405 329/434/405
f 330/433/406 332/438/406 333/435/406
f 334/437/220 335/440/220 333/435/220
f 334/437/221 336/442/221 337/439/221
f 338/441/222 339/444/222 337/439/222
f 338/441/223 340/445/223 341/443/223
f 340/445/224 342/447/224 343/446/224
f 342/447/407 344/449/407 345/448/407
f 344/449/408 346/451/408 347/450/408
f 346/451/409 348/454/409 349/452/409
f 350/453/410 351/456/410 349/452/410
f 352/455/411 353/458/411 351/456/411
f 354/457/412 355/460/412 353/458/412
f 356/459/231 357/462/231 355/460/231
f 356/459/232 358/464/232 359/461/232
f 360/463/233 361/466/233 359/461/233
f 362/465/234 363/468/234 361/466/234
f 362/465/235 364/469/235 365/467/235
f 364/469/236 366/472/236 367/470/236
f 368/471/237 369/474/237 367/470/237
f 370/473/238 371/479/238 369/474/238
f 315/477/413 313/487/413 311/488/413
f 311/488/414 373/489/414 371/490/414
f 371/490/415 369/491/415 367/492/415
f 367/492/416 365/493/416 363/494/416
f 363/494/417 361/495/417 359/496/417
f 359/496/418 357/497/418 355/498/418
f 355/498/418 353/499/418 351/500/418
f 351/500/419 349/501/419 347/475/419
f 347/475/420 345/502/420 343/503/420
f 343/503/421 341/504/421 339/505/421
f 339/505/422 337/506/422 335/507/422
f 335/507/423 333/508/423 331/476/423
f 331/476/424 329/509/424 327/510/424
f 327/510/425 325/511/425 323/512/425
f 323/512/426 321/513/426 319/514/426
f 319/514/419 317/515/419 315/477/419
f 315/477/239 311/488/239 371/490/239
f 371/490/427 367/492/427 363/494/427
f 363/494/428 359/496/428 355/498/428
f 355/498/426 351/500/426 347/475/426
f 347/475/239 343/503/239 339/505/239
f 339/505/429 335/507/429 331/476/429
f 331/476/430 327/510/430 323/512/430
f 323/512/426 319/514/426 315/477/426
f 315/477/239 371/490/239 363/494/239
f 363/494/239 355/498/239 347/475/239
f 347/475/239 339/505/239 331/476/239
f 331/476/239 323/512/239 315/477/239
f 315/477/239 363/494/239 347/475/239
f 370/473/240 372/480/240 373/478/240
f 372/480/242 310/516/242 311/481/431
f 312/484/432 310/517/432 372/518/432
f 372/518/426 370/519/426 368/520/426
f 368/520/433 366/521/433 364/522/433
f 364/522/434 362/523/434 360/524/434
f 360/524/435 358/525/435 356/526/435
f 356/526/436 354/527/436 352/528/436
f 352/528/437 350/529/437 348/530/437
f 348/530/438 346/531/438 344/482/438
f 344/482/439 342/532/439 340/533/439
f 340/533/440 338/534/440 336/535/440
f 336/535/441 334/536/441 332/537/441
f 332/537/442 330/538/442 328/483/442
f 328/483/443 326/539/443 324/540/443
f 324/540/444 322/541/444 320/542/444
f 320/542/437 318/543/437 316/544/437
f 316/544/445 314/545/445 312/484/445
f 312/484/426 372/518/426 368/520/426
f 368/520/446 364/522/446 360/524/446
f 360/524/447 356/526/447 352/528/447
f 352/528/448 348/530/448 344/482/448
f 344/482/449 340/533/449 336/535/449
f 336/535/448 332/537/448 328/483/448
f 328/483/447 324/540/447 320/542/447
f 320/542/239 316/544/239 312/484/239
f 312/484/450 368/520/450 360/524/450
f 360/524/448 352/528/448 344/482/448
f 344/482/239 336/535/239 328/483/239
f 328/483/239 320/542/239 312/484/239
f 312/484/239 360/524/239 344/482/239
